MulatAbay-Italic.ufo
<glyph name="percent" format="2">
  <advance width="1500"/>
  <unicode hex="0025"/>
  <note>
uni0025
</note>
  <outline>
    <contour>
      <point x="276" y="110" type="line"/>
      <point x="1187" y="1248" type="line"/>
      <point x="1094" y="1314" type="line"/>
      <point x="182" y="176" type="line"/>
    </contour>
    <contour>
      <point x="920" y="-21" type="curve" smooth="yes"/>
      <point x="1093" y="-21"/>
      <point x="1239" y="104"/>
      <point x="1269" y="279" type="curve" smooth="yes"/>
      <point x="1282" y="350" type="line" smooth="yes"/>
      <point x="1315" y="535"/>
      <point x="1212" y="657"/>
      <point x="1037" y="657" type="curve" smooth="yes"/>
      <point x="862" y="657"/>
      <point x="717" y="532"/>
      <point x="686" y="357" type="curve" smooth="yes"/>
      <point x="673" y="285" type="line" smooth="yes"/>
      <point x="641" y="100"/>
      <point x="746" y="-21"/>
    </contour>
    <contour>
      <point x="941" y="99" type="curve" smooth="yes"/>
      <point x="842" y="99"/>
      <point x="792" y="174"/>
      <point x="810" y="279" type="curve" smooth="yes"/>
      <point x="823" y="353" type="line" smooth="yes"/>
      <point x="843" y="465"/>
      <point x="921" y="536"/>
      <point x="1016" y="536" type="curve" smooth="yes"/>
      <point x="1113" y="536"/>
      <point x="1163" y="462"/>
      <point x="1144" y="357" type="curve" smooth="yes"/>
      <point x="1131" y="283" type="line" smooth="yes"/>
      <point x="1111" y="170"/>
      <point x="1037" y="99"/>
    </contour>
    <contour>
      <point x="355" y="800" type="curve" smooth="yes"/>
      <point x="527" y="800"/>
      <point x="673" y="923"/>
      <point x="704" y="1099" type="curve" smooth="yes"/>
      <point x="717" y="1170" type="line" smooth="yes"/>
      <point x="748" y="1351"/>
      <point x="650" y="1477"/>
      <point x="473" y="1477" type="curve" smooth="yes"/>
      <point x="298" y="1477"/>
      <point x="152" y="1351"/>
      <point x="122" y="1176" type="curve" smooth="yes"/>
      <point x="109" y="1106" type="line" smooth="yes"/>
      <point x="77" y="921"/>
      <point x="182" y="800"/>
    </contour>
    <contour>
      <point x="376" y="920" type="curve" smooth="yes"/>
      <point x="278" y="920"/>
      <point x="228" y="995"/>
      <point x="246" y="1099" type="curve" smooth="yes"/>
      <point x="259" y="1172" type="line" smooth="yes"/>
      <point x="278" y="1281"/>
      <point x="353" y="1356"/>
      <point x="451" y="1356" type="curve" smooth="yes"/>
      <point x="550" y="1356"/>
      <point x="598" y="1280"/>
      <point x="580" y="1176" type="curve" smooth="yes"/>
      <point x="567" y="1103" type="line" smooth="yes"/>
      <point x="547" y="990"/>
      <point x="471" y="920"/>
    </contour>
  </outline>
</glyph>
<glyph name="parenleft" format="2">
  <advance width="700"/>
  <unicode hex="0028"/>
  <note>
uni0028
</note>
  <outline>
    <contour>
      <point x="349" y="-470" type="curve"/>
      <point x="407" y="-357" type="line"/>
      <point x="299" y="-254"/>
      <point x="240" y="-100"/>
      <point x="215" y="73" type="curve" smooth="yes"/>
      <point x="191" y="234"/>
      <point x="200" y="411"/>
      <point x="229" y="579" type="curve" smooth="yes"/>
      <point x="271" y="782"/>
      <point x="331" y="959"/>
      <point x="404" y="1106" type="curve" smooth="yes"/>
      <point x="499" y="1296"/>
      <point x="614" y="1437"/>
      <point x="738" y="1521" type="curve"/>
      <point x="722" y="1643" type="line"/>
      <point x="555" y="1561"/>
      <point x="410" y="1406"/>
      <point x="296" y="1225" type="curve" smooth="yes"/>
      <point x="170" y="1024"/>
      <point x="82" y="790"/>
      <point x="46" y="591" type="curve" smooth="yes"/>
      <point x="-9" y="276"/>
      <point x="22" y="5"/>
      <point x="139" y="-222" type="curve" smooth="yes"/>
      <point x="199" y="-338"/>
      <point x="269" y="-421"/>
    </contour>
  </outline>
</glyph>
<glyph name="J" format="2">
  <advance width="1130"/>
  <unicode hex="004A"/>
  <note>
uni004A
</note>
  <outline>
    <contour>
      <point x="318" y="-20" type="curve" smooth="yes"/>
      <point x="596" y="-20"/>
      <point x="807" y="146"/>
      <point x="856" y="425" type="curve" smooth="yes"/>
      <point x="1038" y="1456" type="line"/>
      <point x="845" y="1456" type="line"/>
      <point x="663" y="422" type="line" smooth="yes"/>
      <point x="630" y="242"/>
      <point x="504" y="137"/>
      <point x="345" y="137" type="curve" smooth="yes"/>
      <point x="172" y="137"/>
      <point x="96" y="235"/>
      <point x="125" y="402" type="curve"/>
      <point x="-67" y="402" type="line"/>
      <point x="-114" y="135"/>
      <point x="28" y="-20"/>
    </contour>
  </outline>
</glyph>
<glyph name="L" format="2">
  <advance width="1102"/>
  <unicode hex="004C"/>
  <note>
uni004C
</note>
  <anchor x="360" y="0" name="bottom"/>
  <anchor x="489" y="728" name="center"/>
  <anchor x="617" y="1456" name="top"/>
  <anchor x="1148" y="1456" name="topright"/>
  <outline>
    <contour>
      <point x="-22" y="0" type="line"/>
      <point x="861" y="0" type="line"/>
      <point x="889" y="157" type="line"/>
      <point x="199" y="157" type="line"/>
      <point x="428" y="1456" type="line"/>
      <point x="235" y="1456" type="line"/>
    </contour>
  </outline>
</glyph>
<glyph name="V" format="2">
  <advance width="1303"/>
  <unicode hex="0056"/>
  <note>
uni0056
</note>
  <outline>
    <contour>
      <point x="376" y="0" type="line"/>
      <point x="546" y="0" type="line"/>
      <point x="1343" y="1456" type="line"/>
      <point x="1133" y="1456" type="line"/>
      <point x="505" y="255" type="line"/>
      <point x="303" y="1456" type="line"/>
      <point x="94" y="1456" type="line"/>
    </contour>
  </outline>
</glyph>
<glyph name="W" format="2">
  <advance width="1817"/>
  <unicode hex="0057"/>
  <note>
uni0057
</note>
  <outline>
    <contour>
      <point x="222" y="0" type="line"/>
      <point x="397" y="0" type="line"/>
      <point x="938" y="1172" type="line"/>
      <point x="1054" y="0" type="line"/>
      <point x="1229" y="0" type="line"/>
      <point x="1839" y="1456" type="line"/>
      <point x="1646" y="1456" type="line"/>
      <point x="1179" y="264" type="line"/>
      <point x="1068" y="1456" type="line"/>
      <point x="906" y="1456" type="line"/>
      <point x="367" y="267" type="line"/>
      <point x="319" y="1456" type="line"/>
      <point x="127" y="1456" type="line"/>
    </contour>
  </outline>
</glyph>
<glyph name="a" format="2">
  <advance width="1114"/>
  <unicode hex="0061"/>
  <note>
uni0061
</note>
  <outline>
    <contour>
      <point x="280" y="-20" type="curve" smooth="yes"/>
      <point x="399" y="-20"/>
      <point x="510" y="25"/>
      <point x="611" y="114" type="curve"/>
      <point x="608" y="59"/>
      <point x="610" y="21"/>
      <point x="617" y="0" type="curve"/>
      <point x="811" y="0" type="line"/>
      <point x="814" y="16" type="line"/>
      <point x="799" y="75"/>
      <point x="800" y="154"/>
      <point x="818" y="253" type="curve" smooth="yes"/>
      <point x="906" y="751" type="line"/>
      <point x="939" y="970"/>
      <point x="814" y="1102"/>
      <point x="565" y="1102" type="curve" smooth="yes"/>
      <point x="407" y="1102"/>
      <point x="258" y="1039"/>
      <point x="163" y="939" type="curve" smooth="yes"/>
      <point x="116" y="888"/>
      <point x="88" y="836"/>
      <point x="78" y="782" type="curve"/>
      <point x="264" y="782" type="line"/>
      <point x="281" y="877"/>
      <point x="395" y="953"/>
      <point x="527" y="953" type="curve" smooth="yes"/>
      <point x="678" y="953"/>
      <point x="742" y="870"/>
      <point x="719" y="741" type="curve" smooth="yes"/>
      <point x="704" y="656" type="line"/>
      <point x="524" y="656" type="line" smooth="yes"/>
      <point x="213" y="656"/>
      <point x="11" y="525"/>
      <point x="-29" y="300" type="curve" smooth="yes"/>
      <point x="-62" y="115"/>
      <point x="66" y="-20"/>
    </contour>
    <contour>
      <point x="335" y="141" type="curve" smooth="yes"/>
      <point x="214" y="141"/>
      <point x="140" y="210"/>
      <point x="161" y="326" type="curve" smooth="yes"/>
      <point x="184" y="459"/>
      <point x="309" y="525"/>
      <point x="536" y="525" type="curve" smooth="yes"/>
      <point x="681" y="525" type="line"/>
      <point x="642" y="303" type="line"/>
      <point x="578" y="207"/>
      <point x="451" y="141"/>
    </contour>
  </outline>
</glyph>
<glyph name="d" format="2">
  <advance width="1155"/>
  <unicode hex="0064"/>
  <note>
uni0064
</note>
  <outline>
    <contour>
      <point x="326" y="-20" type="curve" smooth="yes"/>
      <point x="458" y="-20"/>
      <point x="569" y="25"/>
      <point x="659" y="116" type="curve"/>
      <point x="647" y="0" type="line"/>
      <point x="817" y="0" type="line"/>
      <point x="1088" y="1536" type="line"/>
      <point x="903" y="1536" type="line"/>
      <point x="804" y="972" type="line"/>
      <point x="745" y="1059"/>
      <point x="652" y="1102"/>
      <point x="526" y="1102" type="curve" smooth="yes"/>
      <point x="271" y="1102"/>
      <point x="60" y="882"/>
      <point x="-1" y="536" type="curve" smooth="yes"/>
      <point x="-60" y="205"/>
      <point x="75" y="-20"/>
    </contour>
    <contour>
      <point x="399" y="137" type="curve" smooth="yes"/>
      <point x="221" y="137"/>
      <point x="139" y="284"/>
      <point x="182" y="529" type="curve" smooth="yes"/>
      <point x="231" y="804"/>
      <point x="363" y="945"/>
      <point x="544" y="945" type="curve" smooth="yes"/>
      <point x="659" y="945"/>
      <point x="735" y="894"/>
      <point x="772" y="792" type="curve"/>
      <point x="684" y="295" type="line"/>
      <point x="612" y="190"/>
      <point x="517" y="137"/>
    </contour>
  </outline>
</glyph>
<glyph name="q" format="2">
  <advance width="1164"/>
  <unicode hex="0071"/>
  <note>
uni0071
</note>
  <outline>
    <contour>
      <point x="558" y="-416" type="line"/>
      <point x="743" y="-416" type="line"/>
      <point x="1007" y="1082" type="line"/>
      <point x="837" y="1082" type="line"/>
      <point x="810" y="973" type="line"/>
      <point x="751" y="1059"/>
      <point x="658" y="1102"/>
      <point x="530" y="1102" type="curve" smooth="yes"/>
      <point x="267" y="1102"/>
      <point x="61" y="890"/>
      <point x="1" y="550" type="curve" smooth="yes"/>
      <point x="-60" y="201"/>
      <point x="68" y="-20"/>
      <point x="330" y="-20" type="curve" smooth="yes"/>
      <point x="454" y="-20"/>
      <point x="560" y="20"/>
      <point x="649" y="100" type="curve"/>
    </contour>
    <contour>
      <point x="402" y="131" type="curve" smooth="yes"/>
      <point x="225" y="131"/>
      <point x="139" y="281"/>
      <point x="182" y="529" type="curve" smooth="yes"/>
      <point x="231" y="806"/>
      <point x="370" y="950"/>
      <point x="549" y="950" type="curve" smooth="yes"/>
      <point x="657" y="950"/>
      <point x="732" y="902"/>
      <point x="774" y="807" type="curve"/>
      <point x="680" y="277" type="line"/>
      <point x="605" y="180"/>
      <point x="512" y="131"/>
    </contour>
  </outline>
</glyph>
<glyph name="v" format="2">
  <advance width="992"/>
  <unicode hex="0076"/>
  <note>
uni0076
</note>
  <outline>
    <contour>
      <point x="234" y="0" type="line"/>
      <point x="375" y="0" type="line"/>
      <point x="954" y="1082" type="line"/>
      <point x="765" y="1082" type="line"/>
      <point x="350" y="251" type="line"/>
      <point x="222" y="1082" type="line"/>
      <point x="33" y="1082" type="line"/>
    </contour>
  </outline>
</glyph>
<glyph name="dieresis" format="2">
  <advance width="856"/>
  <unicode hex="00A8"/>
  <note>
uni00A8
</note>
  <outline>
    <contour>
      <point x="672" y="1264" type="curve" smooth="yes"/>
      <point x="744" y="1264"/>
      <point x="790" y="1309"/>
      <point x="801" y="1369" type="curve" smooth="yes"/>
      <point x="811" y="1429"/>
      <point x="781" y="1476"/>
      <point x="709" y="1476" type="curve" smooth="yes"/>
      <point x="637" y="1476"/>
      <point x="592" y="1429"/>
      <point x="582" y="1369" type="curve" smooth="yes"/>
      <point x="571" y="1309"/>
      <point x="600" y="1264"/>
    </contour>
    <contour>
      <point x="242" y="1266" type="curve" smooth="yes"/>
      <point x="314" y="1266"/>
      <point x="360" y="1311"/>
      <point x="371" y="1371" type="curve" smooth="yes"/>
      <point x="382" y="1431"/>
      <point x="352" y="1477"/>
      <point x="280" y="1477" type="curve" smooth="yes"/>
      <point x="208" y="1477"/>
      <point x="163" y="1431"/>
      <point x="152" y="1371" type="curve" smooth="yes"/>
      <point x="141" y="1311"/>
      <point x="170" y="1266"/>
    </contour>
  </outline>
</glyph>
<glyph name="degree" format="2">
  <advance width="765"/>
  <unicode hex="00B0"/>
  <note>
uni00B0
</note>
  <outline>
    <contour>
      <point x="363" y="960" type="curve" smooth="yes"/>
      <point x="502" y="960"/>
      <point x="635" y="1075"/>
      <point x="660" y="1216" type="curve" smooth="yes"/>
      <point x="684" y="1356"/>
      <point x="593" y="1476"/>
      <point x="454" y="1476" type="curve" smooth="yes"/>
      <point x="313" y="1476"/>
      <point x="178" y="1355"/>
      <point x="154" y="1216" type="curve" smooth="yes"/>
      <point x="129" y="1075"/>
      <point x="223" y="960"/>
    </contour>
    <contour>
      <point x="386" y="1088" type="curve" smooth="yes"/>
      <point x="313" y="1088"/>
      <point x="266" y="1144"/>
      <point x="279" y="1216" type="curve" smooth="yes"/>
      <point x="291" y="1288"/>
      <point x="359" y="1349"/>
      <point x="432" y="1349" type="curve" smooth="yes"/>
      <point x="504" y="1349"/>
      <point x="550" y="1293"/>
      <point x="537" y="1216" type="curve" smooth="yes"/>
      <point x="523" y="1140"/>
      <point x="458" y="1088"/>
    </contour>
  </outline>
</glyph>
<glyph name="questiondown" format="2">
  <advance width="969"/>
  <unicode hex="00BF"/>
  <note>
uni00BF
</note>
  <outline>
    <contour>
      <point x="219" y="-385" type="curve" smooth="yes"/>
      <point x="463" y="-385"/>
      <point x="653" y="-235"/>
      <point x="694" y="-20" type="curve"/>
      <point x="509" y="-20" type="line"/>
      <point x="487" y="-141"/>
      <point x="381" y="-224"/>
      <point x="248" y="-224" type="curve" smooth="yes"/>
      <point x="102" y="-224"/>
      <point x="37" y="-145"/>
      <point x="62" y="0" type="curve"/>
      <point x="90" y="103"/>
      <point x="136" y="168"/>
      <point x="208" y="233" type="curve" smooth="yes"/>
      <point x="281" y="297"/>
      <point x="337" y="349"/>
      <point x="376" y="388" type="curve" smooth="yes"/>
      <point x="454" y="467"/>
      <point x="491" y="539"/>
      <point x="517" y="680" type="curve"/>
      <point x="332" y="680" type="line"/>
      <point x="315" y="583"/>
      <point x="280" y="508"/>
      <point x="98" y="343" type="curve" smooth="yes"/>
      <point x="-30" y="226"/>
      <point x="-103" y="110"/>
      <point x="-124" y="-5" type="curve" smooth="yes"/>
      <point x="-166" y="-244"/>
      <point x="-42" y="-385"/>
    </contour>
    <contour>
      <point x="453" y="890" type="curve" smooth="yes"/>
      <point x="525" y="890"/>
      <point x="570" y="937"/>
      <point x="581" y="997" type="curve" smooth="yes"/>
      <point x="591" y="1056"/>
      <point x="562" y="1101"/>
      <point x="490" y="1101" type="curve" smooth="yes"/>
      <point x="418" y="1101"/>
      <point x="372" y="1056"/>
      <point x="362" y="997" type="curve" smooth="yes"/>
      <point x="351" y="937"/>
      <point x="381" y="890"/>
    </contour>
  </outline>
</glyph>
<glyph name="multiply" format="2">
  <advance width="1092"/>
  <unicode hex="00D7"/>
  <note>
uni00D7
</note>
  <outline>
    <contour>
      <point x="54" y="206" type="line"/>
      <point x="444" y="543" type="line"/>
      <point x="716" y="206" type="line"/>
      <point x="856" y="329" type="line"/>
      <point x="585" y="665" type="line"/>
      <point x="973" y="1000" type="line"/>
      <point x="875" y="1123" type="line"/>
      <point x="487" y="788" type="line"/>
      <point x="217" y="1123" type="line"/>
      <point x="77" y="1000" type="line"/>
      <point x="345" y="665" type="line"/>
      <point x="-44" y="329" type="line"/>
    </contour>
  </outline>
</glyph>
<glyph name="ae" format="2">
  <advance width="1729"/>
  <unicode hex="00E6"/>
  <note>
uni00E6
</note>
  <outline>
    <contour>
      <point x="239" y="-20" type="curve" smooth="yes"/>
      <point x="427" y="-20"/>
      <point x="596" y="45"/>
      <point x="702" y="160" type="curve"/>
      <point x="772" y="40"/>
      <point x="894" y="-20"/>
      <point x="1068" y="-20" type="curve" smooth="yes"/>
      <point x="1216" y="-20"/>
      <point x="1349" y="20"/>
      <point x="1469" y="101" type="curve"/>
      <point x="1429" y="237" type="line"/>
      <point x="1287" y="155"/>
      <point x="1193" y="130"/>
      <point x="1094" y="130" type="curve" smooth="yes"/>
      <point x="915" y="130"/>
      <point x="806" y="236"/>
      <point x="823" y="430" type="curve" smooth="yes"/>
      <point x="829" y="497" type="line"/>
      <point x="1557" y="497" type="line"/>
      <point x="1577" y="612" type="line" smooth="yes"/>
      <point x="1632" y="923"/>
      <point x="1502" y="1102"/>
      <point x="1222" y="1102" type="curve" smooth="yes"/>
      <point x="1082" y="1102"/>
      <point x="953" y="1041"/>
      <point x="850" y="936" type="curve"/>
      <point x="803" y="1047"/>
      <point x="692" y="1102"/>
      <point x="539" y="1102" type="curve" smooth="yes"/>
      <point x="289" y="1102"/>
      <point x="86" y="969"/>
      <point x="52" y="778" type="curve"/>
      <point x="233" y="759" type="line"/>
      <point x="252" y="867"/>
      <point x="372" y="950"/>
      <point x="512" y="950" type="curve" smooth="yes"/>
      <point x="650" y="950"/>
      <point x="710" y="863"/>
      <point x="670" y="635" type="curve"/>
      <point x="447" y="635" type="line" smooth="yes"/>
      <point x="153" y="635"/>
      <point x="-22" y="513"/>
      <point x="-59" y="304" type="curve" smooth="yes"/>
      <point x="-95" y="103"/>
      <point x="16" y="-20"/>
    </contour>
    <contour>
      <point x="301" y="130" type="curve" smooth="yes"/>
      <point x="169" y="130"/>
      <point x="108" y="197"/>
      <point x="126" y="300" type="curve" smooth="yes"/>
      <point x="146" y="411"/>
      <point x="261" y="492"/>
      <point x="417" y="495" type="curve" smooth="yes"/>
      <point x="645" y="495" type="line"/>
      <point x="604" y="258" type="line"/>
      <point x="524" y="186"/>
      <point x="397" y="130"/>
    </contour>
    <contour>
      <point x="859" y="640" type="line"/>
      <point x="914" y="825"/>
      <point x="1041" y="950"/>
      <point x="1195" y="950" type="curve" smooth="yes"/>
      <point x="1359" y="950"/>
      <point x="1434" y="847"/>
      <point x="1403" y="671" type="curve" smooth="yes"/>
      <point x="1397" y="640" type="line"/>
    </contour>
  </outline>
</glyph>
<glyph name="idotless" format="2">
  <advance width="506"/>
  <unicode hex="0131"/>
  <note>
uni0131
</note>
  <outline>
    <contour>
      <point x="-36" y="0" type="line"/>
      <point x="150" y="0" type="line"/>
      <point x="341" y="1082" type="line"/>
      <point x="155" y="1082" type="line"/>
    </contour>
  </outline>
</glyph>
<glyph name="oe" format="2">
  <advance width="1860"/>
  <unicode hex="0153"/>
  <note>
uni0153
</note>
  <outline>
    <contour>
      <point x="387" y="-20" type="curve" smooth="yes"/>
      <point x="565" y="-20"/>
      <point x="713" y="60"/>
      <point x="819" y="192" type="curve"/>
      <point x="880" y="59"/>
      <point x="1005" y="-20"/>
      <point x="1185" y="-20" type="curve" smooth="yes"/>
      <point x="1348" y="-20"/>
      <point x="1483" y="24"/>
      <point x="1590" y="112" type="curve"/>
      <point x="1538" y="238" type="line"/>
      <point x="1445" y="166"/>
      <point x="1336" y="130"/>
      <point x="1211" y="130" type="curve" smooth="yes"/>
      <point x="1032" y="130"/>
      <point x="940" y="270"/>
      <point x="971" y="497" type="curve"/>
      <point x="1689" y="497" type="line"/>
      <point x="1709" y="613" type="line" smooth="yes"/>
      <point x="1765" y="926"/>
      <point x="1631" y="1102"/>
      <point x="1355" y="1102" type="curve" smooth="yes"/>
      <point x="1205" y="1102"/>
      <point x="1054" y="1021"/>
      <point x="943" y="885" type="curve"/>
      <point x="885" y="1018"/>
      <point x="765" y="1102"/>
      <point x="583" y="1102" type="curve" smooth="yes"/>
      <point x="393" y="1102"/>
      <point x="225" y="1007"/>
      <point x="114" y="838" type="curve" smooth="yes"/>
      <point x="59" y="753"/>
      <point x="22" y="658"/>
      <point x="3" y="551" type="curve" smooth="yes"/>
      <point x="1" y="538" type="line" smooth="yes"/>
      <point x="-59" y="199"/>
      <point x="93" y="-20"/>
    </contour>
    <contour>
      <point x="413" y="130" type="curve" smooth="yes"/>
      <point x="228" y="130"/>
      <point x="141" y="285"/>
      <point x="184" y="529" type="curve" smooth="yes"/>
      <point x="233" y="805"/>
      <point x="376" y="950"/>
      <point x="556" y="950" type="curve" smooth="yes"/>
      <point x="740" y="950"/>
      <point x="827" y="794"/>
      <point x="784" y="551" type="curve" smooth="yes"/>
      <point x="736" y="276"/>
      <point x="596" y="130"/>
    </contour>
    <contour>
      <point x="1004" y="649" type="line"/>
      <point x="1065" y="833"/>
      <point x="1196" y="950"/>
      <point x="1328" y="950" type="curve" smooth="yes"/>
      <point x="1485" y="950"/>
      <point x="1564" y="842"/>
      <point x="1534" y="675" type="curve" smooth="yes"/>
      <point x="1530" y="649" type="line"/>
    </contour>
  </outline>
</glyph>
<glyph name="breve" format="2">
  <advance width="874"/>
  <unicode hex="02D8"/>
  <note>
uni02D8
</note>
  <outline>
    <contour>
      <point x="455" y="1227" type="curve" smooth="yes"/>
      <point x="633" y="1227"/>
      <point x="772" y="1334"/>
      <point x="801" y="1495" type="curve"/>
      <point x="651" y="1495" type="line"/>
      <point x="634" y="1400"/>
      <point x="569" y="1346"/>
      <point x="476" y="1346" type="curve" smooth="yes"/>
      <point x="378" y="1346"/>
      <point x="336" y="1402"/>
      <point x="353" y="1495" type="curve"/>
      <point x="202" y="1495" type="line"/>
      <point x="174" y="1335"/>
      <point x="276" y="1227"/>
    </contour>
  </outline>
</glyph>
<glyph name="ogonek" format="2">
  <advance width="554"/>
  <unicode hex="02DB"/>
  <note>
uni02DB
</note>
  <outline>
    <contour>
      <point x="-25" y="-433" type="curve" smooth="yes"/>
      <point x="35" y="-433"/>
      <point x="91" y="-418"/>
      <point x="143" y="-389" type="curve"/>
      <point x="151" y="-268" type="line"/>
      <point x="113" y="-285"/>
      <point x="78" y="-294"/>
      <point x="46" y="-294" type="curve" smooth="yes"/>
      <point x="-6" y="-294"/>
      <point x="-27" y="-270"/>
      <point x="-19" y="-222" type="curve" smooth="yes"/>
      <point x="-9" y="-165"/>
      <point x="39" y="-106"/>
      <point x="191" y="0" type="curve"/>
      <point x="126" y="56" type="line"/>
      <point x="-51" y="-19"/>
      <point x="-163" y="-124"/>
      <point x="-184" y="-243" type="curve" smooth="yes"/>
      <point x="-204" y="-358"/>
      <point x="-144" y="-433"/>
    </contour>
  </outline>
</glyph>
<glyph name="hu-ethiopic" format="2">
  <advance width="1249"/>
  <unicode hex="1201"/>
  <outline>
    <contour>
      <point x="446" y="-20" type="curve" smooth="yes"/>
      <point x="675" y="-20"/>
      <point x="877" y="109"/>
      <point x="922" y="367" type="curve" smooth="yes"/>
      <point x="1048" y="1082" type="line"/>
      <point x="863" y="1082" type="line"/>
      <point x="737" y="366" type="line" smooth="yes"/>
      <point x="710" y="210"/>
      <point x="627" y="137"/>
      <point x="479" y="137" type="curve" smooth="yes"/>
      <point x="317" y="137"/>
      <point x="230" y="220"/>
      <point x="256" y="366" type="curve" smooth="yes"/>
      <point x="382" y="1082" type="line"/>
      <point x="197" y="1082" type="line"/>
      <point x="65" y="334" type="line" smooth="yes"/>
      <point x="28" y="125"/>
      <point x="182" y="-20"/>
    </contour>
    <contour>
      <point x="1045" y="536" type="curve" smooth="yes"/>
      <point x="1112" y="536"/>
      <point x="1178" y="591"/>
      <point x="1190" y="659" type="curve" smooth="yes"/>
      <point x="1202" y="726"/>
      <point x="1155" y="783"/>
      <point x="1088" y="783" type="curve" smooth="yes"/>
      <point x="1020" y="783"/>
      <point x="955" y="726"/>
      <point x="943" y="659" type="curve" smooth="yes"/>
      <point x="931" y="591"/>
      <point x="977" y="536"/>
    </contour>
  </outline>
</glyph>
<glyph name="hi-ethiopic" format="2">
  <advance width="1249"/>
  <unicode hex="1202"/>
  <outline>
    <contour>
      <point x="446" y="-20" type="curve" smooth="yes"/>
      <point x="675" y="-20"/>
      <point x="877" y="109"/>
      <point x="922" y="367" type="curve" smooth="yes"/>
      <point x="1048" y="1082" type="line"/>
      <point x="863" y="1082" type="line"/>
      <point x="737" y="366" type="line" smooth="yes"/>
      <point x="710" y="210"/>
      <point x="627" y="137"/>
      <point x="479" y="137" type="curve" smooth="yes"/>
      <point x="317" y="137"/>
      <point x="230" y="220"/>
      <point x="256" y="366" type="curve" smooth="yes"/>
      <point x="382" y="1082" type="line"/>
      <point x="197" y="1082" type="line"/>
      <point x="65" y="334" type="line" smooth="yes"/>
      <point x="28" y="125"/>
      <point x="182" y="-20"/>
    </contour>
    <contour>
      <point x="914" y="-384" type="curve" smooth="yes"/>
      <point x="981" y="-384"/>
      <point x="1048" y="-329"/>
      <point x="1059" y="-261" type="curve" smooth="yes"/>
      <point x="1071" y="-194"/>
      <point x="1024" y="-137"/>
      <point x="957" y="-137" type="curve" smooth="yes"/>
      <point x="889" y="-137"/>
      <point x="824" y="-194"/>
      <point x="812" y="-261" type="curve" smooth="yes"/>
      <point x="801" y="-329"/>
      <point x="846" y="-384"/>
    </contour>
    <contour>
      <point x="601" y="-365" type="line" name="❌"/>
      <point x="786" y="-365" type="line" name="❌"/>
      <point x="849" y="-10" type="line"/>
      <point x="664" y="-10" type="line"/>
    </contour>
  </outline>
</glyph>
<glyph name="hee-ethiopic" format="2">
  <advance width="1249"/>
  <unicode hex="1204"/>
  <outline>
    <contour>
      <point x="446" y="-20" type="curve" smooth="yes"/>
      <point x="675" y="-20"/>
      <point x="877" y="109"/>
      <point x="922" y="367" type="curve" smooth="yes"/>
      <point x="1048" y="1082" type="line"/>
      <point x="863" y="1082" type="line"/>
      <point x="737" y="366" type="line" smooth="yes"/>
      <point x="710" y="210"/>
      <point x="627" y="137"/>
      <point x="479" y="137" type="curve" smooth="yes"/>
      <point x="317" y="137"/>
      <point x="230" y="220"/>
      <point x="256" y="366" type="curve" smooth="yes"/>
      <point x="382" y="1082" type="line"/>
      <point x="197" y="1082" type="line"/>
      <point x="65" y="334" type="line" smooth="yes"/>
      <point x="28" y="125"/>
      <point x="182" y="-20"/>
    </contour>
    <contour>
      <point x="562" y="-495" type="curve" smooth="yes"/>
      <point x="727" y="-495"/>
      <point x="869" y="-376"/>
      <point x="896" y="-219" type="curve" smooth="yes"/>
      <point x="925" y="-59"/>
      <point x="822" y="63"/>
      <point x="660" y="63" type="curve" smooth="yes"/>
      <point x="493" y="63"/>
      <point x="345" y="-62"/>
      <point x="317" y="-219" type="curve" smooth="yes"/>
      <point x="290" y="-374"/>
      <point x="391" y="-495"/>
    </contour>
    <contour>
      <point x="612" y="-465" type="curve" smooth="yes"/>
      <point x="514" y="-465"/>
      <point x="424" y="-401"/>
      <point x="447" y="-274" type="curve" smooth="yes"/>
      <point x="465" y="-168"/>
      <point x="570" y="-73"/>
      <point x="686" y="-73" type="curve" smooth="yes"/>
      <point x="796" y="-73"/>
      <point x="859" y="-161"/>
      <point x="845" y="-274" type="curve" smooth="yes"/>
      <point x="832" y="-380"/>
      <point x="713" y="-464"/>
    </contour>
  </outline>
</glyph>
<glyph name="ho-ethiopic" format="2">
  <advance width="1249"/>
  <unicode hex="1206"/>
  <outline>
    <contour>
      <point x="446" y="-20" type="curve" smooth="yes"/>
      <point x="675" y="-20"/>
      <point x="877" y="109"/>
      <point x="922" y="367" type="curve" smooth="yes"/>
      <point x="1048" y="1082" type="line"/>
      <point x="863" y="1082" type="line"/>
      <point x="737" y="366" type="line" smooth="yes"/>
      <point x="710" y="210"/>
      <point x="627" y="137"/>
      <point x="479" y="137" type="curve" smooth="yes"/>
      <point x="317" y="137"/>
      <point x="230" y="220"/>
      <point x="256" y="366" type="curve" smooth="yes"/>
      <point x="382" y="1082" type="line"/>
      <point x="197" y="1082" type="line"/>
      <point x="65" y="334" type="line" smooth="yes"/>
      <point x="28" y="125"/>
      <point x="182" y="-20"/>
    </contour>
    <contour>
      <point x="778" y="911" type="curve" smooth="yes"/>
      <point x="945" y="911"/>
      <point x="1071" y="1036"/>
      <point x="1071" y="1193" type="curve" smooth="yes"/>
      <point x="1071" y="1348"/>
      <point x="949" y="1469"/>
      <point x="778" y="1469" type="curve" smooth="yes"/>
      <point x="613" y="1469"/>
      <point x="492" y="1350"/>
      <point x="492" y="1193" type="curve" smooth="yes"/>
      <point x="492" y="1033"/>
      <point x="616" y="911"/>
    </contour>
    <contour>
      <point x="728" y="1047" type="curve" smooth="yes"/>
      <point x="618" y="1047"/>
      <point x="534" y="1136"/>
      <point x="534" y="1248" type="curve" smooth="yes"/>
      <point x="534" y="1374"/>
      <point x="632" y="1438"/>
      <point x="733" y="1439" type="curve" smooth="yes"/>
      <point x="831" y="1439"/>
      <point x="932" y="1375"/>
      <point x="932" y="1248" type="curve" smooth="yes"/>
      <point x="932" y="1142"/>
      <point x="844" y="1047"/>
    </contour>
  </outline>
</glyph>
<glyph name="la-ethiopic" format="2">
  <advance width="1248"/>
  <unicode hex="1208"/>
  <outline>
    <contour>
      <point x="9" y="0" type="line"/>
      <point x="194" y="0" type="line"/>
      <point x="330" y="771" type="line"/>
      <point x="400" y="875"/>
      <point x="505" y="945"/>
      <point x="625" y="945" type="curve" smooth="yes"/>
      <point x="773" y="945"/>
      <point x="828" y="872"/>
      <point x="801" y="716" type="curve" smooth="yes"/>
      <point x="675" y="0" type="line"/>
      <point x="860" y="0" type="line"/>
      <point x="986" y="715" type="line" smooth="yes"/>
      <point x="1031" y="973"/>
      <point x="937" y="1102"/>
      <point x="709" y="1102" type="curve" smooth="yes"/>
      <point x="577" y="1102"/>
      <point x="462" y="1052"/>
      <point x="362" y="951" type="curve"/>
      <point x="465" y="1536" type="line"/>
      <point x="280" y="1536" type="line"/>
    </contour>
  </outline>
</glyph>
<glyph name="lu-ethiopic" format="2">
  <advance width="1248"/>
  <unicode hex="1209"/>
  <outline>
    <contour>
      <point x="9" y="0" type="line"/>
      <point x="194" y="0" type="line"/>
      <point x="330" y="771" type="line"/>
      <point x="400" y="875"/>
      <point x="505" y="945"/>
      <point x="625" y="945" type="curve" smooth="yes"/>
      <point x="773" y="945"/>
      <point x="828" y="872"/>
      <point x="801" y="716" type="curve" smooth="yes"/>
      <point x="675" y="0" type="line"/>
      <point x="860" y="0" type="line"/>
      <point x="986" y="715" type="line" smooth="yes"/>
      <point x="1031" y="973"/>
      <point x="937" y="1102"/>
      <point x="709" y="1102" type="curve" smooth="yes"/>
      <point x="577" y="1102"/>
      <point x="462" y="1052"/>
      <point x="362" y="951" type="curve"/>
      <point x="465" y="1536" type="line"/>
      <point x="280" y="1536" type="line"/>
    </contour>
    <contour>
      <point x="1082" y="513" type="curve" smooth="yes"/>
      <point x="1149" y="513"/>
      <point x="1215" y="568"/>
      <point x="1227" y="636" type="curve" smooth="yes"/>
      <point x="1239" y="703"/>
      <point x="1192" y="760"/>
      <point x="1125" y="760" type="curve" smooth="yes"/>
      <point x="1057" y="760"/>
      <point x="992" y="703"/>
      <point x="980" y="636" type="curve" smooth="yes"/>
      <point x="968" y="568"/>
      <point x="1014" y="513"/>
    </contour>
  </outline>
</glyph>
<glyph name="lee-ethiopic" format="2">
  <advance width="1248"/>
  <unicode hex="120C"/>
  <outline>
    <contour>
      <point x="9" y="0" type="line"/>
      <point x="194" y="0" type="line"/>
      <point x="330" y="771" type="line"/>
      <point x="400" y="875"/>
      <point x="505" y="945"/>
      <point x="625" y="945" type="curve" smooth="yes"/>
      <point x="773" y="945"/>
      <point x="828" y="872"/>
      <point x="801" y="716" type="curve" smooth="yes"/>
      <point x="675" y="0" type="line"/>
      <point x="860" y="0" type="line"/>
      <point x="986" y="715" type="line" smooth="yes"/>
      <point x="1031" y="973"/>
      <point x="937" y="1102"/>
      <point x="709" y="1102" type="curve" smooth="yes"/>
      <point x="577" y="1102"/>
      <point x="462" y="1052"/>
      <point x="362" y="951" type="curve"/>
      <point x="465" y="1536" type="line"/>
      <point x="280" y="1536" type="line"/>
    </contour>
    <contour>
      <point x="599" y="-450" type="curve" smooth="yes"/>
      <point x="764" y="-450"/>
      <point x="906" y="-331"/>
      <point x="933" y="-174" type="curve" smooth="yes"/>
      <point x="962" y="-14"/>
      <point x="859" y="108"/>
      <point x="697" y="108" type="curve" smooth="yes"/>
      <point x="530" y="108"/>
      <point x="382" y="-17"/>
      <point x="354" y="-174" type="curve" smooth="yes"/>
      <point x="327" y="-329"/>
      <point x="428" y="-450"/>
    </contour>
    <contour>
      <point x="649" y="-420" type="curve" smooth="yes"/>
      <point x="551" y="-420"/>
      <point x="461" y="-356"/>
      <point x="484" y="-229" type="curve" smooth="yes"/>
      <point x="502" y="-123"/>
      <point x="607" y="-28"/>
      <point x="723" y="-28" type="curve" smooth="yes"/>
      <point x="833" y="-28"/>
      <point x="896" y="-116"/>
      <point x="882" y="-229" type="curve" smooth="yes"/>
      <point x="869" y="-335"/>
      <point x="750" y="-419"/>
    </contour>
  </outline>
</glyph>
<glyph name="le-ethiopic" format="2">
  <advance width="1248"/>
  <unicode hex="120D"/>
  <outline>
    <contour>
      <point x="9" y="0" type="line"/>
      <point x="194" y="0" type="line"/>
      <point x="330" y="771" type="line"/>
      <point x="400" y="875"/>
      <point x="505" y="945"/>
      <point x="625" y="945" type="curve" smooth="yes"/>
      <point x="773" y="945"/>
      <point x="828" y="872"/>
      <point x="801" y="716" type="curve" smooth="yes"/>
      <point x="675" y="0" type="line"/>
      <point x="860" y="0" type="line"/>
      <point x="986" y="715" type="line" smooth="yes"/>
      <point x="1031" y="973"/>
      <point x="937" y="1102"/>
      <point x="709" y="1102" type="curve" smooth="yes"/>
      <point x="577" y="1102"/>
      <point x="462" y="1052"/>
      <point x="362" y="951" type="curve"/>
      <point x="465" y="1536" type="line"/>
      <point x="280" y="1536" type="line"/>
    </contour>
    <contour>
      <point x="128" y="-333" type="curve" smooth="yes"/>
      <point x="281" y="-362"/>
      <point x="456" y="-265"/>
      <point x="537" y="-111" type="curve" smooth="yes"/>
      <point x="619" y="45"/>
      <point x="569" y="187"/>
      <point x="418" y="216" type="curve" smooth="yes"/>
      <point x="265" y="245"/>
      <point x="84" y="144"/>
      <point x="2" y="-12" type="curve" smooth="yes"/>
      <point x="-78" y="-163"/>
      <point x="-29" y="-304"/>
    </contour>
    <contour>
      <point x="191" y="-302" type="curve" smooth="yes"/>
      <point x="106" y="-284"/>
      <point x="51" y="-208"/>
      <point x="112" y="-91" type="curve" smooth="yes"/>
      <point x="165" y="7"/>
      <point x="288" y="81"/>
      <point x="389" y="63" type="curve" smooth="yes"/>
      <point x="484" y="44"/>
      <point x="513" y="-52"/>
      <point x="457" y="-156" type="curve" smooth="yes"/>
      <point x="396" y="-273"/>
      <point x="279" y="-317"/>
    </contour>
  </outline>
</glyph>
<glyph name="lo-ethiopic" format="2">
  <advance width="1248"/>
  <unicode hex="120E"/>
  <outline>
    <contour>
      <point x="9" y="0" type="line"/>
      <point x="194" y="0" type="line"/>
      <point x="330" y="771" type="line"/>
      <point x="400" y="875"/>
      <point x="505" y="945"/>
      <point x="625" y="945" type="curve" smooth="yes"/>
      <point x="773" y="945"/>
      <point x="828" y="872"/>
      <point x="801" y="716" type="curve" smooth="yes"/>
      <point x="675" y="0" type="line"/>
      <point x="860" y="0" type="line"/>
      <point x="986" y="715" type="line" smooth="yes"/>
      <point x="1031" y="973"/>
      <point x="937" y="1102"/>
      <point x="709" y="1102" type="curve" smooth="yes"/>
      <point x="577" y="1102"/>
      <point x="462" y="1052"/>
      <point x="362" y="951" type="curve"/>
      <point x="465" y="1536" type="line"/>
      <point x="280" y="1536" type="line"/>
    </contour>
    <contour>
      <point x="898" y="281" type="curve" smooth="yes"/>
      <point x="1065" y="281"/>
      <point x="1191" y="406"/>
      <point x="1191" y="563" type="curve" smooth="yes"/>
      <point x="1191" y="718"/>
      <point x="1069" y="839"/>
      <point x="898" y="839" type="curve" smooth="yes"/>
      <point x="733" y="839"/>
      <point x="612" y="720"/>
      <point x="612" y="563" type="curve" smooth="yes"/>
      <point x="612" y="403"/>
      <point x="736" y="281"/>
    </contour>
    <contour>
      <point x="848" y="417" type="curve" smooth="yes"/>
      <point x="738" y="417"/>
      <point x="654" y="506"/>
      <point x="654" y="618" type="curve" smooth="yes"/>
      <point x="654" y="744"/>
      <point x="752" y="808"/>
      <point x="853" y="809" type="curve" smooth="yes"/>
      <point x="951" y="809"/>
      <point x="1052" y="745"/>
      <point x="1052" y="618" type="curve" smooth="yes"/>
      <point x="1052" y="512"/>
      <point x="964" y="417"/>
    </contour>
  </outline>
</glyph>
<glyph name="lwa-ethiopic" format="2">
  <advance width="1248"/>
  <unicode hex="120F"/>
  <outline>
    <contour>
      <point x="9" y="0" type="line"/>
      <point x="194" y="0" type="line"/>
      <point x="330" y="771" type="line"/>
      <point x="400" y="875"/>
      <point x="505" y="945"/>
      <point x="625" y="945" type="curve" smooth="yes"/>
      <point x="773" y="945"/>
      <point x="828" y="872"/>
      <point x="801" y="716" type="curve" smooth="yes"/>
      <point x="675" y="0" type="line"/>
      <point x="860" y="0" type="line"/>
      <point x="986" y="715" type="line" smooth="yes"/>
      <point x="1031" y="973"/>
      <point x="937" y="1102"/>
      <point x="709" y="1102" type="curve" smooth="yes"/>
      <point x="577" y="1102"/>
      <point x="462" y="1052"/>
      <point x="362" y="951" type="curve"/>
      <point x="465" y="1536" type="line"/>
      <point x="280" y="1536" type="line"/>
    </contour>
    <contour>
      <point x="319" y="-381" type="line"/>
      <point x="809" y="-372" type="line"/>
      <point x="790" y="-489" type="line"/>
      <point x="930" y="-487" type="line"/>
      <point x="959" y="-248" type="line"/>
      <point x="800" y="-251" type="line"/>
      <point x="849" y="-47" type="line"/>
      <point x="664" y="-51" type="line"/>
      <point x="615" y="-254" type="line"/>
      <point x="329" y="-259" type="line"/>
    </contour>
  </outline>
</glyph>
<glyph name="hho-ethiopic" format="2">
  <advance width="1895"/>
  <unicode hex="1216"/>
  <outline>
    <contour>
      <point x="8" y="0" type="line"/>
      <point x="193" y="0" type="line"/>
      <point x="318" y="709" type="line" smooth="yes"/>
      <point x="350" y="893"/>
      <point x="472" y="945"/>
      <point x="589" y="945" type="curve" smooth="yes"/>
      <point x="743" y="945"/>
      <point x="806" y="866"/>
      <point x="778" y="709" type="curve" smooth="yes"/>
      <point x="653" y="0" type="line"/>
      <point x="839" y="0" type="line"/>
      <point x="966" y="718" type="line" smooth="yes"/>
      <point x="991" y="858"/>
      <point x="1119" y="945"/>
      <point x="1256" y="945" type="curve" smooth="yes"/>
      <point x="1423" y="945"/>
      <point x="1473" y="869"/>
      <point x="1446" y="714" type="curve" smooth="yes"/>
      <point x="1320" y="0" type="line"/>
      <point x="1505" y="0" type="line"/>
      <point x="1633" y="725" type="line" smooth="yes"/>
      <point x="1677" y="976"/>
      <point x="1575" y="1102"/>
      <point x="1338" y="1102" type="curve" smooth="yes"/>
      <point x="1181" y="1102"/>
      <point x="1015" y="1010"/>
      <point x="918" y="927" type="curve"/>
      <point x="854" y="1010"/>
      <point x="810" y="1101"/>
      <point x="594" y="1102" type="curve" smooth="yes"/>
      <point x="417" y="1103"/>
      <point x="179" y="968"/>
      <point x="133" y="709" type="curve" smooth="yes"/>
    </contour>
    <contour>
      <point x="856" y="1106" type="line"/>
      <point x="1025" y="1106" type="line"/>
      <point x="1089" y="1470" type="line"/>
      <point x="920" y="1470" type="line"/>
    </contour>
    <contour>
      <point x="-55" y="-367" type="line"/>
      <point x="130" y="-367" type="line"/>
      <point x="193" y="-13" type="line"/>
      <point x="8" y="-13" type="line"/>
    </contour>
  </outline>
</glyph>
<glyph name="mee-ethiopic" format="2">
  <advance width="1918"/>
  <unicode hex="121C"/>
  <outline>
    <contour>
      <point x="163" y="0" type="curve" smooth="yes"/>
      <point x="431" y="0" type="line" smooth="yes"/>
      <point x="634" y="0"/>
      <point x="671" y="133"/>
      <point x="690" y="240" type="curve" smooth="yes"/>
      <point x="785" y="784" type="line" smooth="yes"/>
      <point x="800" y="872"/>
      <point x="1012" y="888"/>
      <point x="995" y="789" type="curve" smooth="yes"/>
      <point x="897" y="234" type="line" smooth="yes"/>
      <point x="878" y="128"/>
      <point x="887" y="0"/>
      <point x="1099" y="0" type="curve" smooth="yes"/>
      <point x="1358" y="0" type="line" smooth="yes"/>
      <point x="1446" y="0"/>
      <point x="1539" y="68"/>
      <point x="1557" y="169" type="curve" smooth="yes"/>
      <point x="1655" y="725" type="line" smooth="yes"/>
      <point x="1699" y="976"/>
      <point x="1642" y="1102"/>
      <point x="1400" y="1102" type="curve" smooth="yes"/>
      <point x="1203" y="1102"/>
      <point x="1108" y="1075"/>
      <point x="1021" y="979" type="curve"/>
      <point x="818" y="976" type="line"/>
      <point x="768" y="1067"/>
      <point x="710" y="1100"/>
      <point x="577" y="1102" type="curve" smooth="yes"/>
      <point x="239" y="1107"/>
      <point x="180" y="967"/>
      <point x="150" y="800" type="curve" smooth="yes"/>
      <point x="38" y="166" type="line" smooth="yes"/>
      <point x="15" y="33"/>
      <point x="90" y="0"/>
    </contour>
    <contour>
      <point x="220" y="141" type="line"/>
      <point x="322" y="718" type="line" smooth="yes"/>
      <point x="355" y="902"/>
      <point x="363" y="946"/>
      <point x="541" y="946" type="curve" smooth="yes"/>
      <point x="651" y="946"/>
      <point x="666" y="875"/>
      <point x="638" y="718" type="curve" smooth="yes"/>
      <point x="569" y="329" type="line" smooth="yes"/>
      <point x="542" y="177"/>
      <point x="526" y="141"/>
      <point x="331" y="141" type="curve" smooth="yes"/>
    </contour>
    <contour>
      <point x="1370" y="141" type="line"/>
      <point x="1252" y="141" type="line" smooth="yes"/>
      <point x="1058" y="141"/>
      <point x="1049" y="192"/>
      <point x="1079" y="361" type="curve" smooth="yes"/>
      <point x="1142" y="718" type="line" smooth="yes"/>
      <point x="1175" y="904"/>
      <point x="1202" y="946"/>
      <point x="1328" y="946" type="curve" smooth="yes"/>
      <point x="1495" y="946"/>
      <point x="1500" y="879"/>
      <point x="1472" y="718" type="curve" smooth="yes"/>
    </contour>
    <contour>
      <point x="1151" y="-495" type="curve" smooth="yes"/>
      <point x="1316" y="-495"/>
      <point x="1458" y="-376"/>
      <point x="1485" y="-219" type="curve" smooth="yes"/>
      <point x="1514" y="-59"/>
      <point x="1411" y="63"/>
      <point x="1249" y="63" type="curve" smooth="yes"/>
      <point x="1082" y="63"/>
      <point x="934" y="-62"/>
      <point x="906" y="-219" type="curve" smooth="yes"/>
      <point x="879" y="-374"/>
      <point x="980" y="-495"/>
    </contour>
    <contour>
      <point x="1201" y="-465" type="curve" smooth="yes"/>
      <point x="1103" y="-465"/>
      <point x="1013" y="-401"/>
      <point x="1036" y="-274" type="curve" smooth="yes"/>
      <point x="1054" y="-168"/>
      <point x="1159" y="-73"/>
      <point x="1275" y="-73" type="curve" smooth="yes"/>
      <point x="1385" y="-73"/>
      <point x="1448" y="-161"/>
      <point x="1434" y="-274" type="curve" smooth="yes"/>
      <point x="1421" y="-380"/>
      <point x="1302" y="-464"/>
    </contour>
  </outline>
</glyph>
<glyph name="szu-ethiopic" format="2">
  <advance width="1895"/>
  <unicode hex="1221"/>
  <outline>
    <contour>
      <point x="365" y="-20" type="curve" smooth="yes"/>
      <point x="522" y="-20"/>
      <point x="650" y="50"/>
      <point x="740" y="154" type="curve"/>
      <point x="815" y="38"/>
      <point x="872" y="-25"/>
      <point x="1109" y="-20" type="curve" smooth="yes"/>
      <point x="1286" y="-16"/>
      <point x="1527" y="114"/>
      <point x="1569" y="373" type="curve" smooth="yes"/>
      <point x="1684" y="1082" type="line"/>
      <point x="1499" y="1082" type="line"/>
      <point x="1384" y="373" type="line" smooth="yes"/>
      <point x="1354" y="189"/>
      <point x="1230" y="137"/>
      <point x="1113" y="137" type="curve" smooth="yes"/>
      <point x="959" y="137"/>
      <point x="896" y="216"/>
      <point x="924" y="373" type="curve" smooth="yes"/>
      <point x="1049" y="1082" type="line"/>
      <point x="863" y="1082" type="line"/>
      <point x="736" y="364" type="line" smooth="yes"/>
      <point x="711" y="224"/>
      <point x="583" y="137"/>
      <point x="446" y="137" type="curve" smooth="yes"/>
      <point x="279" y="137"/>
      <point x="229" y="213"/>
      <point x="256" y="368" type="curve" smooth="yes"/>
      <point x="382" y="1082" type="line"/>
      <point x="197" y="1082" type="line"/>
      <point x="69" y="357" type="line" smooth="yes"/>
      <point x="25" y="106"/>
      <point x="128" y="-20"/>
    </contour>
    <contour>
      <point x="1721" y="547" type="curve" smooth="yes"/>
      <point x="1788" y="547"/>
      <point x="1854" y="602"/>
      <point x="1866" y="670" type="curve" smooth="yes"/>
      <point x="1878" y="737"/>
      <point x="1831" y="794"/>
      <point x="1764" y="794" type="curve" smooth="yes"/>
      <point x="1696" y="794"/>
      <point x="1631" y="737"/>
      <point x="1619" y="670" type="curve" smooth="yes"/>
      <point x="1607" y="602"/>
      <point x="1653" y="547"/>
    </contour>
  </outline>
</glyph>
<glyph name="szi-ethiopic" format="2">
  <advance width="1895"/>
  <unicode hex="1222"/>
  <outline>
    <contour>
      <point x="365" y="-20" type="curve" smooth="yes"/>
      <point x="522" y="-20"/>
      <point x="650" y="50"/>
      <point x="740" y="154" type="curve"/>
      <point x="815" y="38"/>
      <point x="872" y="-25"/>
      <point x="1109" y="-20" type="curve" smooth="yes"/>
      <point x="1286" y="-16"/>
      <point x="1527" y="114"/>
      <point x="1569" y="373" type="curve" smooth="yes"/>
      <point x="1684" y="1082" type="line"/>
      <point x="1499" y="1082" type="line"/>
      <point x="1384" y="373" type="line" smooth="yes"/>
      <point x="1354" y="189"/>
      <point x="1230" y="137"/>
      <point x="1113" y="137" type="curve" smooth="yes"/>
      <point x="959" y="137"/>
      <point x="896" y="216"/>
      <point x="924" y="373" type="curve" smooth="yes"/>
      <point x="1049" y="1082" type="line"/>
      <point x="863" y="1082" type="line"/>
      <point x="736" y="364" type="line" smooth="yes"/>
      <point x="711" y="224"/>
      <point x="583" y="137"/>
      <point x="446" y="137" type="curve" smooth="yes"/>
      <point x="279" y="137"/>
      <point x="229" y="213"/>
      <point x="256" y="368" type="curve" smooth="yes"/>
      <point x="382" y="1082" type="line"/>
      <point x="197" y="1082" type="line"/>
      <point x="69" y="357" type="line" smooth="yes"/>
      <point x="25" y="106"/>
      <point x="128" y="-20"/>
    </contour>
    <contour>
      <point x="1303" y="-374" type="curve" smooth="yes"/>
      <point x="1370" y="-374"/>
      <point x="1437" y="-319"/>
      <point x="1448" y="-251" type="curve" smooth="yes"/>
      <point x="1460" y="-184"/>
      <point x="1413" y="-127"/>
      <point x="1346" y="-127" type="curve" smooth="yes"/>
      <point x="1278" y="-127"/>
      <point x="1213" y="-184"/>
      <point x="1201" y="-251" type="curve" smooth="yes"/>
      <point x="1190" y="-319"/>
      <point x="1235" y="-374"/>
    </contour>
    <contour>
      <point x="1012" y="-395" type="line" name="❌"/>
      <point x="1197" y="-395" type="line" name="❌"/>
      <point x="1260" y="-40" type="line"/>
      <point x="1075" y="-40" type="line"/>
    </contour>
  </outline>
</glyph>
<glyph name="szee-ethiopic" format="2">
  <advance width="1895"/>
  <unicode hex="1224"/>
  <outline>
    <contour>
      <point x="365" y="-20" type="curve" smooth="yes"/>
      <point x="522" y="-20"/>
      <point x="650" y="50"/>
      <point x="740" y="154" type="curve"/>
      <point x="815" y="38"/>
      <point x="872" y="-25"/>
      <point x="1109" y="-20" type="curve" smooth="yes"/>
      <point x="1286" y="-16"/>
      <point x="1527" y="114"/>
      <point x="1569" y="373" type="curve" smooth="yes"/>
      <point x="1684" y="1082" type="line"/>
      <point x="1499" y="1082" type="line"/>
      <point x="1384" y="373" type="line" smooth="yes"/>
      <point x="1354" y="189"/>
      <point x="1230" y="137"/>
      <point x="1113" y="137" type="curve" smooth="yes"/>
      <point x="959" y="137"/>
      <point x="896" y="216"/>
      <point x="924" y="373" type="curve" smooth="yes"/>
      <point x="1049" y="1082" type="line"/>
      <point x="863" y="1082" type="line"/>
      <point x="736" y="364" type="line" smooth="yes"/>
      <point x="711" y="224"/>
      <point x="583" y="137"/>
      <point x="446" y="137" type="curve" smooth="yes"/>
      <point x="279" y="137"/>
      <point x="229" y="213"/>
      <point x="256" y="368" type="curve" smooth="yes"/>
      <point x="382" y="1082" type="line"/>
      <point x="197" y="1082" type="line"/>
      <point x="69" y="357" type="line" smooth="yes"/>
      <point x="25" y="106"/>
      <point x="128" y="-20"/>
    </contour>
    <contour>
      <point x="1189" y="-495" type="curve" smooth="yes"/>
      <point x="1354" y="-495"/>
      <point x="1496" y="-376"/>
      <point x="1523" y="-219" type="curve" smooth="yes"/>
      <point x="1552" y="-59"/>
      <point x="1449" y="63"/>
      <point x="1287" y="63" type="curve" smooth="yes"/>
      <point x="1120" y="63"/>
      <point x="972" y="-62"/>
      <point x="944" y="-219" type="curve" smooth="yes"/>
      <point x="917" y="-374"/>
      <point x="1018" y="-495"/>
    </contour>
    <contour>
      <point x="1239" y="-465" type="curve" smooth="yes"/>
      <point x="1141" y="-465"/>
      <point x="1051" y="-401"/>
      <point x="1074" y="-274" type="curve" smooth="yes"/>
      <point x="1092" y="-168"/>
      <point x="1197" y="-73"/>
      <point x="1313" y="-73" type="curve" smooth="yes"/>
      <point x="1423" y="-73"/>
      <point x="1486" y="-161"/>
      <point x="1472" y="-274" type="curve" smooth="yes"/>
      <point x="1459" y="-380"/>
      <point x="1340" y="-464"/>
    </contour>
  </outline>
</glyph>
<glyph name="sze-ethiopic" format="2">
  <advance width="1895"/>
  <unicode hex="1225"/>
  <outline>
    <contour>
      <point x="365" y="-20" type="curve" smooth="yes"/>
      <point x="522" y="-20"/>
      <point x="650" y="50"/>
      <point x="740" y="154" type="curve"/>
      <point x="815" y="38"/>
      <point x="872" y="-25"/>
      <point x="1109" y="-20" type="curve" smooth="yes"/>
      <point x="1286" y="-16"/>
      <point x="1527" y="114"/>
      <point x="1569" y="373" type="curve" smooth="yes"/>
      <point x="1684" y="1082" type="line"/>
      <point x="1499" y="1082" type="line"/>
      <point x="1384" y="373" type="line" smooth="yes"/>
      <point x="1354" y="189"/>
      <point x="1230" y="137"/>
      <point x="1113" y="137" type="curve" smooth="yes"/>
      <point x="959" y="137"/>
      <point x="896" y="216"/>
      <point x="924" y="373" type="curve" smooth="yes"/>
      <point x="1049" y="1082" type="line"/>
      <point x="863" y="1082" type="line"/>
      <point x="736" y="364" type="line" smooth="yes"/>
      <point x="711" y="224"/>
      <point x="583" y="137"/>
      <point x="446" y="137" type="curve" smooth="yes"/>
      <point x="279" y="137"/>
      <point x="229" y="213"/>
      <point x="256" y="368" type="curve" smooth="yes"/>
      <point x="382" y="1082" type="line"/>
      <point x="197" y="1082" type="line"/>
      <point x="69" y="357" type="line" smooth="yes"/>
      <point x="25" y="106"/>
      <point x="128" y="-20"/>
    </contour>
    <contour>
      <point x="-16" y="-380" type="line"/>
      <point x="169" y="-380" type="line"/>
      <point x="232" y="-26" type="line"/>
      <point x="47" y="-26" type="line"/>
    </contour>
  </outline>
</glyph>
<glyph name="szwa-ethiopic" format="2">
  <advance width="1895"/>
  <unicode hex="1227"/>
  <outline>
    <contour>
      <point x="365" y="-20" type="curve" smooth="yes"/>
      <point x="522" y="-20"/>
      <point x="650" y="50"/>
      <point x="740" y="154" type="curve"/>
      <point x="815" y="38"/>
      <point x="872" y="-25"/>
      <point x="1109" y="-20" type="curve" smooth="yes"/>
      <point x="1286" y="-16"/>
      <point x="1527" y="114"/>
      <point x="1569" y="373" type="curve" smooth="yes"/>
      <point x="1684" y="1082" type="line"/>
      <point x="1499" y="1082" type="line"/>
      <point x="1384" y="373" type="line" smooth="yes"/>
      <point x="1354" y="189"/>
      <point x="1230" y="137"/>
      <point x="1113" y="137" type="curve" smooth="yes"/>
      <point x="959" y="137"/>
      <point x="896" y="216"/>
      <point x="924" y="373" type="curve" smooth="yes"/>
      <point x="1049" y="1082" type="line"/>
      <point x="863" y="1082" type="line"/>
      <point x="736" y="364" type="line" smooth="yes"/>
      <point x="711" y="224"/>
      <point x="583" y="137"/>
      <point x="446" y="137" type="curve" smooth="yes"/>
      <point x="279" y="137"/>
      <point x="229" y="213"/>
      <point x="256" y="368" type="curve" smooth="yes"/>
      <point x="382" y="1082" type="line"/>
      <point x="197" y="1082" type="line"/>
      <point x="69" y="357" type="line" smooth="yes"/>
      <point x="25" y="106"/>
      <point x="128" y="-20"/>
    </contour>
    <contour>
      <point x="847" y="-353" type="line"/>
      <point x="1337" y="-344" type="line"/>
      <point x="1318" y="-461" type="line"/>
      <point x="1458" y="-459" type="line"/>
      <point x="1487" y="-220" type="line"/>
      <point x="1328" y="-223" type="line"/>
      <point x="1377" y="-19" type="line"/>
      <point x="1192" y="-23" type="line"/>
      <point x="1143" y="-226" type="line"/>
      <point x="857" y="-231" type="line"/>
    </contour>
  </outline>
</glyph>
<glyph name="ra-ethiopic" format="2">
  <advance width="1166"/>
  <unicode hex="1228"/>
  <outline>
    <contour>
      <point x="403" y="-20" type="curve" smooth="yes"/>
      <point x="605" y="-20"/>
      <point x="832" y="127"/>
      <point x="938" y="295" type="curve"/>
      <point x="830" y="295" type="line"/>
      <point x="764" y="205"/>
      <point x="561" y="131"/>
      <point x="429" y="131" type="curve" smooth="yes"/>
      <point x="278" y="131"/>
      <point x="254" y="255"/>
      <point x="300" y="517" type="curve" smooth="yes"/>
      <point x="400" y="1082" type="line"/>
      <point x="215" y="1082" type="line"/>
      <point x="117" y="524" type="line" smooth="yes"/>
      <point x="58" y="187"/>
      <point x="110" y="-20"/>
    </contour>
  </outline>
</glyph>
<glyph name="ru-ethiopic" format="2">
  <advance width="1086"/>
  <unicode hex="1229"/>
  <outline>
    <contour>
      <point x="403" y="-20" type="curve" smooth="yes"/>
      <point x="605" y="-20"/>
      <point x="832" y="127"/>
      <point x="938" y="295" type="curve"/>
      <point x="830" y="295" type="line"/>
      <point x="764" y="205"/>
      <point x="561" y="131"/>
      <point x="429" y="131" type="curve" smooth="yes"/>
      <point x="278" y="131"/>
      <point x="254" y="255"/>
      <point x="300" y="517" type="curve" smooth="yes"/>
      <point x="400" y="1082" type="line"/>
      <point x="215" y="1082" type="line"/>
      <point x="117" y="524" type="line" smooth="yes"/>
      <point x="58" y="187"/>
      <point x="110" y="-20"/>
    </contour>
    <contour>
      <point x="758" y="-247" type="curve" smooth="yes"/>
      <point x="825" y="-247"/>
      <point x="891" y="-192"/>
      <point x="903" y="-124" type="curve" smooth="yes"/>
      <point x="915" y="-57"/>
      <point x="868" y="0"/>
      <point x="801" y="0" type="curve" smooth="yes"/>
      <point x="733" y="0"/>
      <point x="668" y="-57"/>
      <point x="656" y="-124" type="curve" smooth="yes"/>
      <point x="644" y="-192"/>
      <point x="690" y="-247"/>
    </contour>
  </outline>
</glyph>
<glyph name="ri-ethiopic" format="2">
  <advance width="1166"/>
  <unicode hex="122A"/>
  <outline>
    <contour>
      <point x="403" y="-20" type="curve" smooth="yes"/>
      <point x="605" y="-20"/>
      <point x="832" y="127"/>
      <point x="938" y="295" type="curve"/>
      <point x="830" y="295" type="line"/>
      <point x="764" y="205"/>
      <point x="561" y="131"/>
      <point x="429" y="131" type="curve" smooth="yes"/>
      <point x="278" y="131"/>
      <point x="254" y="255"/>
      <point x="300" y="517" type="curve" smooth="yes"/>
      <point x="400" y="1082" type="line"/>
      <point x="215" y="1082" type="line"/>
      <point x="117" y="524" type="line" smooth="yes"/>
      <point x="58" y="187"/>
      <point x="110" y="-20"/>
    </contour>
    <contour>
      <point x="940" y="312" type="line"/>
      <point x="990" y="594" type="line"/>
      <point x="744" y="594" type="line"/>
      <point x="727" y="500" type="line"/>
      <point x="864" y="500" type="line"/>
      <point x="831" y="312" type="line"/>
    </contour>
  </outline>
</glyph>
<glyph name="re-ethiopic" format="2">
  <advance width="1077"/>
  <unicode hex="122D"/>
  <outline>
    <contour>
      <point x="483" y="-20" type="curve" smooth="yes"/>
      <point x="685" y="-22"/>
      <point x="755" y="-30"/>
      <point x="856" y="-32" type="curve"/>
      <point x="876" y="119" type="line"/>
      <point x="789" y="118"/>
      <point x="591" y="127"/>
      <point x="510" y="131" type="curve" smooth="yes"/>
      <point x="360" y="138"/>
      <point x="335" y="255"/>
      <point x="381" y="517" type="curve" smooth="yes"/>
      <point x="480" y="1082" type="line"/>
      <point x="295" y="1082" type="line"/>
      <point x="197" y="524" type="line" smooth="yes"/>
      <point x="138" y="187"/>
      <point x="190" y="-17"/>
    </contour>
    <contour>
      <point x="304" y="1000" type="line"/>
      <point x="929" y="1000" type="line"/>
      <point x="944" y="1082" type="line"/>
      <point x="319" y="1082" type="line"/>
    </contour>
  </outline>
</glyph>
<glyph name="ro-ethiopic" format="2">
  <advance width="1077"/>
  <unicode hex="122E"/>
  <outline>
    <contour>
      <point x="483" y="-20" type="curve" smooth="yes"/>
      <point x="685" y="-22"/>
      <point x="755" y="-30"/>
      <point x="856" y="-32" type="curve"/>
      <point x="876" y="119" type="line"/>
      <point x="789" y="118"/>
      <point x="591" y="127"/>
      <point x="510" y="131" type="curve" smooth="yes"/>
      <point x="360" y="138"/>
      <point x="335" y="255"/>
      <point x="381" y="517" type="curve" smooth="yes"/>
      <point x="480" y="1082" type="line"/>
      <point x="295" y="1082" type="line"/>
      <point x="197" y="524" type="line" smooth="yes"/>
      <point x="138" y="187"/>
      <point x="190" y="-17"/>
    </contour>
    <contour>
      <point x="784" y="643" type="curve" smooth="yes"/>
      <point x="951" y="643"/>
      <point x="1077" y="768"/>
      <point x="1077" y="925" type="curve" smooth="yes"/>
      <point x="1077" y="1080"/>
      <point x="955" y="1201"/>
      <point x="784" y="1201" type="curve" smooth="yes"/>
      <point x="619" y="1201"/>
      <point x="498" y="1082"/>
      <point x="498" y="925" type="curve" smooth="yes"/>
      <point x="498" y="765"/>
      <point x="622" y="643"/>
    </contour>
    <contour>
      <point x="734" y="779" type="curve" smooth="yes"/>
      <point x="624" y="779"/>
      <point x="540" y="868"/>
      <point x="540" y="980" type="curve" smooth="yes"/>
      <point x="540" y="1106"/>
      <point x="638" y="1170"/>
      <point x="739" y="1171" type="curve" smooth="yes"/>
      <point x="837" y="1171"/>
      <point x="938" y="1107"/>
      <point x="938" y="980" type="curve" smooth="yes"/>
      <point x="938" y="874"/>
      <point x="850" y="779"/>
    </contour>
  </outline>
</glyph>
<glyph name="rwa-ethiopic" format="2">
  <advance width="1166"/>
  <unicode hex="122F"/>
  <outline>
    <contour>
      <point x="403" y="-20" type="curve" smooth="yes"/>
      <point x="605" y="-20"/>
      <point x="832" y="127"/>
      <point x="938" y="295" type="curve"/>
      <point x="830" y="295" type="line"/>
      <point x="764" y="205"/>
      <point x="561" y="131"/>
      <point x="429" y="131" type="curve" smooth="yes"/>
      <point x="278" y="131"/>
      <point x="254" y="255"/>
      <point x="300" y="517" type="curve" smooth="yes"/>
      <point x="400" y="1082" type="line"/>
      <point x="215" y="1082" type="line"/>
      <point x="117" y="524" type="line" smooth="yes"/>
      <point x="58" y="187"/>
      <point x="110" y="-20"/>
    </contour>
    <contour>
      <point x="546" y="307" type="line"/>
      <point x="695" y="307" type="line"/>
      <point x="1015" y="601" type="line"/>
      <point x="791" y="601" type="line"/>
    </contour>
    <contour>
      <point x="51" y="1081" type="line"/>
      <point x="676" y="1081" type="line"/>
      <point x="691" y="1163" type="line"/>
      <point x="66" y="1163" type="line"/>
    </contour>
  </outline>
</glyph>
<glyph name="su-ethiopic" format="2">
  <advance width="1250"/>
  <unicode hex="1231"/>
  <outline>
    <contour>
      <point x="9" y="0" type="line"/>
      <point x="194" y="0" type="line"/>
      <point x="320" y="716" type="line" smooth="yes"/>
      <point x="346" y="862"/>
      <point x="463" y="945"/>
      <point x="625" y="945" type="curve" smooth="yes"/>
      <point x="773" y="945"/>
      <point x="828" y="872"/>
      <point x="801" y="716" type="curve" smooth="yes"/>
      <point x="675" y="0" type="line"/>
      <point x="860" y="0" type="line"/>
      <point x="986" y="715" type="line" smooth="yes"/>
      <point x="1031" y="973"/>
      <point x="876" y="1102"/>
      <point x="647" y="1102" type="curve" smooth="yes"/>
      <point x="383" y="1102"/>
      <point x="178" y="957"/>
      <point x="141" y="748" type="curve" smooth="yes"/>
    </contour>
    <contour>
      <point x="1079" y="519" type="curve" smooth="yes"/>
      <point x="1146" y="519"/>
      <point x="1212" y="574"/>
      <point x="1224" y="642" type="curve" smooth="yes"/>
      <point x="1236" y="709"/>
      <point x="1189" y="766"/>
      <point x="1122" y="766" type="curve" smooth="yes"/>
      <point x="1054" y="766"/>
      <point x="989" y="709"/>
      <point x="977" y="642" type="curve" smooth="yes"/>
      <point x="965" y="574"/>
      <point x="1011" y="519"/>
    </contour>
    <contour>
      <point x="573" y="1114" type="line"/>
      <point x="742" y="1114" type="line"/>
      <point x="806" y="1478" type="line"/>
      <point x="637" y="1478" type="line"/>
    </contour>
  </outline>
</glyph>
<glyph name="si-ethiopic" format="2">
  <advance width="1250"/>
  <unicode hex="1232"/>
  <outline>
    <contour>
      <point x="9" y="0" type="line"/>
      <point x="194" y="0" type="line"/>
      <point x="320" y="716" type="line" smooth="yes"/>
      <point x="346" y="862"/>
      <point x="463" y="945"/>
      <point x="625" y="945" type="curve" smooth="yes"/>
      <point x="773" y="945"/>
      <point x="828" y="872"/>
      <point x="801" y="716" type="curve" smooth="yes"/>
      <point x="675" y="0" type="line"/>
      <point x="860" y="0" type="line"/>
      <point x="986" y="715" type="line" smooth="yes"/>
      <point x="1031" y="973"/>
      <point x="876" y="1102"/>
      <point x="647" y="1102" type="curve" smooth="yes"/>
      <point x="383" y="1102"/>
      <point x="178" y="957"/>
      <point x="141" y="748" type="curve" smooth="yes"/>
    </contour>
    <contour>
      <point x="982" y="-13" type="curve" smooth="yes"/>
      <point x="1049" y="-13"/>
      <point x="1116" y="42"/>
      <point x="1127" y="110" type="curve" smooth="yes"/>
      <point x="1139" y="177"/>
      <point x="1092" y="234"/>
      <point x="1025" y="234" type="curve" smooth="yes"/>
      <point x="957" y="234"/>
      <point x="892" y="177"/>
      <point x="880" y="110" type="curve" smooth="yes"/>
      <point x="869" y="42"/>
      <point x="914" y="-13"/>
    </contour>
    <contour>
      <point x="573" y="1114" type="line"/>
      <point x="742" y="1114" type="line"/>
      <point x="806" y="1478" type="line"/>
      <point x="637" y="1478" type="line"/>
    </contour>
  </outline>
</glyph>
<glyph name="se-ethiopic" format="2">
  <advance width="1250"/>
  <unicode hex="1235"/>
  <outline>
    <contour>
      <point x="9" y="0" type="line"/>
      <point x="194" y="0" type="line"/>
      <point x="320" y="716" type="line" smooth="yes"/>
      <point x="346" y="862"/>
      <point x="463" y="945"/>
      <point x="625" y="945" type="curve" smooth="yes"/>
      <point x="773" y="945"/>
      <point x="828" y="872"/>
      <point x="801" y="716" type="curve" smooth="yes"/>
      <point x="675" y="0" type="line"/>
      <point x="860" y="0" type="line"/>
      <point x="986" y="715" type="line" smooth="yes"/>
      <point x="1031" y="973"/>
      <point x="876" y="1102"/>
      <point x="647" y="1102" type="curve" smooth="yes"/>
      <point x="383" y="1102"/>
      <point x="178" y="957"/>
      <point x="141" y="748" type="curve" smooth="yes"/>
    </contour>
    <contour>
      <point x="726" y="1200" type="line"/>
      <point x="585" y="1494" type="line"/>
      <point x="361" y="1494" type="line"/>
      <point x="577" y="1200" type="line"/>
    </contour>
  </outline>
</glyph>
<glyph name="sha-ethiopic" format="2">
  <advance width="1250"/>
  <unicode hex="1238"/>
  <outline>
    <contour>
      <point x="9" y="0" type="line"/>
      <point x="194" y="0" type="line"/>
      <point x="320" y="716" type="line" smooth="yes"/>
      <point x="346" y="862"/>
      <point x="463" y="945"/>
      <point x="625" y="945" type="curve" smooth="yes"/>
      <point x="773" y="945"/>
      <point x="828" y="872"/>
      <point x="801" y="716" type="curve" smooth="yes"/>
      <point x="675" y="0" type="line"/>
      <point x="860" y="0" type="line"/>
      <point x="986" y="715" type="line" smooth="yes"/>
      <point x="1031" y="973"/>
      <point x="876" y="1102"/>
      <point x="647" y="1102" type="curve" smooth="yes"/>
      <point x="383" y="1102"/>
      <point x="178" y="957"/>
      <point x="141" y="748" type="curve" smooth="yes"/>
    </contour>
    <contour>
      <point x="573" y="1114" type="line"/>
      <point x="742" y="1114" type="line"/>
      <point x="806" y="1478" type="line"/>
      <point x="637" y="1478" type="line"/>
    </contour>
    <contour>
      <point x="374" y="1422" type="line"/>
      <point x="999" y="1422" type="line"/>
      <point x="1014" y="1504" type="line"/>
      <point x="389" y="1504" type="line"/>
    </contour>
  </outline>
</glyph>
<glyph name="shee-ethiopic" format="2">
  <advance width="1250"/>
  <unicode hex="123C"/>
  <outline>
    <contour>
      <point x="9" y="0" type="line"/>
      <point x="194" y="0" type="line"/>
      <point x="320" y="716" type="line" smooth="yes"/>
      <point x="346" y="862"/>
      <point x="463" y="945"/>
      <point x="625" y="945" type="curve" smooth="yes"/>
      <point x="773" y="945"/>
      <point x="828" y="872"/>
      <point x="801" y="716" type="curve" smooth="yes"/>
      <point x="675" y="0" type="line"/>
      <point x="860" y="0" type="line"/>
      <point x="986" y="715" type="line" smooth="yes"/>
      <point x="1031" y="973"/>
      <point x="876" y="1102"/>
      <point x="647" y="1102" type="curve" smooth="yes"/>
      <point x="383" y="1102"/>
      <point x="178" y="957"/>
      <point x="141" y="748" type="curve" smooth="yes"/>
    </contour>
    <contour>
      <point x="541" y="-435" type="curve" smooth="yes"/>
      <point x="706" y="-435"/>
      <point x="848" y="-316"/>
      <point x="875" y="-159" type="curve" smooth="yes"/>
      <point x="904" y="1"/>
      <point x="801" y="123"/>
      <point x="639" y="123" type="curve" smooth="yes"/>
      <point x="472" y="123"/>
      <point x="324" y="-2"/>
      <point x="296" y="-159" type="curve" smooth="yes"/>
      <point x="269" y="-314"/>
      <point x="370" y="-435"/>
    </contour>
    <contour>
      <point x="591" y="-405" type="curve" smooth="yes"/>
      <point x="493" y="-405"/>
      <point x="403" y="-341"/>
      <point x="426" y="-214" type="curve" smooth="yes"/>
      <point x="444" y="-108"/>
      <point x="549" y="-13"/>
      <point x="665" y="-13" type="curve" smooth="yes"/>
      <point x="775" y="-13"/>
      <point x="838" y="-101"/>
      <point x="824" y="-214" type="curve" smooth="yes"/>
      <point x="811" y="-320"/>
      <point x="692" y="-404"/>
    </contour>
    <contour>
      <point x="573" y="1114" type="line"/>
      <point x="742" y="1114" type="line"/>
      <point x="806" y="1478" type="line"/>
      <point x="637" y="1478" type="line"/>
    </contour>
    <component base="_smart.hat" xOffset="871" yOffset="1370"/>
  </outline>
</glyph>
<glyph name="sho-ethiopic" format="2">
  <advance width="1250"/>
  <unicode hex="123E"/>
  <outline>
    <contour>
      <point x="9" y="0" type="line"/>
      <point x="194" y="0" type="line"/>
      <point x="320" y="716" type="line" smooth="yes"/>
      <point x="346" y="862"/>
      <point x="463" y="945"/>
      <point x="625" y="945" type="curve" smooth="yes"/>
      <point x="773" y="945"/>
      <point x="828" y="872"/>
      <point x="801" y="716" type="curve" smooth="yes"/>
      <point x="675" y="0" type="line"/>
      <point x="860" y="0" type="line"/>
      <point x="986" y="715" type="line" smooth="yes"/>
      <point x="1031" y="973"/>
      <point x="876" y="1102"/>
      <point x="647" y="1102" type="curve" smooth="yes"/>
      <point x="383" y="1102"/>
      <point x="178" y="957"/>
      <point x="141" y="748" type="curve" smooth="yes"/>
    </contour>
    <contour>
      <point x="573" y="1114" type="line"/>
      <point x="742" y="1114" type="line"/>
      <point x="806" y="1478" type="line"/>
      <point x="637" y="1478" type="line"/>
    </contour>
    <contour>
      <point x="-53" y="-375" type="line"/>
      <point x="132" y="-375" type="line"/>
      <point x="195" y="-21" type="line"/>
      <point x="10" y="-21" type="line"/>
    </contour>
    <component base="_smart.hat" xOffset="871" yOffset="1370"/>
  </outline>
</glyph>
<glyph name="qhee-ethiopic" format="2">
  <advance width="1655"/>
  <unicode hex="1254"/>
  <outline>
    <contour>
      <point x="386" y="-20" type="curve" smooth="yes"/>
      <point x="440" y="-20"/>
      <point x="488" y="-16"/>
      <point x="535" y="0" type="curve"/>
      <point x="750" y="0" type="line"/>
      <point x="788" y="-13"/>
      <point x="831" y="-20"/>
      <point x="881" y="-20" type="curve" smooth="yes"/>
      <point x="1132" y="-20"/>
      <point x="1345" y="205"/>
      <point x="1406" y="550" type="curve" smooth="yes"/>
      <point x="1465" y="882"/>
      <point x="1332" y="1102"/>
      <point x="1077" y="1102" type="curve" smooth="yes"/>
      <point x="1027" y="1102"/>
      <point x="980" y="1095"/>
      <point x="937" y="1082" type="curve"/>
      <point x="726" y="1082" type="line"/>
      <point x="686" y="1097"/>
      <point x="639" y="1102"/>
      <point x="586" y="1102" type="curve" smooth="yes"/>
      <point x="331" y="1102"/>
      <point x="120" y="882"/>
      <point x="59" y="536" type="curve" smooth="yes"/>
      <point x="0" y="205"/>
      <point x="135" y="-20"/>
    </contour>
    <contour>
      <point x="459" y="137" type="curve" smooth="yes"/>
      <point x="280" y="137"/>
      <point x="199" y="284"/>
      <point x="242" y="529" type="curve" smooth="yes"/>
      <point x="291" y="804"/>
      <point x="423" y="945"/>
      <point x="604" y="945" type="curve" smooth="yes"/>
      <point x="639" y="945"/>
      <point x="691" y="940"/>
      <point x="719" y="931" type="curve"/>
      <point x="584" y="163" type="line"/>
      <point x="548" y="147"/>
      <point x="492" y="137"/>
    </contour>
    <contour>
      <point x="821" y="137" type="curve" smooth="yes"/>
      <point x="804" y="135"/>
      <point x="771" y="151"/>
      <point x="756" y="156" type="curve"/>
      <point x="894" y="942" type="line"/>
      <point x="933" y="944"/>
      <point x="968" y="942"/>
      <point x="1000" y="936" type="curve" smooth="yes"/>
      <point x="1178" y="904"/>
      <point x="1259" y="762"/>
      <point x="1217" y="529" type="curve" smooth="yes"/>
      <point x="1174" y="284"/>
      <point x="1003" y="158"/>
    </contour>
    <contour>
      <point x="504" y="-495" type="curve" smooth="yes"/>
      <point x="669" y="-495"/>
      <point x="811" y="-376"/>
      <point x="838" y="-219" type="curve" smooth="yes"/>
      <point x="867" y="-59"/>
      <point x="764" y="63"/>
      <point x="602" y="63" type="curve" smooth="yes"/>
      <point x="435" y="63"/>
      <point x="287" y="-62"/>
      <point x="259" y="-219" type="curve" smooth="yes"/>
      <point x="232" y="-374"/>
      <point x="333" y="-495"/>
    </contour>
    <contour>
      <point x="554" y="-465" type="curve" smooth="yes"/>
      <point x="456" y="-465"/>
      <point x="366" y="-401"/>
      <point x="389" y="-274" type="curve" smooth="yes"/>
      <point x="407" y="-168"/>
      <point x="512" y="-73"/>
      <point x="628" y="-73" type="curve" smooth="yes"/>
      <point x="738" y="-73"/>
      <point x="801" y="-161"/>
      <point x="787" y="-274" type="curve" smooth="yes"/>
      <point x="774" y="-380"/>
      <point x="655" y="-464"/>
    </contour>
    <contour>
      <point x="751" y="1092" type="line"/>
      <point x="920" y="1092" type="line"/>
      <point x="984" y="1456" type="line"/>
      <point x="815" y="1456" type="line"/>
    </contour>
    <component base="_smart.hat" xOffset="1112" yOffset="1351"/>
  </outline>
</glyph>
<glyph name="qhwaa-ethiopic" format="2">
  <advance width="1655"/>
  <unicode hex="125B"/>
  <outline>
    <contour>
      <point x="386" y="-20" type="curve" smooth="yes"/>
      <point x="440" y="-20"/>
      <point x="488" y="-16"/>
      <point x="535" y="0" type="curve"/>
      <point x="750" y="0" type="line"/>
      <point x="788" y="-13"/>
      <point x="831" y="-20"/>
      <point x="881" y="-20" type="curve" smooth="yes"/>
      <point x="1132" y="-20"/>
      <point x="1345" y="205"/>
      <point x="1406" y="550" type="curve" smooth="yes"/>
      <point x="1465" y="882"/>
      <point x="1332" y="1102"/>
      <point x="1077" y="1102" type="curve" smooth="yes"/>
      <point x="1027" y="1102"/>
      <point x="980" y="1095"/>
      <point x="937" y="1082" type="curve"/>
      <point x="726" y="1082" type="line"/>
      <point x="686" y="1097"/>
      <point x="639" y="1102"/>
      <point x="586" y="1102" type="curve" smooth="yes"/>
      <point x="331" y="1102"/>
      <point x="120" y="882"/>
      <point x="59" y="536" type="curve" smooth="yes"/>
      <point x="0" y="205"/>
      <point x="135" y="-20"/>
    </contour>
    <contour>
      <point x="459" y="137" type="curve" smooth="yes"/>
      <point x="280" y="137"/>
      <point x="199" y="284"/>
      <point x="242" y="529" type="curve" smooth="yes"/>
      <point x="291" y="804"/>
      <point x="423" y="945"/>
      <point x="604" y="945" type="curve" smooth="yes"/>
      <point x="639" y="945"/>
      <point x="691" y="940"/>
      <point x="719" y="931" type="curve"/>
      <point x="584" y="163" type="line"/>
      <point x="548" y="147"/>
      <point x="492" y="137"/>
    </contour>
    <contour>
      <point x="821" y="137" type="curve" smooth="yes"/>
      <point x="804" y="135"/>
      <point x="771" y="151"/>
      <point x="756" y="156" type="curve"/>
      <point x="894" y="942" type="line"/>
      <point x="933" y="944"/>
      <point x="968" y="942"/>
      <point x="1000" y="936" type="curve" smooth="yes"/>
      <point x="1178" y="904"/>
      <point x="1259" y="762"/>
      <point x="1217" y="529" type="curve" smooth="yes"/>
      <point x="1174" y="284"/>
      <point x="1003" y="158"/>
    </contour>
    <contour>
      <point x="751" y="1092" type="line"/>
      <point x="920" y="1092" type="line"/>
      <point x="984" y="1456" type="line"/>
      <point x="815" y="1456" type="line"/>
    </contour>
    <contour>
      <point x="181" y="-363" type="line"/>
      <point x="671" y="-354" type="line"/>
      <point x="652" y="-471" type="line"/>
      <point x="792" y="-469" type="line"/>
      <point x="821" y="-230" type="line"/>
      <point x="662" y="-233" type="line"/>
      <point x="711" y="-29" type="line"/>
      <point x="526" y="-33" type="line"/>
      <point x="477" y="-236" type="line"/>
      <point x="191" y="-241" type="line"/>
    </contour>
    <component base="_smart.hat" xOffset="1112" yOffset="1351"/>
  </outline>
</glyph>
<glyph name="ve-ethiopic" format="2">
  <advance width="1250"/>
  <unicode hex="126D"/>
  <outline>
    <contour>
      <point x="9" y="0" type="line"/>
      <point x="194" y="0" type="line"/>
      <point x="320" y="716" type="line" smooth="yes"/>
      <point x="346" y="862"/>
      <point x="463" y="945"/>
      <point x="625" y="945" type="curve" smooth="yes"/>
      <point x="773" y="945"/>
      <point x="828" y="872"/>
      <point x="801" y="716" type="curve" smooth="yes"/>
      <point x="675" y="0" type="line"/>
      <point x="860" y="0" type="line"/>
      <point x="986" y="715" type="line" smooth="yes"/>
      <point x="1031" y="973"/>
      <point x="876" y="1102"/>
      <point x="647" y="1102" type="curve" smooth="yes"/>
      <point x="383" y="1102"/>
      <point x="178" y="957"/>
      <point x="141" y="748" type="curve" smooth="yes"/>
    </contour>
    <contour>
      <point x="390" y="455" type="curve" smooth="yes"/>
      <point x="462" y="455"/>
      <point x="508" y="500"/>
      <point x="519" y="560" type="curve" smooth="yes"/>
      <point x="530" y="620"/>
      <point x="500" y="667"/>
      <point x="428" y="667" type="curve" smooth="yes"/>
      <point x="356" y="667"/>
      <point x="311" y="620"/>
      <point x="300" y="560" type="curve" smooth="yes"/>
      <point x="289" y="500"/>
      <point x="318" y="455"/>
    </contour>
    <contour>
      <point x="374" y="1422" type="line"/>
      <point x="999" y="1422" type="line"/>
      <point x="1014" y="1504" type="line"/>
      <point x="389" y="1504" type="line"/>
    </contour>
  </outline>
</glyph>
<glyph name="vo-ethiopic" format="2">
  <advance width="1250"/>
  <unicode hex="126E"/>
  <outline>
    <contour>
      <point x="9" y="0" type="line"/>
      <point x="194" y="0" type="line"/>
      <point x="320" y="716" type="line" smooth="yes"/>
      <point x="346" y="862"/>
      <point x="463" y="945"/>
      <point x="625" y="945" type="curve" smooth="yes"/>
      <point x="773" y="945"/>
      <point x="828" y="872"/>
      <point x="801" y="716" type="curve" smooth="yes"/>
      <point x="675" y="0" type="line"/>
      <point x="860" y="0" type="line"/>
      <point x="986" y="715" type="line" smooth="yes"/>
      <point x="1031" y="973"/>
      <point x="876" y="1102"/>
      <point x="647" y="1102" type="curve" smooth="yes"/>
      <point x="383" y="1102"/>
      <point x="178" y="957"/>
      <point x="141" y="748" type="curve" smooth="yes"/>
    </contour>
    <contour>
      <point x="-53" y="-375" type="line"/>
      <point x="132" y="-375" type="line"/>
      <point x="195" y="-21" type="line"/>
      <point x="10" y="-21" type="line"/>
    </contour>
    <contour>
      <point x="374" y="1422" type="line"/>
      <point x="999" y="1422" type="line"/>
      <point x="1014" y="1504" type="line"/>
      <point x="389" y="1504" type="line"/>
    </contour>
  </outline>
</glyph>
<glyph name="ta-ethiopic" format="2">
  <advance width="784"/>
  <unicode hex="1270"/>
  <outline>
    <contour>
      <point x="75" y="0" type="line"/>
      <point x="260" y="0" type="line"/>
      <point x="426" y="939" type="line"/>
      <point x="628" y="939" type="line"/>
      <point x="653" y="1082" type="line"/>
      <point x="69" y="1082" type="line"/>
      <point x="44" y="939" type="line"/>
      <point x="241" y="939" type="line"/>
    </contour>
    <contour>
      <point x="271" y="1082" type="line"/>
      <point x="440" y="1082" type="line"/>
      <point x="504" y="1446" type="line"/>
      <point x="335" y="1446" type="line"/>
    </contour>
  </outline>
</glyph>
<glyph name="tu-ethiopic" format="2">
  <advance width="784"/>
  <unicode hex="1271"/>
  <outline>
    <contour>
      <point x="75" y="0" type="line"/>
      <point x="260" y="0" type="line"/>
      <point x="426" y="939" type="line"/>
      <point x="628" y="939" type="line"/>
      <point x="653" y="1082" type="line"/>
      <point x="69" y="1082" type="line"/>
      <point x="44" y="939" type="line"/>
      <point x="241" y="939" type="line"/>
    </contour>
    <contour>
      <point x="476" y="515" type="curve" smooth="yes"/>
      <point x="543" y="515"/>
      <point x="609" y="570"/>
      <point x="621" y="638" type="curve" smooth="yes"/>
      <point x="633" y="705"/>
      <point x="586" y="762"/>
      <point x="519" y="762" type="curve" smooth="yes"/>
      <point x="451" y="762"/>
      <point x="386" y="705"/>
      <point x="374" y="638" type="curve" smooth="yes"/>
      <point x="362" y="570"/>
      <point x="408" y="515"/>
    </contour>
    <contour>
      <point x="271" y="1082" type="line"/>
      <point x="440" y="1082" type="line"/>
      <point x="504" y="1446" type="line"/>
      <point x="335" y="1446" type="line"/>
    </contour>
  </outline>
</glyph>
<glyph name="ti-ethiopic" format="2">
  <advance width="784"/>
  <unicode hex="1272"/>
  <outline>
    <contour>
      <point x="75" y="0" type="line"/>
      <point x="260" y="0" type="line"/>
      <point x="426" y="939" type="line"/>
      <point x="628" y="939" type="line"/>
      <point x="653" y="1082" type="line"/>
      <point x="69" y="1082" type="line"/>
      <point x="44" y="939" type="line"/>
      <point x="241" y="939" type="line"/>
    </contour>
    <contour>
      <point x="395" y="-13" type="curve" smooth="yes"/>
      <point x="462" y="-13"/>
      <point x="529" y="42"/>
      <point x="540" y="110" type="curve" smooth="yes"/>
      <point x="552" y="177"/>
      <point x="505" y="234"/>
      <point x="438" y="234" type="curve" smooth="yes"/>
      <point x="370" y="234"/>
      <point x="305" y="177"/>
      <point x="293" y="110" type="curve" smooth="yes"/>
      <point x="282" y="42"/>
      <point x="327" y="-13"/>
    </contour>
    <contour>
      <point x="271" y="1082" type="line"/>
      <point x="440" y="1082" type="line"/>
      <point x="504" y="1446" type="line"/>
      <point x="335" y="1446" type="line"/>
    </contour>
  </outline>
</glyph>
<glyph name="te-ethiopic" format="2">
  <advance width="784"/>
  <unicode hex="1275"/>
  <outline>
    <contour>
      <point x="75" y="0" type="line"/>
      <point x="260" y="0" type="line"/>
      <point x="426" y="939" type="line"/>
      <point x="628" y="939" type="line"/>
      <point x="653" y="1082" type="line"/>
      <point x="69" y="1082" type="line"/>
      <point x="44" y="939" type="line"/>
      <point x="241" y="939" type="line"/>
    </contour>
    <contour>
      <point x="449" y="1163" type="line"/>
      <point x="308" y="1457" type="line"/>
      <point x="84" y="1457" type="line"/>
      <point x="300" y="1163" type="line"/>
    </contour>
  </outline>
</glyph>
<glyph name="caa-ethiopic" format="2">
  <advance width="784"/>
  <unicode hex="127B"/>
  <outline>
    <contour>
      <point x="75" y="0" type="line"/>
      <point x="260" y="0" type="line"/>
      <point x="426" y="939" type="line"/>
      <point x="628" y="939" type="line"/>
      <point x="653" y="1082" type="line"/>
      <point x="69" y="1082" type="line"/>
      <point x="44" y="939" type="line"/>
      <point x="241" y="939" type="line"/>
    </contour>
    <contour>
      <point x="-209" y="-304" type="line"/>
      <point x="-60" y="-304" type="line"/>
      <point x="260" y="-10" type="line" name="❌"/>
      <point x="36" y="-10" type="line" name="❌"/>
    </contour>
    <contour>
      <point x="271" y="1082" type="line"/>
      <point x="440" y="1082" type="line"/>
      <point x="504" y="1446" type="line"/>
      <point x="335" y="1446" type="line"/>
    </contour>
    <component base="_smart.hat" xOffset="571" yOffset="1327"/>
  </outline>
</glyph>
<glyph name="ce-ethiopic" format="2">
  <advance width="784"/>
  <unicode hex="127D"/>
  <outline>
    <contour>
      <point x="75" y="0" type="line"/>
      <point x="260" y="0" type="line"/>
      <point x="426" y="939" type="line"/>
      <point x="628" y="939" type="line"/>
      <point x="653" y="1082" type="line"/>
      <point x="69" y="1082" type="line"/>
      <point x="44" y="939" type="line"/>
      <point x="241" y="939" type="line"/>
    </contour>
    <contour>
      <point x="449" y="1163" type="line"/>
      <point x="308" y="1457" type="line"/>
      <point x="84" y="1457" type="line"/>
      <point x="300" y="1163" type="line"/>
    </contour>
    <contour>
      <point x="74" y="1379" type="line"/>
      <point x="699" y="1379" type="line"/>
      <point x="714" y="1461" type="line"/>
      <point x="89" y="1461" type="line"/>
    </contour>
  </outline>
</glyph>
<glyph name="co-ethiopic" format="2">
  <advance width="784"/>
  <unicode hex="127E"/>
  <outline>
    <contour>
      <point x="75" y="0" type="line"/>
      <point x="260" y="0" type="line"/>
      <point x="426" y="939" type="line"/>
      <point x="628" y="939" type="line"/>
      <point x="653" y="1082" type="line"/>
      <point x="69" y="1082" type="line"/>
      <point x="44" y="939" type="line"/>
      <point x="241" y="939" type="line"/>
    </contour>
    <contour>
      <point x="281" y="1057" type="curve" smooth="yes"/>
      <point x="448" y="1057"/>
      <point x="574" y="1182"/>
      <point x="574" y="1339" type="curve" smooth="yes"/>
      <point x="574" y="1494"/>
      <point x="452" y="1615"/>
      <point x="281" y="1615" type="curve" smooth="yes"/>
      <point x="116" y="1615"/>
      <point x="-5" y="1496"/>
      <point x="-5" y="1339" type="curve" smooth="yes"/>
      <point x="-5" y="1179"/>
      <point x="119" y="1057"/>
    </contour>
    <contour>
      <point x="231" y="1193" type="curve" smooth="yes"/>
      <point x="121" y="1193"/>
      <point x="37" y="1282"/>
      <point x="37" y="1394" type="curve" smooth="yes"/>
      <point x="37" y="1520"/>
      <point x="135" y="1584"/>
      <point x="236" y="1585" type="curve" smooth="yes"/>
      <point x="334" y="1585"/>
      <point x="435" y="1521"/>
      <point x="435" y="1394" type="curve" smooth="yes"/>
      <point x="435" y="1288"/>
      <point x="347" y="1193"/>
    </contour>
    <contour>
      <point x="74" y="1379" type="line"/>
      <point x="699" y="1379" type="line"/>
      <point x="714" y="1461" type="line"/>
      <point x="89" y="1461" type="line"/>
    </contour>
  </outline>
</glyph>
<glyph name="cwa-ethiopic" format="2">
  <advance width="784"/>
  <unicode hex="127F"/>
  <outline>
    <contour>
      <point x="75" y="0" type="line"/>
      <point x="260" y="0" type="line"/>
      <point x="426" y="939" type="line"/>
      <point x="628" y="939" type="line"/>
      <point x="653" y="1082" type="line"/>
      <point x="69" y="1082" type="line"/>
      <point x="44" y="939" type="line"/>
      <point x="241" y="939" type="line"/>
    </contour>
    <contour>
      <point x="-273" y="-343" type="line"/>
      <point x="217" y="-334" type="line"/>
      <point x="198" y="-451" type="line"/>
      <point x="338" y="-449" type="line"/>
      <point x="367" y="-210" type="line"/>
      <point x="208" y="-213" type="line"/>
      <point x="257" y="-9" type="line"/>
      <point x="72" y="-13" type="line"/>
      <point x="23" y="-216" type="line"/>
      <point x="-263" y="-221" type="line"/>
    </contour>
    <contour>
      <point x="271" y="1082" type="line"/>
      <point x="440" y="1082" type="line"/>
      <point x="504" y="1446" type="line"/>
      <point x="335" y="1446" type="line"/>
    </contour>
    <component base="_smart.hat" xOffset="571" yOffset="1327"/>
  </outline>
</glyph>
<glyph name="xa-ethiopic" format="2">
  <advance width="918"/>
  <unicode hex="1280"/>
  <outline>
    <contour>
      <point x="401" y="0" type="line"/>
      <point x="587" y="0" type="line"/>
      <point x="686" y="558" type="line" smooth="yes"/>
      <point x="746" y="895"/>
      <point x="646" y="1083"/>
      <point x="400" y="1102" type="curve" smooth="yes"/>
      <point x="295" y="1110"/>
      <point x="158" y="1050"/>
      <point x="87" y="1008" type="curve"/>
      <point x="244" y="944" type="line"/>
      <point x="267" y="955"/>
      <point x="303" y="966"/>
      <point x="375" y="961" type="curve" smooth="yes"/>
      <point x="545" y="949"/>
      <point x="545" y="812"/>
      <point x="501" y="565" type="curve" smooth="yes"/>
    </contour>
    <contour>
      <point x="87" y="1008" type="line"/>
      <point x="256" y="1008" type="line"/>
      <point x="320" y="1372" type="line"/>
      <point x="151" y="1372" type="line"/>
    </contour>
    <contour>
      <point x="-6" y="1056" type="curve" smooth="yes"/>
      <point x="61" y="1056"/>
      <point x="128" y="1111"/>
      <point x="140" y="1179" type="curve" smooth="yes"/>
      <point x="152" y="1246"/>
      <point x="105" y="1303"/>
      <point x="38" y="1303" type="curve" smooth="yes"/>
      <point x="-30" y="1303"/>
      <point x="-95" y="1246"/>
      <point x="-107" y="1179" type="curve" smooth="yes"/>
      <point x="-119" y="1111"/>
      <point x="-74" y="1056"/>
    </contour>
  </outline>
</glyph>
<glyph name="xu-ethiopic" format="2">
  <advance width="918"/>
  <unicode hex="1281"/>
  <outline>
    <contour>
      <point x="401" y="0" type="line"/>
      <point x="587" y="0" type="line"/>
      <point x="686" y="558" type="line" smooth="yes"/>
      <point x="746" y="895"/>
      <point x="646" y="1083"/>
      <point x="400" y="1102" type="curve" smooth="yes"/>
      <point x="295" y="1110"/>
      <point x="158" y="1050"/>
      <point x="87" y="1008" type="curve"/>
      <point x="244" y="944" type="line"/>
      <point x="267" y="955"/>
      <point x="303" y="966"/>
      <point x="375" y="961" type="curve" smooth="yes"/>
      <point x="545" y="949"/>
      <point x="545" y="812"/>
      <point x="501" y="565" type="curve" smooth="yes"/>
    </contour>
    <contour>
      <point x="800" y="484" type="curve" smooth="yes"/>
      <point x="867" y="484"/>
      <point x="933" y="539"/>
      <point x="945" y="607" type="curve" smooth="yes"/>
      <point x="957" y="674"/>
      <point x="910" y="731"/>
      <point x="843" y="731" type="curve" smooth="yes"/>
      <point x="775" y="731"/>
      <point x="710" y="674"/>
      <point x="698" y="607" type="curve" smooth="yes"/>
      <point x="686" y="539"/>
      <point x="732" y="484"/>
    </contour>
    <contour>
      <point x="87" y="1008" type="line"/>
      <point x="256" y="1008" type="line"/>
      <point x="320" y="1372" type="line"/>
      <point x="151" y="1372" type="line"/>
    </contour>
    <component base="_smart.nose" xOffset="24" yOffset="1204"/>
  </outline>
</glyph>
<glyph name="xi-ethiopic" format="2">
  <advance width="918"/>
  <unicode hex="1282"/>
  <outline>
    <contour>
      <point x="401" y="0" type="line"/>
      <point x="587" y="0" type="line"/>
      <point x="686" y="558" type="line" smooth="yes"/>
      <point x="746" y="895"/>
      <point x="646" y="1083"/>
      <point x="400" y="1102" type="curve" smooth="yes"/>
      <point x="295" y="1110"/>
      <point x="158" y="1050"/>
      <point x="87" y="1008" type="curve"/>
      <point x="244" y="944" type="line"/>
      <point x="267" y="955"/>
      <point x="303" y="966"/>
      <point x="375" y="961" type="curve" smooth="yes"/>
      <point x="545" y="949"/>
      <point x="545" y="812"/>
      <point x="501" y="565" type="curve" smooth="yes"/>
    </contour>
    <contour>
      <point x="711" y="-13" type="curve" smooth="yes"/>
      <point x="778" y="-13"/>
      <point x="845" y="42"/>
      <point x="856" y="110" type="curve" smooth="yes"/>
      <point x="868" y="177"/>
      <point x="821" y="234"/>
      <point x="754" y="234" type="curve" smooth="yes"/>
      <point x="686" y="234"/>
      <point x="621" y="177"/>
      <point x="609" y="110" type="curve" smooth="yes"/>
      <point x="598" y="42"/>
      <point x="643" y="-13"/>
    </contour>
    <contour>
      <point x="87" y="1008" type="line"/>
      <point x="256" y="1008" type="line"/>
      <point x="320" y="1372" type="line"/>
      <point x="151" y="1372" type="line"/>
    </contour>
    <component base="_smart.nose" xOffset="24" yOffset="1204"/>
  </outline>
</glyph>
<glyph name="xe-ethiopic" format="2">
  <advance width="1007"/>
  <unicode hex="1285"/>
  <outline>
    <contour>
      <point x="-54" y="1040" type="line"/>
      <point x="-54" y="824" type="line"/>
      <point x="20" y="824" type="line"/>
      <point x="20" y="1040" type="line"/>
    </contour>
    <contour>
      <point x="490" y="0" type="line"/>
      <point x="676" y="0" type="line"/>
      <point x="775" y="558" type="line" smooth="yes"/>
      <point x="835" y="895"/>
      <point x="735" y="1083"/>
      <point x="489" y="1102" type="curve" smooth="yes"/>
      <point x="384" y="1110"/>
      <point x="247" y="1050"/>
      <point x="176" y="1008" type="curve"/>
      <point x="333" y="944" type="line"/>
      <point x="356" y="955"/>
      <point x="392" y="966"/>
      <point x="464" y="961" type="curve" smooth="yes"/>
      <point x="634" y="949"/>
      <point x="634" y="812"/>
      <point x="590" y="565" type="curve" smooth="yes"/>
    </contour>
    <contour>
      <point x="116" y="1008" type="line"/>
      <point x="285" y="1008" type="line"/>
      <point x="349" y="1372" type="line"/>
      <point x="180" y="1372" type="line"/>
    </contour>
    <contour>
      <point x="-7" y="1048" type="curve" smooth="yes"/>
      <point x="60" y="1048"/>
      <point x="127" y="1103"/>
      <point x="139" y="1171" type="curve" smooth="yes"/>
      <point x="151" y="1238"/>
      <point x="104" y="1295"/>
      <point x="37" y="1295" type="curve" smooth="yes"/>
      <point x="-31" y="1295"/>
      <point x="-96" y="1238"/>
      <point x="-108" y="1171" type="curve" smooth="yes"/>
      <point x="-120" y="1103"/>
      <point x="-75" y="1048"/>
    </contour>
  </outline>
</glyph>
<glyph name="xwi-ethiopic" format="2">
  <advance width="918"/>
  <unicode hex="128A"/>
  <outline>
    <contour>
      <point x="401" y="0" type="line"/>
      <point x="587" y="0" type="line"/>
      <point x="686" y="558" type="line" smooth="yes"/>
      <point x="746" y="895"/>
      <point x="646" y="1083"/>
      <point x="400" y="1102" type="curve" smooth="yes"/>
      <point x="295" y="1110"/>
      <point x="158" y="1050"/>
      <point x="87" y="1008" type="curve"/>
      <point x="244" y="944" type="line"/>
      <point x="267" y="955"/>
      <point x="303" y="966"/>
      <point x="375" y="961" type="curve" smooth="yes"/>
      <point x="545" y="949"/>
      <point x="545" y="812"/>
      <point x="501" y="565" type="curve" smooth="yes"/>
    </contour>
    <contour>
      <point x="98" y="-62" type="line"/>
      <point x="560" y="-62" type="line"/>
      <point x="510" y="-346" type="line"/>
      <point x="679" y="-346" type="line"/>
      <point x="744" y="20" type="line"/>
      <point x="113" y="20" type="line"/>
    </contour>
    <contour>
      <point x="87" y="1008" type="line"/>
      <point x="256" y="1008" type="line"/>
      <point x="320" y="1372" type="line"/>
      <point x="151" y="1372" type="line"/>
    </contour>
    <component base="_smart.nose" xOffset="24" yOffset="1204"/>
  </outline>
</glyph>
<glyph name="nee-ethiopic" format="2">
  <advance width="918"/>
  <unicode hex="1294"/>
  <outline>
    <contour>
      <point x="401" y="0" type="line"/>
      <point x="587" y="0" type="line"/>
      <point x="686" y="558" type="line" smooth="yes"/>
      <point x="746" y="895"/>
      <point x="646" y="1083"/>
      <point x="400" y="1102" type="curve" smooth="yes"/>
      <point x="295" y="1110"/>
      <point x="158" y="1050"/>
      <point x="87" y="1008" type="curve"/>
      <point x="244" y="944" type="line"/>
      <point x="267" y="955"/>
      <point x="303" y="966"/>
      <point x="375" y="961" type="curve" smooth="yes"/>
      <point x="545" y="949"/>
      <point x="545" y="812"/>
      <point x="501" y="565" type="curve" smooth="yes"/>
    </contour>
    <contour>
      <point x="87" y="1008" type="line"/>
      <point x="256" y="1008" type="line"/>
      <point x="320" y="1372" type="line"/>
      <point x="151" y="1372" type="line"/>
    </contour>
    <contour>
      <point x="343" y="-455" type="curve" smooth="yes"/>
      <point x="508" y="-455"/>
      <point x="650" y="-336"/>
      <point x="677" y="-179" type="curve" smooth="yes"/>
      <point x="706" y="-19"/>
      <point x="603" y="103"/>
      <point x="441" y="103" type="curve" smooth="yes"/>
      <point x="274" y="103"/>
      <point x="126" y="-22"/>
      <point x="98" y="-179" type="curve" smooth="yes"/>
      <point x="71" y="-334"/>
      <point x="172" y="-455"/>
    </contour>
    <contour>
      <point x="393" y="-425" type="curve" smooth="yes"/>
      <point x="295" y="-425"/>
      <point x="205" y="-361"/>
      <point x="228" y="-234" type="curve" smooth="yes"/>
      <point x="246" y="-128"/>
      <point x="351" y="-33"/>
      <point x="467" y="-33" type="curve" smooth="yes"/>
      <point x="577" y="-33"/>
      <point x="640" y="-121"/>
      <point x="626" y="-234" type="curve" smooth="yes"/>
      <point x="613" y="-340"/>
      <point x="494" y="-424"/>
    </contour>
  </outline>
</glyph>
<glyph name="nyee-ethiopic" format="2">
  <advance width="918"/>
  <unicode hex="129C"/>
  <outline>
    <contour>
      <point x="401" y="0" type="line"/>
      <point x="587" y="0" type="line"/>
      <point x="686" y="558" type="line" smooth="yes"/>
      <point x="746" y="895"/>
      <point x="646" y="1083"/>
      <point x="400" y="1102" type="curve" smooth="yes"/>
      <point x="295" y="1110"/>
      <point x="158" y="1050"/>
      <point x="87" y="1008" type="curve"/>
      <point x="244" y="944" type="line"/>
      <point x="267" y="955"/>
      <point x="303" y="966"/>
      <point x="375" y="961" type="curve" smooth="yes"/>
      <point x="545" y="949"/>
      <point x="545" y="812"/>
      <point x="501" y="565" type="curve" smooth="yes"/>
    </contour>
    <contour>
      <point x="87" y="1008" type="line"/>
      <point x="256" y="1008" type="line"/>
      <point x="320" y="1372" type="line"/>
      <point x="151" y="1372" type="line"/>
    </contour>
    <contour>
      <point x="20" y="1356" type="line"/>
      <point x="645" y="1356" type="line"/>
      <point x="660" y="1438" type="line"/>
      <point x="35" y="1438" type="line"/>
    </contour>
    <component base="_smart.hee" xOffset="738" yOffset="-299"/>
  </outline>
</glyph>
<glyph name="nye-ethiopic" format="2">
  <advance width="918"/>
  <unicode hex="129D"/>
  <outline>
    <contour>
      <point x="401" y="0" type="line"/>
      <point x="587" y="0" type="line"/>
      <point x="686" y="558" type="line" smooth="yes"/>
      <point x="746" y="895"/>
      <point x="646" y="1083"/>
      <point x="400" y="1102" type="curve" smooth="yes"/>
      <point x="295" y="1110"/>
      <point x="158" y="1050"/>
      <point x="87" y="1008" type="curve"/>
      <point x="244" y="944" type="line"/>
      <point x="267" y="955"/>
      <point x="303" y="966"/>
      <point x="375" y="961" type="curve" smooth="yes"/>
      <point x="545" y="949"/>
      <point x="545" y="812"/>
      <point x="501" y="565" type="curve" smooth="yes"/>
    </contour>
    <contour>
      <point x="384" y="464" type="curve" smooth="yes"/>
      <point x="456" y="464"/>
      <point x="502" y="509"/>
      <point x="513" y="569" type="curve" smooth="yes"/>
      <point x="524" y="629"/>
      <point x="494" y="676"/>
      <point x="422" y="676" type="curve" smooth="yes"/>
      <point x="350" y="676"/>
      <point x="305" y="629"/>
      <point x="294" y="569" type="curve" smooth="yes"/>
      <point x="283" y="509"/>
      <point x="312" y="464"/>
    </contour>
    <contour>
      <point x="87" y="1407" type="line"/>
      <point x="712" y="1407" type="line"/>
      <point x="727" y="1489" type="line"/>
      <point x="102" y="1489" type="line"/>
    </contour>
    <component base="_smart.neck" xOffset="584" yOffset="1106"/>
  </outline>
</glyph>
<glyph name="iGlottal-ethiopic" format="2">
  <advance width="1248"/>
  <unicode hex="12A2"/>
  <outline>
    <contour>
      <point x="9" y="0" type="line"/>
      <point x="194" y="0" type="line"/>
      <point x="330" y="771" type="line"/>
      <point x="400" y="875"/>
      <point x="505" y="945"/>
      <point x="625" y="945" type="curve" smooth="yes"/>
      <point x="773" y="945"/>
      <point x="828" y="872"/>
      <point x="801" y="716" type="curve" smooth="yes"/>
      <point x="675" y="0" type="line"/>
      <point x="860" y="0" type="line"/>
      <point x="986" y="715" type="line" smooth="yes"/>
      <point x="1031" y="973"/>
      <point x="937" y="1102"/>
      <point x="709" y="1102" type="curve" smooth="yes"/>
      <point x="577" y="1102"/>
      <point x="462" y="1052"/>
      <point x="362" y="951" type="curve"/>
      <point x="405" y="1196" type="line"/>
      <point x="795" y="1536" type="line"/>
      <point x="610" y="1536" type="line"/>
      <point x="227" y="1238" type="line"/>
    </contour>
    <contour>
      <point x="508" y="1472" type="line"/>
      <point x="263" y="1766" type="line"/>
      <point x="39" y="1766" type="line"/>
      <point x="359" y="1472" type="line"/>
    </contour>
    <contour>
      <point x="982" y="-13" type="curve" smooth="yes"/>
      <point x="1049" y="-13"/>
      <point x="1116" y="42"/>
      <point x="1127" y="110" type="curve" smooth="yes"/>
      <point x="1139" y="177"/>
      <point x="1092" y="234"/>
      <point x="1025" y="234" type="curve" smooth="yes"/>
      <point x="957" y="234"/>
      <point x="892" y="177"/>
      <point x="880" y="110" type="curve" smooth="yes"/>
      <point x="869" y="42"/>
      <point x="914" y="-13"/>
    </contour>
  </outline>
</glyph>
<glyph name="ke-ethiopic" format="2">
  <advance width="1250"/>
  <unicode hex="12AD"/>
  <outline>
    <contour>
      <point x="9" y="0" type="line"/>
      <point x="194" y="0" type="line"/>
      <point x="320" y="716" type="line" smooth="yes"/>
      <point x="346" y="862"/>
      <point x="463" y="945"/>
      <point x="625" y="945" type="curve" smooth="yes"/>
      <point x="773" y="945"/>
      <point x="828" y="872"/>
      <point x="801" y="716" type="curve" smooth="yes"/>
      <point x="675" y="0" type="line"/>
      <point x="860" y="0" type="line"/>
      <point x="986" y="715" type="line" smooth="yes"/>
      <point x="1031" y="973"/>
      <point x="876" y="1102"/>
      <point x="647" y="1102" type="curve" smooth="yes"/>
      <point x="383" y="1102"/>
      <point x="178" y="957"/>
      <point x="141" y="748" type="curve" smooth="yes"/>
    </contour>
    <contour>
      <point x="172" y="1032" type="line"/>
      <point x="604" y="1042" type="line"/>
      <point x="615" y="1104" type="line"/>
      <point x="338" y="1104" type="line"/>
      <point x="383" y="1362" type="line"/>
      <point x="230" y="1362" type="line"/>
    </contour>
    <contour>
      <point x="390" y="455" type="curve" smooth="yes"/>
      <point x="462" y="455"/>
      <point x="508" y="500"/>
      <point x="519" y="560" type="curve" smooth="yes"/>
      <point x="530" y="620"/>
      <point x="500" y="667"/>
      <point x="428" y="667" type="curve" smooth="yes"/>
      <point x="356" y="667"/>
      <point x="311" y="620"/>
      <point x="300" y="560" type="curve" smooth="yes"/>
      <point x="289" y="500"/>
      <point x="318" y="455"/>
    </contour>
  </outline>
</glyph>
<glyph name="koa-ethiopic" format="2">
  <advance width="1250"/>
  <unicode hex="12AF"/>
  <outline>
    <contour>
      <point x="9" y="0" type="line"/>
      <point x="194" y="0" type="line"/>
      <point x="320" y="716" type="line" smooth="yes"/>
      <point x="346" y="862"/>
      <point x="463" y="945"/>
      <point x="625" y="945" type="curve" smooth="yes"/>
      <point x="773" y="945"/>
      <point x="828" y="872"/>
      <point x="801" y="716" type="curve" smooth="yes"/>
      <point x="675" y="0" type="line"/>
      <point x="860" y="0" type="line"/>
      <point x="986" y="715" type="line" smooth="yes"/>
      <point x="1031" y="973"/>
      <point x="876" y="1102"/>
      <point x="647" y="1102" type="curve" smooth="yes"/>
      <point x="383" y="1102"/>
      <point x="178" y="957"/>
      <point x="141" y="748" type="curve" smooth="yes"/>
    </contour>
    <contour>
      <point x="172" y="1032" type="line"/>
      <point x="604" y="1042" type="line"/>
      <point x="615" y="1104" type="line"/>
      <point x="338" y="1104" type="line"/>
      <point x="383" y="1362" type="line"/>
      <point x="230" y="1362" type="line"/>
    </contour>
    <contour>
      <point x="334" y="-347" type="line"/>
      <point x="824" y="-338" type="line"/>
      <point x="805" y="-455" type="line"/>
      <point x="945" y="-453" type="line"/>
      <point x="974" y="-214" type="line"/>
      <point x="815" y="-217" type="line"/>
      <point x="864" y="-13" type="line"/>
      <point x="679" y="-17" type="line"/>
      <point x="630" y="-220" type="line"/>
      <point x="344" y="-225" type="line"/>
    </contour>
  </outline>
</glyph>
<glyph name="kxi-ethiopic" format="2">
  <advance width="1250"/>
  <unicode hex="12BA"/>
  <outline>
    <contour>
      <point x="9" y="0" type="line"/>
      <point x="194" y="0" type="line"/>
      <point x="320" y="716" type="line" smooth="yes"/>
      <point x="346" y="862"/>
      <point x="463" y="945"/>
      <point x="625" y="945" type="curve" smooth="yes"/>
      <point x="773" y="945"/>
      <point x="828" y="872"/>
      <point x="801" y="716" type="curve" smooth="yes"/>
      <point x="675" y="0" type="line"/>
      <point x="860" y="0" type="line"/>
      <point x="986" y="715" type="line" smooth="yes"/>
      <point x="1031" y="973"/>
      <point x="876" y="1102"/>
      <point x="647" y="1102" type="curve" smooth="yes"/>
      <point x="383" y="1102"/>
      <point x="178" y="957"/>
      <point x="141" y="748" type="curve" smooth="yes"/>
    </contour>
    <contour>
      <point x="982" y="-13" type="curve" smooth="yes"/>
      <point x="1049" y="-13"/>
      <point x="1116" y="42"/>
      <point x="1127" y="110" type="curve" smooth="yes"/>
      <point x="1139" y="177"/>
      <point x="1092" y="234"/>
      <point x="1025" y="234" type="curve" smooth="yes"/>
      <point x="957" y="234"/>
      <point x="892" y="177"/>
      <point x="880" y="110" type="curve" smooth="yes"/>
      <point x="869" y="42"/>
      <point x="914" y="-13"/>
    </contour>
    <contour>
      <point x="172" y="1032" type="line"/>
      <point x="604" y="1042" type="line"/>
      <point x="615" y="1104" type="line"/>
      <point x="338" y="1104" type="line"/>
      <point x="383" y="1362" type="line"/>
      <point x="230" y="1362" type="line"/>
    </contour>
    <component base="_smart.hat.left" xOffset="520" yOffset="1310"/>
  </outline>
</glyph>
<glyph name="kxee-ethiopic" format="2">
  <advance width="1250"/>
  <unicode hex="12BC"/>
  <outline>
    <contour>
      <point x="9" y="0" type="line"/>
      <point x="194" y="0" type="line"/>
      <point x="320" y="716" type="line" smooth="yes"/>
      <point x="346" y="862"/>
      <point x="463" y="945"/>
      <point x="625" y="945" type="curve" smooth="yes"/>
      <point x="773" y="945"/>
      <point x="828" y="872"/>
      <point x="801" y="716" type="curve" smooth="yes"/>
      <point x="675" y="0" type="line"/>
      <point x="860" y="0" type="line"/>
      <point x="986" y="715" type="line" smooth="yes"/>
      <point x="1031" y="973"/>
      <point x="876" y="1102"/>
      <point x="647" y="1102" type="curve" smooth="yes"/>
      <point x="383" y="1102"/>
      <point x="178" y="957"/>
      <point x="141" y="748" type="curve" smooth="yes"/>
    </contour>
    <contour>
      <point x="541" y="-435" type="curve" smooth="yes"/>
      <point x="706" y="-435"/>
      <point x="848" y="-316"/>
      <point x="875" y="-159" type="curve" smooth="yes"/>
      <point x="904" y="1"/>
      <point x="801" y="123"/>
      <point x="639" y="123" type="curve" smooth="yes"/>
      <point x="472" y="123"/>
      <point x="324" y="-2"/>
      <point x="296" y="-159" type="curve" smooth="yes"/>
      <point x="269" y="-314"/>
      <point x="370" y="-435"/>
    </contour>
    <contour>
      <point x="591" y="-405" type="curve" smooth="yes"/>
      <point x="493" y="-405"/>
      <point x="403" y="-341"/>
      <point x="426" y="-214" type="curve" smooth="yes"/>
      <point x="444" y="-108"/>
      <point x="549" y="-13"/>
      <point x="665" y="-13" type="curve" smooth="yes"/>
      <point x="775" y="-13"/>
      <point x="838" y="-101"/>
      <point x="824" y="-214" type="curve" smooth="yes"/>
      <point x="811" y="-320"/>
      <point x="692" y="-404"/>
    </contour>
    <contour>
      <point x="172" y="1032" type="line"/>
      <point x="604" y="1042" type="line"/>
      <point x="615" y="1104" type="line"/>
      <point x="338" y="1104" type="line"/>
      <point x="383" y="1362" type="line"/>
      <point x="230" y="1362" type="line"/>
    </contour>
    <component base="_smart.hat.left" xOffset="520" yOffset="1310"/>
  </outline>
</glyph>
<glyph name="kxwa-ethiopic" format="2">
  <advance width="1250"/>
  <unicode hex="12C0"/>
  <outline>
    <contour>
      <point x="9" y="0" type="line"/>
      <point x="194" y="0" type="line"/>
      <point x="320" y="716" type="line" smooth="yes"/>
      <point x="346" y="862"/>
      <point x="463" y="945"/>
      <point x="625" y="945" type="curve" smooth="yes"/>
      <point x="773" y="945"/>
      <point x="828" y="872"/>
      <point x="801" y="716" type="curve" smooth="yes"/>
      <point x="675" y="0" type="line"/>
      <point x="860" y="0" type="line"/>
      <point x="986" y="715" type="line" smooth="yes"/>
      <point x="1031" y="973"/>
      <point x="876" y="1102"/>
      <point x="647" y="1102" type="curve" smooth="yes"/>
      <point x="383" y="1102"/>
      <point x="178" y="957"/>
      <point x="141" y="748" type="curve" smooth="yes"/>
    </contour>
    <contour>
      <point x="172" y="1032" type="line"/>
      <point x="604" y="1042" type="line"/>
      <point x="615" y="1104" type="line"/>
      <point x="338" y="1104" type="line"/>
      <point x="383" y="1362" type="line"/>
      <point x="230" y="1362" type="line"/>
    </contour>
    <contour>
      <point x="23" y="1362" type="line"/>
      <point x="648" y="1362" type="line"/>
      <point x="663" y="1444" type="line"/>
      <point x="38" y="1444" type="line"/>
    </contour>
    <component base="_smart.hwa" xOffset="882" yOffset="-432"/>
  </outline>
</glyph>
<glyph name="za-ethiopic" format="2">
  <advance width="1205"/>
  <unicode hex="12D8"/>
  <outline>
    <contour>
      <point x="9" y="0" type="line"/>
      <point x="194" y="0" type="line"/>
      <point x="286" y="521" type="line"/>
      <point x="721" y="521" type="line"/>
      <point x="629" y="0" type="line"/>
      <point x="814" y="0" type="line"/>
      <point x="1005" y="1082" type="line"/>
      <point x="820" y="1082" type="line"/>
      <point x="748" y="672" type="line"/>
      <point x="313" y="672" type="line"/>
      <point x="385" y="1082" type="line"/>
      <point x="200" y="1082" type="line"/>
    </contour>
  </outline>
</glyph>
<glyph name="zu-ethiopic" format="2">
  <advance width="1205"/>
  <unicode hex="12D9"/>
  <outline>
    <contour>
      <point x="9" y="0" type="line"/>
      <point x="194" y="0" type="line"/>
      <point x="286" y="521" type="line"/>
      <point x="721" y="521" type="line"/>
      <point x="629" y="0" type="line"/>
      <point x="814" y="0" type="line"/>
      <point x="1005" y="1082" type="line"/>
      <point x="820" y="1082" type="line"/>
      <point x="748" y="672" type="line"/>
      <point x="313" y="672" type="line"/>
      <point x="385" y="1082" type="line"/>
      <point x="200" y="1082" type="line"/>
    </contour>
    <contour>
      <point x="1051" y="527" type="curve" smooth="yes"/>
      <point x="1118" y="527"/>
      <point x="1184" y="582"/>
      <point x="1196" y="650" type="curve" smooth="yes"/>
      <point x="1208" y="717"/>
      <point x="1161" y="774"/>
      <point x="1094" y="774" type="curve" smooth="yes"/>
      <point x="1026" y="774"/>
      <point x="961" y="717"/>
      <point x="949" y="650" type="curve" smooth="yes"/>
      <point x="937" y="582"/>
      <point x="983" y="527"/>
    </contour>
  </outline>
</glyph>
<glyph name="zi-ethiopic" format="2">
  <advance width="1205"/>
  <unicode hex="12DA"/>
  <outline>
    <contour>
      <point x="9" y="0" type="line"/>
      <point x="194" y="0" type="line"/>
      <point x="286" y="521" type="line"/>
      <point x="721" y="521" type="line"/>
      <point x="629" y="0" type="line"/>
      <point x="814" y="0" type="line"/>
      <point x="1005" y="1082" type="line"/>
      <point x="820" y="1082" type="line"/>
      <point x="748" y="672" type="line"/>
      <point x="313" y="672" type="line"/>
      <point x="385" y="1082" type="line"/>
      <point x="200" y="1082" type="line"/>
    </contour>
    <contour>
      <point x="939" y="-6" type="curve" smooth="yes"/>
      <point x="1006" y="-6"/>
      <point x="1073" y="49"/>
      <point x="1084" y="117" type="curve" smooth="yes"/>
      <point x="1096" y="184"/>
      <point x="1049" y="241"/>
      <point x="982" y="241" type="curve" smooth="yes"/>
      <point x="914" y="241"/>
      <point x="849" y="184"/>
      <point x="837" y="117" type="curve" smooth="yes"/>
      <point x="826" y="49"/>
      <point x="871" y="-6"/>
    </contour>
  </outline>
</glyph>
<glyph name="zee-ethiopic" format="2">
  <advance width="1205"/>
  <unicode hex="12DC"/>
  <outline>
    <contour>
      <point x="9" y="0" type="line"/>
      <point x="194" y="0" type="line"/>
      <point x="286" y="521" type="line"/>
      <point x="721" y="521" type="line"/>
      <point x="629" y="0" type="line"/>
      <point x="814" y="0" type="line"/>
      <point x="1005" y="1082" type="line"/>
      <point x="820" y="1082" type="line"/>
      <point x="748" y="672" type="line"/>
      <point x="313" y="672" type="line"/>
      <point x="385" y="1082" type="line"/>
      <point x="200" y="1082" type="line"/>
    </contour>
    <contour>
      <point x="496" y="-427" type="curve" smooth="yes"/>
      <point x="661" y="-427"/>
      <point x="803" y="-308"/>
      <point x="830" y="-151" type="curve" smooth="yes"/>
      <point x="859" y="9"/>
      <point x="756" y="131"/>
      <point x="594" y="131" type="curve" smooth="yes"/>
      <point x="427" y="131"/>
      <point x="279" y="6"/>
      <point x="251" y="-151" type="curve" smooth="yes"/>
      <point x="224" y="-306"/>
      <point x="325" y="-427"/>
    </contour>
    <contour>
      <point x="546" y="-397" type="curve" smooth="yes"/>
      <point x="448" y="-397"/>
      <point x="358" y="-333"/>
      <point x="381" y="-206" type="curve" smooth="yes"/>
      <point x="399" y="-100"/>
      <point x="504" y="-5"/>
      <point x="620" y="-5" type="curve" smooth="yes"/>
      <point x="730" y="-5"/>
      <point x="793" y="-93"/>
      <point x="779" y="-206" type="curve" smooth="yes"/>
      <point x="766" y="-312"/>
      <point x="647" y="-396"/>
    </contour>
  </outline>
</glyph>
<glyph name="ze-ethiopic" format="2">
  <advance width="1205"/>
  <unicode hex="12DD"/>
  <outline>
    <contour>
      <point x="9" y="0" type="line"/>
      <point x="194" y="0" type="line"/>
      <point x="286" y="521" type="line"/>
      <point x="721" y="521" type="line"/>
      <point x="629" y="0" type="line"/>
      <point x="814" y="0" type="line"/>
      <point x="1005" y="1082" type="line"/>
      <point x="820" y="1082" type="line"/>
      <point x="748" y="672" type="line"/>
      <point x="313" y="672" type="line"/>
      <point x="385" y="1082" type="line"/>
      <point x="200" y="1082" type="line"/>
    </contour>
    <contour>
      <point x="399" y="1178" type="line"/>
      <point x="258" y="1472" type="line"/>
      <point x="34" y="1472" type="line"/>
      <point x="250" y="1178" type="line"/>
    </contour>
  </outline>
</glyph>
<glyph name="zo-ethiopic" format="2">
  <advance width="1205"/>
  <unicode hex="12DE"/>
  <outline>
    <contour>
      <point x="9" y="0" type="line"/>
      <point x="194" y="0" type="line"/>
      <point x="286" y="521" type="line"/>
      <point x="721" y="521" type="line"/>
      <point x="629" y="0" type="line"/>
      <point x="814" y="0" type="line"/>
      <point x="1005" y="1082" type="line"/>
      <point x="820" y="1082" type="line"/>
      <point x="748" y="672" type="line"/>
      <point x="313" y="672" type="line"/>
      <point x="385" y="1082" type="line"/>
      <point x="200" y="1082" type="line"/>
    </contour>
    <contour>
      <point x="-56" y="-364" type="line"/>
      <point x="129" y="-364" type="line"/>
      <point x="192" y="-10" type="line"/>
      <point x="7" y="-10" type="line"/>
    </contour>
  </outline>
</glyph>
<glyph name="zwa-ethiopic" format="2">
  <advance width="1205"/>
  <unicode hex="12DF"/>
  <outline>
    <contour>
      <point x="9" y="0" type="line"/>
      <point x="194" y="0" type="line"/>
      <point x="286" y="521" type="line"/>
      <point x="721" y="521" type="line"/>
      <point x="629" y="0" type="line"/>
      <point x="814" y="0" type="line"/>
      <point x="1005" y="1082" type="line"/>
      <point x="820" y="1082" type="line"/>
      <point x="748" y="672" type="line"/>
      <point x="313" y="672" type="line"/>
      <point x="385" y="1082" type="line"/>
      <point x="200" y="1082" type="line"/>
    </contour>
    <contour>
      <point x="280" y="-353" type="line"/>
      <point x="770" y="-344" type="line"/>
      <point x="751" y="-461" type="line"/>
      <point x="891" y="-459" type="line"/>
      <point x="920" y="-220" type="line"/>
      <point x="761" y="-223" type="line"/>
      <point x="810" y="-19" type="line"/>
      <point x="625" y="-23" type="line"/>
      <point x="576" y="-226" type="line"/>
      <point x="290" y="-231" type="line"/>
    </contour>
  </outline>
</glyph>
<glyph name="yu-ethiopic" format="2">
  <advance width="1131"/>
  <unicode hex="12E9"/>
  <outline>
    <contour>
      <point x="148" y="0" type="line"/>
      <point x="333" y="0" type="line"/>
      <point x="269" y="488" type="line"/>
      <point x="843" y="488" type="line" smooth="yes"/>
      <point x="894" y="488"/>
      <point x="938" y="519"/>
      <point x="952" y="565" type="curve" smooth="yes"/>
      <point x="1057" y="907"/>
      <point x="943" y="1102"/>
      <point x="662" y="1102" type="curve" smooth="yes"/>
      <point x="490" y="1102"/>
      <point x="315" y="1001"/>
      <point x="204" y="833" type="curve" smooth="yes"/>
      <point x="148" y="748"/>
      <point x="90" y="619"/>
      <point x="100" y="512" type="curve" smooth="yes"/>
    </contour>
    <contour>
      <point x="297" y="630" type="line"/>
      <point x="357" y="836"/>
      <point x="486" y="950"/>
      <point x="635" y="950" type="curve" smooth="yes"/>
      <point x="810" y="950"/>
      <point x="853" y="832"/>
      <point x="798" y="630" type="curve"/>
    </contour>
    <contour>
      <point x="213" y="230" type="line"/>
      <point x="648" y="230" type="line"/>
      <point x="675" y="381" type="line"/>
      <point x="240" y="381" type="line"/>
    </contour>
  </outline>
</glyph>
<glyph name="yi-ethiopic" format="2">
  <advance width="1131"/>
  <unicode hex="12EA"/>
  <outline>
    <contour>
      <point x="148" y="0" type="line"/>
      <point x="333" y="0" type="line"/>
      <point x="269" y="488" type="line"/>
      <point x="843" y="488" type="line" smooth="yes"/>
      <point x="894" y="488"/>
      <point x="938" y="519"/>
      <point x="952" y="565" type="curve" smooth="yes"/>
      <point x="1057" y="907"/>
      <point x="943" y="1102"/>
      <point x="662" y="1102" type="curve" smooth="yes"/>
      <point x="490" y="1102"/>
      <point x="315" y="1001"/>
      <point x="204" y="833" type="curve" smooth="yes"/>
      <point x="148" y="748"/>
      <point x="90" y="619"/>
      <point x="100" y="512" type="curve" smooth="yes"/>
    </contour>
    <contour>
      <point x="297" y="630" type="line"/>
      <point x="357" y="836"/>
      <point x="486" y="950"/>
      <point x="635" y="950" type="curve" smooth="yes"/>
      <point x="810" y="950"/>
      <point x="853" y="832"/>
      <point x="798" y="630" type="curve"/>
    </contour>
    <contour>
      <point x="253" y="246" type="line"/>
      <point x="688" y="246" type="line"/>
      <point x="715" y="397" type="line"/>
      <point x="280" y="397" type="line"/>
    </contour>
    <contour>
      <point x="763" y="117" type="curve" smooth="yes"/>
      <point x="835" y="117"/>
      <point x="881" y="162"/>
      <point x="891" y="222" type="curve" smooth="yes"/>
      <point x="902" y="282"/>
      <point x="872" y="329"/>
      <point x="800" y="329" type="curve"/>
      <point x="728" y="329"/>
      <point x="683" y="282"/>
      <point x="672" y="222" type="curve" smooth="yes"/>
      <point x="662" y="162"/>
      <point x="691" y="117"/>
    </contour>
  </outline>
</glyph>
<glyph name="yaa-ethiopic" format="2">
  <advance width="1131"/>
  <unicode hex="12EB"/>
  <outline>
    <contour>
      <point x="148" y="0" type="line"/>
      <point x="333" y="0" type="line"/>
      <point x="269" y="488" type="line"/>
      <point x="843" y="488" type="line" smooth="yes"/>
      <point x="894" y="488"/>
      <point x="938" y="519"/>
      <point x="952" y="565" type="curve" smooth="yes"/>
      <point x="1057" y="907"/>
      <point x="943" y="1102"/>
      <point x="662" y="1102" type="curve" smooth="yes"/>
      <point x="490" y="1102"/>
      <point x="315" y="1001"/>
      <point x="204" y="833" type="curve" smooth="yes"/>
      <point x="148" y="748"/>
      <point x="90" y="619"/>
      <point x="100" y="512" type="curve" smooth="yes"/>
    </contour>
    <contour>
      <point x="297" y="630" type="line"/>
      <point x="357" y="836"/>
      <point x="486" y="950"/>
      <point x="635" y="950" type="curve" smooth="yes"/>
      <point x="810" y="950"/>
      <point x="853" y="832"/>
      <point x="798" y="630" type="curve"/>
    </contour>
    <contour>
      <point x="-31" y="-360" type="line"/>
      <point x="118" y="-360" type="line"/>
      <point x="438" y="-66" type="line" name="❌"/>
      <point x="214" y="-66" type="line" name="❌"/>
    </contour>
  </outline>
</glyph>
<glyph name="yee-ethiopic" format="2">
  <advance width="1131"/>
  <unicode hex="12EC"/>
  <outline>
    <contour>
      <point x="148" y="0" type="line"/>
      <point x="333" y="0" type="line"/>
      <point x="269" y="488" type="line"/>
      <point x="843" y="488" type="line" smooth="yes"/>
      <point x="894" y="488"/>
      <point x="938" y="519"/>
      <point x="952" y="565" type="curve" smooth="yes"/>
      <point x="1057" y="907"/>
      <point x="943" y="1102"/>
      <point x="662" y="1102" type="curve" smooth="yes"/>
      <point x="490" y="1102"/>
      <point x="315" y="1001"/>
      <point x="204" y="833" type="curve" smooth="yes"/>
      <point x="148" y="748"/>
      <point x="90" y="619"/>
      <point x="100" y="512" type="curve" smooth="yes"/>
    </contour>
    <contour>
      <point x="297" y="630" type="line"/>
      <point x="357" y="836"/>
      <point x="486" y="950"/>
      <point x="635" y="950" type="curve" smooth="yes"/>
      <point x="810" y="950"/>
      <point x="853" y="832"/>
      <point x="798" y="630" type="curve"/>
    </contour>
    <contour>
      <point x="503" y="76" type="curve" smooth="yes"/>
      <point x="624" y="76"/>
      <point x="733" y="164"/>
      <point x="753" y="280" type="curve" smooth="yes"/>
      <point x="774" y="395"/>
      <point x="698" y="488"/>
      <point x="575" y="488" type="curve" smooth="yes"/>
      <point x="452" y="488"/>
      <point x="344" y="395"/>
      <point x="323" y="280" type="curve" smooth="yes"/>
      <point x="303" y="165"/>
      <point x="380" y="76"/>
    </contour>
    <contour>
      <point x="518" y="165" type="curve" smooth="yes"/>
      <point x="453" y="165"/>
      <point x="411" y="217"/>
      <point x="422" y="280" type="curve" smooth="yes"/>
      <point x="434" y="344"/>
      <point x="493" y="398"/>
      <point x="559" y="398" type="curve" smooth="yes"/>
      <point x="636" y="398"/>
      <point x="664" y="340"/>
      <point x="654" y="282" type="curve" smooth="yes"/>
      <point x="644" y="224"/>
      <point x="595" y="165"/>
    </contour>
  </outline>
</glyph>
<glyph name="ye-ethiopic" format="2">
  <advance width="1131"/>
  <unicode hex="12ED"/>
  <outline>
    <contour>
      <point x="148" y="0" type="line"/>
      <point x="333" y="0" type="line"/>
      <point x="269" y="488" type="line"/>
      <point x="843" y="488" type="line" smooth="yes"/>
      <point x="894" y="488"/>
      <point x="938" y="519"/>
      <point x="952" y="565" type="curve" smooth="yes"/>
      <point x="1057" y="907"/>
      <point x="943" y="1102"/>
      <point x="662" y="1102" type="curve" smooth="yes"/>
      <point x="490" y="1102"/>
      <point x="315" y="1001"/>
      <point x="204" y="833" type="curve" smooth="yes"/>
      <point x="148" y="748"/>
      <point x="90" y="619"/>
      <point x="100" y="512" type="curve" smooth="yes"/>
    </contour>
    <contour>
      <point x="297" y="630" type="line"/>
      <point x="357" y="836"/>
      <point x="486" y="950"/>
      <point x="635" y="950" type="curve" smooth="yes"/>
      <point x="810" y="950"/>
      <point x="853" y="832"/>
      <point x="798" y="630" type="curve"/>
    </contour>
    <contour>
      <point x="-180" y="-236" type="curve"/>
      <point x="-57" y="-221" type="line"/>
      <point x="-53" y="-155"/>
      <point x="-7" y="-102"/>
      <point x="48" y="-95" type="curve" smooth="yes"/>
      <point x="174" y="-80"/>
      <point x="442" y="-151"/>
      <point x="588" y="-133" type="curve" smooth="yes"/>
      <point x="720" y="-117"/>
      <point x="793" y="101"/>
      <point x="801" y="247" type="curve"/>
      <point x="679" y="244" type="line"/>
      <point x="675" y="184"/>
      <point x="653" y="42"/>
      <point x="587" y="8" type="curve" smooth="yes"/>
      <point x="486" y="-44"/>
      <point x="165" y="62"/>
      <point x="46" y="47" type="curve" smooth="yes"/>
      <point x="-77" y="32"/>
      <point x="-172" y="-84"/>
    </contour>
  </outline>
</glyph>
<glyph name="yo-ethiopic" format="2">
  <advance width="1131"/>
  <unicode hex="12EE"/>
  <outline>
    <contour>
      <point x="148" y="0" type="line"/>
      <point x="333" y="0" type="line"/>
      <point x="269" y="488" type="line"/>
      <point x="843" y="488" type="line" smooth="yes"/>
      <point x="894" y="488"/>
      <point x="938" y="519"/>
      <point x="952" y="565" type="curve" smooth="yes"/>
      <point x="1057" y="907"/>
      <point x="943" y="1102"/>
      <point x="662" y="1102" type="curve" smooth="yes"/>
      <point x="490" y="1102"/>
      <point x="315" y="1001"/>
      <point x="204" y="833" type="curve" smooth="yes"/>
      <point x="148" y="748"/>
      <point x="90" y="619"/>
      <point x="100" y="512" type="curve" smooth="yes"/>
    </contour>
    <contour>
      <point x="297" y="630" type="line"/>
      <point x="357" y="836"/>
      <point x="486" y="950"/>
      <point x="635" y="950" type="curve" smooth="yes"/>
      <point x="810" y="950"/>
      <point x="853" y="832"/>
      <point x="798" y="630" type="curve"/>
    </contour>
    <contour>
      <point x="1087" y="651" type="curve" smooth="yes"/>
      <point x="1159" y="651"/>
      <point x="1205" y="696"/>
      <point x="1216" y="756" type="curve" smooth="yes"/>
      <point x="1227" y="816"/>
      <point x="1197" y="863"/>
      <point x="1125" y="863" type="curve" smooth="yes"/>
      <point x="1053" y="863"/>
      <point x="1008" y="816"/>
      <point x="997" y="756" type="curve" smooth="yes"/>
      <point x="986" y="696"/>
      <point x="1015" y="651"/>
    </contour>
  </outline>
</glyph>
<glyph name="go-ethiopic" format="2">
  <advance width="918"/>
  <unicode hex="130E"/>
  <outline>
    <contour>
      <point x="401" y="0" type="line"/>
      <point x="587" y="0" type="line"/>
      <point x="686" y="558" type="line" smooth="yes"/>
      <point x="746" y="895"/>
      <point x="646" y="1083"/>
      <point x="400" y="1102" type="curve" smooth="yes"/>
      <point x="295" y="1110"/>
      <point x="158" y="1050"/>
      <point x="87" y="1008" type="curve"/>
      <point x="244" y="944" type="line"/>
      <point x="267" y="955"/>
      <point x="303" y="966"/>
      <point x="375" y="961" type="curve" smooth="yes"/>
      <point x="545" y="949"/>
      <point x="545" y="812"/>
      <point x="501" y="565" type="curve" smooth="yes"/>
    </contour>
    <contour>
      <point x="308" y="1082" type="line"/>
      <point x="477" y="1082" type="line"/>
      <point x="541" y="1446" type="line"/>
      <point x="372" y="1446" type="line"/>
    </contour>
  </outline>
</glyph>
<glyph name="gge-ethiopic" format="2">
  <advance width="918"/>
  <unicode hex="131D"/>
  <outline>
    <contour>
      <point x="401" y="0" type="line"/>
      <point x="587" y="0" type="line"/>
      <point x="686" y="558" type="line" smooth="yes"/>
      <point x="746" y="895"/>
      <point x="646" y="1083"/>
      <point x="400" y="1102" type="curve" smooth="yes"/>
      <point x="295" y="1110"/>
      <point x="158" y="1050"/>
      <point x="87" y="1008" type="curve"/>
      <point x="244" y="944" type="line"/>
      <point x="267" y="955"/>
      <point x="303" y="966"/>
      <point x="375" y="961" type="curve" smooth="yes"/>
      <point x="545" y="949"/>
      <point x="545" y="812"/>
      <point x="501" y="565" type="curve" smooth="yes"/>
    </contour>
    <contour>
      <point x="87" y="1407" type="line"/>
      <point x="712" y="1407" type="line"/>
      <point x="727" y="1489" type="line"/>
      <point x="102" y="1489" type="line"/>
    </contour>
    <contour>
      <point x="84" y="474" type="curve" smooth="yes"/>
      <point x="251" y="474"/>
      <point x="377" y="599"/>
      <point x="377" y="756" type="curve" smooth="yes"/>
      <point x="377" y="911"/>
      <point x="255" y="1032"/>
      <point x="84" y="1032" type="curve" smooth="yes"/>
      <point x="-81" y="1032"/>
      <point x="-202" y="913"/>
      <point x="-202" y="756" type="curve" smooth="yes"/>
      <point x="-202" y="596"/>
      <point x="-78" y="474"/>
    </contour>
    <contour>
      <point x="34" y="610" type="curve" smooth="yes"/>
      <point x="-76" y="610"/>
      <point x="-160" y="699"/>
      <point x="-160" y="811" type="curve" smooth="yes"/>
      <point x="-160" y="937"/>
      <point x="-62" y="1001"/>
      <point x="39" y="1002" type="curve" smooth="yes"/>
      <point x="137" y="1002"/>
      <point x="238" y="938"/>
      <point x="238" y="811" type="curve" smooth="yes"/>
      <point x="238" y="705"/>
      <point x="150" y="610"/>
    </contour>
    <component base="_smart.neck" xOffset="584" yOffset="1106"/>
  </outline>
</glyph>
<glyph name="ggo-ethiopic" format="2">
  <advance width="918"/>
  <unicode hex="131E"/>
  <outline>
    <contour>
      <point x="401" y="0" type="line"/>
      <point x="587" y="0" type="line"/>
      <point x="686" y="558" type="line" smooth="yes"/>
      <point x="746" y="895"/>
      <point x="646" y="1083"/>
      <point x="400" y="1102" type="curve" smooth="yes"/>
      <point x="295" y="1110"/>
      <point x="158" y="1050"/>
      <point x="87" y="1008" type="curve"/>
      <point x="244" y="944" type="line"/>
      <point x="267" y="955"/>
      <point x="303" y="966"/>
      <point x="375" y="961" type="curve" smooth="yes"/>
      <point x="545" y="949"/>
      <point x="545" y="812"/>
      <point x="501" y="565" type="curve" smooth="yes"/>
    </contour>
    <contour>
      <point x="87" y="1407" type="line"/>
      <point x="712" y="1407" type="line"/>
      <point x="727" y="1489" type="line"/>
      <point x="102" y="1489" type="line"/>
    </contour>
    <contour>
      <point x="367" y="1089" type="curve" smooth="yes"/>
      <point x="488" y="1089"/>
      <point x="597" y="1177"/>
      <point x="617" y="1293" type="curve" smooth="yes"/>
      <point x="638" y="1408"/>
      <point x="562" y="1501"/>
      <point x="439" y="1501" type="curve" smooth="yes"/>
      <point x="316" y="1501"/>
      <point x="208" y="1408"/>
      <point x="187" y="1293" type="curve" smooth="yes"/>
      <point x="167" y="1178"/>
      <point x="244" y="1089"/>
    </contour>
    <contour>
      <point x="382" y="1178" type="curve" smooth="yes"/>
      <point x="317" y="1178"/>
      <point x="275" y="1230"/>
      <point x="286" y="1293" type="curve" smooth="yes"/>
      <point x="298" y="1357"/>
      <point x="357" y="1411"/>
      <point x="423" y="1411" type="curve" smooth="yes"/>
      <point x="500" y="1411"/>
      <point x="528" y="1353"/>
      <point x="518" y="1295" type="curve" smooth="yes"/>
      <point x="508" y="1237"/>
      <point x="459" y="1178"/>
    </contour>
  </outline>
</glyph>
<glyph name="ggwaa-ethiopic" format="2">
  <advance width="918"/>
  <unicode hex="131F"/>
  <outline>
    <contour>
      <point x="401" y="0" type="line"/>
      <point x="587" y="0" type="line"/>
      <point x="686" y="558" type="line" smooth="yes"/>
      <point x="746" y="895"/>
      <point x="646" y="1083"/>
      <point x="400" y="1102" type="curve" smooth="yes"/>
      <point x="295" y="1110"/>
      <point x="158" y="1050"/>
      <point x="87" y="1008" type="curve"/>
      <point x="244" y="944" type="line"/>
      <point x="267" y="955"/>
      <point x="303" y="966"/>
      <point x="375" y="961" type="curve" smooth="yes"/>
      <point x="545" y="949"/>
      <point x="545" y="812"/>
      <point x="501" y="565" type="curve" smooth="yes"/>
    </contour>
    <contour>
      <point x="308" y="1082" type="line"/>
      <point x="477" y="1082" type="line"/>
      <point x="541" y="1446" type="line"/>
      <point x="372" y="1446" type="line"/>
    </contour>
    <contour>
      <point x="87" y="1407" type="line"/>
      <point x="712" y="1407" type="line"/>
      <point x="727" y="1489" type="line"/>
      <point x="102" y="1489" type="line"/>
    </contour>
    <component base="_smart.xwaa" xOffset="84" yOffset="-18"/>
  </outline>
</glyph>
<glyph name="thu-ethiopic" format="2">
  <advance width="1895"/>
  <unicode hex="1321"/>
  <outline>
    <contour>
      <point x="8" y="0" type="line"/>
      <point x="193" y="0" type="line"/>
      <point x="318" y="709" type="line" smooth="yes"/>
      <point x="350" y="893"/>
      <point x="472" y="945"/>
      <point x="589" y="945" type="curve" smooth="yes"/>
      <point x="743" y="945"/>
      <point x="806" y="866"/>
      <point x="778" y="709" type="curve" smooth="yes"/>
      <point x="653" y="0" type="line"/>
      <point x="839" y="0" type="line"/>
      <point x="966" y="718" type="line" smooth="yes"/>
      <point x="991" y="858"/>
      <point x="1119" y="945"/>
      <point x="1256" y="945" type="curve" smooth="yes"/>
      <point x="1423" y="945"/>
      <point x="1473" y="869"/>
      <point x="1446" y="714" type="curve" smooth="yes"/>
      <point x="1320" y="0" type="line"/>
      <point x="1505" y="0" type="line"/>
      <point x="1633" y="725" type="line" smooth="yes"/>
      <point x="1677" y="976"/>
      <point x="1575" y="1102"/>
      <point x="1338" y="1102" type="curve" smooth="yes"/>
      <point x="1181" y="1102"/>
      <point x="1015" y="1010"/>
      <point x="918" y="927" type="curve"/>
      <point x="854" y="1010"/>
      <point x="810" y="1101"/>
      <point x="594" y="1102" type="curve" smooth="yes"/>
      <point x="417" y="1103"/>
      <point x="179" y="968"/>
      <point x="133" y="709" type="curve" smooth="yes"/>
    </contour>
    <contour>
      <point x="1722" y="509" type="curve" smooth="yes"/>
      <point x="1789" y="509"/>
      <point x="1855" y="564"/>
      <point x="1867" y="632" type="curve" smooth="yes"/>
      <point x="1879" y="699"/>
      <point x="1832" y="756"/>
      <point x="1765" y="756" type="curve" smooth="yes"/>
      <point x="1697" y="756"/>
      <point x="1632" y="699"/>
      <point x="1620" y="632" type="curve" smooth="yes"/>
      <point x="1608" y="564"/>
      <point x="1654" y="509"/>
    </contour>
  </outline>
</glyph>
<glyph name="thi-ethiopic" format="2">
  <advance width="1895"/>
  <unicode hex="1322"/>
  <outline>
    <contour>
      <point x="8" y="0" type="line"/>
      <point x="193" y="0" type="line"/>
      <point x="318" y="709" type="line" smooth="yes"/>
      <point x="350" y="893"/>
      <point x="472" y="945"/>
      <point x="589" y="945" type="curve" smooth="yes"/>
      <point x="743" y="945"/>
      <point x="806" y="866"/>
      <point x="778" y="709" type="curve" smooth="yes"/>
      <point x="653" y="0" type="line"/>
      <point x="839" y="0" type="line"/>
      <point x="966" y="718" type="line" smooth="yes"/>
      <point x="991" y="858"/>
      <point x="1119" y="945"/>
      <point x="1256" y="945" type="curve" smooth="yes"/>
      <point x="1423" y="945"/>
      <point x="1473" y="869"/>
      <point x="1446" y="714" type="curve" smooth="yes"/>
      <point x="1320" y="0" type="line"/>
      <point x="1505" y="0" type="line"/>
      <point x="1633" y="725" type="line" smooth="yes"/>
      <point x="1677" y="976"/>
      <point x="1575" y="1102"/>
      <point x="1338" y="1102" type="curve" smooth="yes"/>
      <point x="1181" y="1102"/>
      <point x="1015" y="1010"/>
      <point x="918" y="927" type="curve"/>
      <point x="854" y="1010"/>
      <point x="810" y="1101"/>
      <point x="594" y="1102" type="curve" smooth="yes"/>
      <point x="417" y="1103"/>
      <point x="179" y="968"/>
      <point x="133" y="709" type="curve" smooth="yes"/>
    </contour>
    <contour>
      <point x="1627" y="-13" type="curve" smooth="yes"/>
      <point x="1694" y="-13"/>
      <point x="1761" y="42"/>
      <point x="1772" y="110" type="curve" smooth="yes"/>
      <point x="1784" y="177"/>
      <point x="1737" y="234"/>
      <point x="1670" y="234" type="curve" smooth="yes"/>
      <point x="1602" y="234"/>
      <point x="1537" y="177"/>
      <point x="1525" y="110" type="curve" smooth="yes"/>
      <point x="1514" y="42"/>
      <point x="1559" y="-13"/>
    </contour>
  </outline>
</glyph>
<glyph name="thee-ethiopic" format="2">
  <advance width="1895"/>
  <unicode hex="1324"/>
  <outline>
    <contour>
      <point x="8" y="0" type="line"/>
      <point x="193" y="0" type="line"/>
      <point x="318" y="709" type="line" smooth="yes"/>
      <point x="350" y="893"/>
      <point x="472" y="945"/>
      <point x="589" y="945" type="curve" smooth="yes"/>
      <point x="743" y="945"/>
      <point x="806" y="866"/>
      <point x="778" y="709" type="curve" smooth="yes"/>
      <point x="653" y="0" type="line"/>
      <point x="839" y="0" type="line"/>
      <point x="966" y="718" type="line" smooth="yes"/>
      <point x="991" y="858"/>
      <point x="1119" y="945"/>
      <point x="1256" y="945" type="curve" smooth="yes"/>
      <point x="1423" y="945"/>
      <point x="1473" y="869"/>
      <point x="1446" y="714" type="curve" smooth="yes"/>
      <point x="1320" y="0" type="line"/>
      <point x="1505" y="0" type="line"/>
      <point x="1633" y="725" type="line" smooth="yes"/>
      <point x="1677" y="976"/>
      <point x="1575" y="1102"/>
      <point x="1338" y="1102" type="curve" smooth="yes"/>
      <point x="1181" y="1102"/>
      <point x="1015" y="1010"/>
      <point x="918" y="927" type="curve"/>
      <point x="854" y="1010"/>
      <point x="810" y="1101"/>
      <point x="594" y="1102" type="curve" smooth="yes"/>
      <point x="417" y="1103"/>
      <point x="179" y="968"/>
      <point x="133" y="709" type="curve" smooth="yes"/>
    </contour>
    <contour>
      <point x="1194" y="-567" type="curve" smooth="yes"/>
      <point x="1359" y="-567"/>
      <point x="1501" y="-448"/>
      <point x="1528" y="-291" type="curve" smooth="yes"/>
      <point x="1557" y="-131"/>
      <point x="1454" y="-9"/>
      <point x="1292" y="-9" type="curve" smooth="yes"/>
      <point x="1125" y="-9"/>
      <point x="977" y="-134"/>
      <point x="949" y="-291" type="curve" smooth="yes"/>
      <point x="922" y="-446"/>
      <point x="1023" y="-567"/>
    </contour>
    <contour>
      <point x="1244" y="-537" type="curve" smooth="yes"/>
      <point x="1146" y="-537"/>
      <point x="1056" y="-473"/>
      <point x="1079" y="-346" type="curve" smooth="yes"/>
      <point x="1097" y="-240"/>
      <point x="1202" y="-145"/>
      <point x="1318" y="-145" type="curve" smooth="yes"/>
      <point x="1428" y="-145"/>
      <point x="1491" y="-233"/>
      <point x="1477" y="-346" type="curve" smooth="yes"/>
      <point x="1464" y="-452"/>
      <point x="1345" y="-536"/>
    </contour>
  </outline>
</glyph>
<glyph name="the-ethiopic" format="2">
  <advance width="1895"/>
  <unicode hex="1325"/>
  <outline>
    <contour>
      <point x="8" y="0" type="line"/>
      <point x="193" y="0" type="line"/>
      <point x="318" y="709" type="line" smooth="yes"/>
      <point x="350" y="893"/>
      <point x="472" y="945"/>
      <point x="589" y="945" type="curve" smooth="yes"/>
      <point x="743" y="945"/>
      <point x="806" y="866"/>
      <point x="778" y="709" type="curve" smooth="yes"/>
      <point x="653" y="0" type="line"/>
      <point x="839" y="0" type="line"/>
      <point x="966" y="718" type="line" smooth="yes"/>
      <point x="991" y="858"/>
      <point x="1119" y="945"/>
      <point x="1256" y="945" type="curve" smooth="yes"/>
      <point x="1423" y="945"/>
      <point x="1473" y="869"/>
      <point x="1446" y="714" type="curve" smooth="yes"/>
      <point x="1320" y="0" type="line"/>
      <point x="1505" y="0" type="line"/>
      <point x="1633" y="725" type="line" smooth="yes"/>
      <point x="1677" y="976"/>
      <point x="1575" y="1102"/>
      <point x="1338" y="1102" type="curve" smooth="yes"/>
      <point x="1181" y="1102"/>
      <point x="1015" y="1010"/>
      <point x="918" y="927" type="curve"/>
      <point x="854" y="1010"/>
      <point x="810" y="1101"/>
      <point x="594" y="1102" type="curve" smooth="yes"/>
      <point x="417" y="1103"/>
      <point x="179" y="968"/>
      <point x="133" y="709" type="curve" smooth="yes"/>
    </contour>
    <contour>
      <point x="558" y="-297" type="line"/>
      <point x="707" y="-297" type="line"/>
      <point x="1027" y="-3" type="line" name="❌"/>
      <point x="803" y="-3" type="line" name="❌"/>
    </contour>
  </outline>
</glyph>
<glyph name="thwa-ethiopic" format="2">
  <advance width="1895"/>
  <unicode hex="1327"/>
  <outline>
    <contour>
      <point x="8" y="0" type="line"/>
      <point x="193" y="0" type="line"/>
      <point x="318" y="709" type="line" smooth="yes"/>
      <point x="350" y="893"/>
      <point x="472" y="945"/>
      <point x="589" y="945" type="curve" smooth="yes"/>
      <point x="743" y="945"/>
      <point x="806" y="866"/>
      <point x="778" y="709" type="curve" smooth="yes"/>
      <point x="653" y="0" type="line"/>
      <point x="839" y="0" type="line"/>
      <point x="966" y="718" type="line" smooth="yes"/>
      <point x="991" y="858"/>
      <point x="1119" y="945"/>
      <point x="1256" y="945" type="curve" smooth="yes"/>
      <point x="1423" y="945"/>
      <point x="1473" y="869"/>
      <point x="1446" y="714" type="curve" smooth="yes"/>
      <point x="1320" y="0" type="line"/>
      <point x="1505" y="0" type="line"/>
      <point x="1633" y="725" type="line" smooth="yes"/>
      <point x="1677" y="976"/>
      <point x="1575" y="1102"/>
      <point x="1338" y="1102" type="curve" smooth="yes"/>
      <point x="1181" y="1102"/>
      <point x="1015" y="1010"/>
      <point x="918" y="927" type="curve"/>
      <point x="854" y="1010"/>
      <point x="810" y="1101"/>
      <point x="594" y="1102" type="curve" smooth="yes"/>
      <point x="417" y="1103"/>
      <point x="179" y="968"/>
      <point x="133" y="709" type="curve" smooth="yes"/>
    </contour>
    <contour>
      <point x="979" y="-343" type="line"/>
      <point x="1469" y="-334" type="line"/>
      <point x="1450" y="-451" type="line"/>
      <point x="1590" y="-449" type="line"/>
      <point x="1619" y="-210" type="line"/>
      <point x="1460" y="-213" type="line"/>
      <point x="1509" y="-9" type="line"/>
      <point x="1324" y="-13" type="line"/>
      <point x="1275" y="-216" type="line"/>
      <point x="989" y="-221" type="line"/>
    </contour>
  </outline>
</glyph>
<glyph name="chee-ethiopic" format="2">
  <advance width="1895"/>
  <unicode hex="132C"/>
  <outline>
    <contour>
      <point x="8" y="0" type="line"/>
      <point x="193" y="0" type="line"/>
      <point x="318" y="709" type="line" smooth="yes"/>
      <point x="350" y="893"/>
      <point x="472" y="945"/>
      <point x="589" y="945" type="curve" smooth="yes"/>
      <point x="743" y="945"/>
      <point x="806" y="866"/>
      <point x="778" y="709" type="curve" smooth="yes"/>
      <point x="653" y="0" type="line"/>
      <point x="839" y="0" type="line"/>
      <point x="966" y="718" type="line" smooth="yes"/>
      <point x="991" y="858"/>
      <point x="1119" y="945"/>
      <point x="1256" y="945" type="curve" smooth="yes"/>
      <point x="1423" y="945"/>
      <point x="1473" y="869"/>
      <point x="1446" y="714" type="curve" smooth="yes"/>
      <point x="1320" y="0" type="line"/>
      <point x="1505" y="0" type="line"/>
      <point x="1633" y="725" type="line" smooth="yes"/>
      <point x="1677" y="976"/>
      <point x="1575" y="1102"/>
      <point x="1338" y="1102" type="curve" smooth="yes"/>
      <point x="1181" y="1102"/>
      <point x="1015" y="1010"/>
      <point x="918" y="927" type="curve"/>
      <point x="854" y="1010"/>
      <point x="810" y="1101"/>
      <point x="594" y="1102" type="curve" smooth="yes"/>
      <point x="417" y="1103"/>
      <point x="179" y="968"/>
      <point x="133" y="709" type="curve" smooth="yes"/>
    </contour>
    <contour>
      <point x="1194" y="-567" type="curve" smooth="yes"/>
      <point x="1359" y="-567"/>
      <point x="1501" y="-448"/>
      <point x="1528" y="-291" type="curve" smooth="yes"/>
      <point x="1557" y="-131"/>
      <point x="1454" y="-9"/>
      <point x="1292" y="-9" type="curve" smooth="yes"/>
      <point x="1125" y="-9"/>
      <point x="977" y="-134"/>
      <point x="949" y="-291" type="curve" smooth="yes"/>
      <point x="922" y="-446"/>
      <point x="1023" y="-567"/>
    </contour>
    <contour>
      <point x="1244" y="-537" type="curve" smooth="yes"/>
      <point x="1146" y="-537"/>
      <point x="1056" y="-473"/>
      <point x="1079" y="-346" type="curve" smooth="yes"/>
      <point x="1097" y="-240"/>
      <point x="1202" y="-145"/>
      <point x="1318" y="-145" type="curve" smooth="yes"/>
      <point x="1428" y="-145"/>
      <point x="1491" y="-233"/>
      <point x="1477" y="-346" type="curve" smooth="yes"/>
      <point x="1464" y="-452"/>
      <point x="1345" y="-536"/>
    </contour>
    <contour>
      <point x="190" y="-46"/>
      <point x="409" y="-44"/>
      <point x="435" y="97" type="curve" smooth="yes"/>
      <point x="462" y="242"/>
      <point x="243" y="242"/>
      <point x="216" y="97" type="curve" smooth="yes"/>
    </contour>
    <contour>
      <point x="1085" y="-55"/>
      <point x="1306" y="-49"/>
      <point x="1331" y="90" type="curve" smooth="yes"/>
      <point x="1355" y="233"/>
      <point x="1136" y="233"/>
      <point x="1112" y="90" type="curve" smooth="yes"/>
    </contour>
  </outline>
</glyph>
<glyph name="cho-ethiopic" format="2">
  <advance width="1895"/>
  <unicode hex="132E"/>
  <outline>
    <contour>
      <point x="8" y="0" type="line"/>
      <point x="193" y="0" type="line"/>
      <point x="318" y="709" type="line" smooth="yes"/>
      <point x="350" y="893"/>
      <point x="472" y="945"/>
      <point x="589" y="945" type="curve" smooth="yes"/>
      <point x="743" y="945"/>
      <point x="806" y="866"/>
      <point x="778" y="709" type="curve" smooth="yes"/>
      <point x="653" y="0" type="line"/>
      <point x="839" y="0" type="line"/>
      <point x="966" y="718" type="line" smooth="yes"/>
      <point x="991" y="858"/>
      <point x="1119" y="945"/>
      <point x="1256" y="945" type="curve" smooth="yes"/>
      <point x="1423" y="945"/>
      <point x="1473" y="869"/>
      <point x="1446" y="714" type="curve" smooth="yes"/>
      <point x="1320" y="0" type="line"/>
      <point x="1505" y="0" type="line"/>
      <point x="1633" y="725" type="line" smooth="yes"/>
      <point x="1677" y="976"/>
      <point x="1575" y="1102"/>
      <point x="1338" y="1102" type="curve" smooth="yes"/>
      <point x="1181" y="1102"/>
      <point x="1015" y="1010"/>
      <point x="918" y="927" type="curve"/>
      <point x="854" y="1010"/>
      <point x="810" y="1101"/>
      <point x="594" y="1102" type="curve" smooth="yes"/>
      <point x="417" y="1103"/>
      <point x="179" y="968"/>
      <point x="133" y="709" type="curve" smooth="yes"/>
    </contour>
    <contour>
      <point x="-55" y="-367" type="line"/>
      <point x="130" y="-367" type="line"/>
      <point x="193" y="-13" type="line"/>
      <point x="8" y="-13" type="line"/>
    </contour>
    <contour>
      <point x="190" y="-46"/>
      <point x="409" y="-44"/>
      <point x="435" y="97" type="curve" smooth="yes"/>
      <point x="462" y="242"/>
      <point x="243" y="242"/>
      <point x="216" y="97" type="curve" smooth="yes"/>
    </contour>
    <contour>
      <point x="1085" y="-55"/>
      <point x="1306" y="-49"/>
      <point x="1331" y="90" type="curve" smooth="yes"/>
      <point x="1355" y="233"/>
      <point x="1136" y="233"/>
      <point x="1112" y="90" type="curve" smooth="yes"/>
    </contour>
  </outline>
</glyph>
<glyph name="phee-ethiopic" format="2">
  <advance width="1148"/>
  <unicode hex="1334"/>
  <outline>
    <contour>
      <point x="-35" y="0" type="line"/>
      <point x="150" y="0" type="line"/>
      <point x="201" y="290" type="line" smooth="yes"/>
      <point x="218" y="385"/>
      <point x="295" y="508"/>
      <point x="465" y="508" type="curve" smooth="yes"/>
      <point x="641" y="508"/>
      <point x="679" y="384"/>
      <point x="662" y="287" type="curve" smooth="yes"/>
      <point x="611" y="0" type="line"/>
      <point x="796" y="0" type="line"/>
      <point x="849" y="300" type="line" smooth="yes"/>
      <point x="870" y="416"/>
      <point x="831" y="494"/>
      <point x="726" y="551" type="curve"/>
      <point x="845" y="608"/>
      <point x="909" y="683"/>
      <point x="927" y="788" type="curve" smooth="yes"/>
      <point x="958" y="965"/>
      <point x="816" y="1105"/>
      <point x="583" y="1105" type="curve" smooth="yes"/>
      <point x="378" y="1105"/>
      <point x="150" y="990"/>
      <point x="114" y="785" type="curve" smooth="yes"/>
      <point x="94" y="676"/>
      <point x="137" y="605"/>
      <point x="226" y="551" type="curve"/>
      <point x="105" y="494"/>
      <point x="39" y="417"/>
      <point x="19" y="303" type="curve" smooth="yes"/>
    </contour>
    <contour>
      <point x="487" y="632" type="curve" smooth="yes"/>
      <point x="353" y="632"/>
      <point x="283" y="693"/>
      <point x="297" y="772" type="curve" smooth="yes"/>
      <point x="315" y="872"/>
      <point x="429" y="950"/>
      <point x="543" y="950" type="curve" smooth="yes"/>
      <point x="670" y="950"/>
      <point x="756" y="870"/>
      <point x="739" y="774" type="curve" smooth="yes"/>
      <point x="725" y="698"/>
      <point x="649" y="632"/>
    </contour>
    <contour>
      <point x="485" y="-445" type="curve" smooth="yes"/>
      <point x="650" y="-445"/>
      <point x="792" y="-326"/>
      <point x="819" y="-169" type="curve" smooth="yes"/>
      <point x="848" y="-9"/>
      <point x="745" y="113"/>
      <point x="583" y="113" type="curve" smooth="yes"/>
      <point x="416" y="113"/>
      <point x="268" y="-12"/>
      <point x="240" y="-169" type="curve" smooth="yes"/>
      <point x="213" y="-324"/>
      <point x="314" y="-445"/>
    </contour>
    <contour>
      <point x="535" y="-415" type="curve" smooth="yes"/>
      <point x="437" y="-415"/>
      <point x="347" y="-351"/>
      <point x="370" y="-224" type="curve" smooth="yes"/>
      <point x="388" y="-118"/>
      <point x="493" y="-23"/>
      <point x="609" y="-23" type="curve" smooth="yes"/>
      <point x="719" y="-23"/>
      <point x="782" y="-111"/>
      <point x="768" y="-224" type="curve" smooth="yes"/>
      <point x="755" y="-330"/>
      <point x="636" y="-414"/>
    </contour>
    <contour>
      <point x="501" y="1115" type="line"/>
      <point x="670" y="1115" type="line"/>
      <point x="734" y="1479" type="line"/>
      <point x="565" y="1479" type="line"/>
    </contour>
  </outline>
</glyph>
<glyph name="pho-ethiopic" format="2">
  <advance width="1148"/>
  <unicode hex="1336"/>
  <outline>
    <contour>
      <point x="-35" y="0" type="line"/>
      <point x="150" y="0" type="line"/>
      <point x="201" y="290" type="line" smooth="yes"/>
      <point x="218" y="385"/>
      <point x="295" y="508"/>
      <point x="465" y="508" type="curve" smooth="yes"/>
      <point x="641" y="508"/>
      <point x="679" y="384"/>
      <point x="662" y="287" type="curve" smooth="yes"/>
      <point x="611" y="0" type="line"/>
      <point x="796" y="0" type="line"/>
      <point x="849" y="300" type="line" smooth="yes"/>
      <point x="870" y="416"/>
      <point x="831" y="494"/>
      <point x="726" y="551" type="curve"/>
      <point x="845" y="608"/>
      <point x="909" y="683"/>
      <point x="927" y="788" type="curve" smooth="yes"/>
      <point x="958" y="965"/>
      <point x="816" y="1105"/>
      <point x="583" y="1105" type="curve" smooth="yes"/>
      <point x="378" y="1105"/>
      <point x="150" y="990"/>
      <point x="114" y="785" type="curve" smooth="yes"/>
      <point x="94" y="676"/>
      <point x="137" y="605"/>
      <point x="226" y="551" type="curve"/>
      <point x="105" y="494"/>
      <point x="39" y="417"/>
      <point x="19" y="303" type="curve" smooth="yes"/>
    </contour>
    <contour>
      <point x="487" y="632" type="curve" smooth="yes"/>
      <point x="353" y="632"/>
      <point x="283" y="693"/>
      <point x="297" y="772" type="curve" smooth="yes"/>
      <point x="315" y="872"/>
      <point x="429" y="950"/>
      <point x="543" y="950" type="curve" smooth="yes"/>
      <point x="670" y="950"/>
      <point x="756" y="870"/>
      <point x="739" y="774" type="curve" smooth="yes"/>
      <point x="725" y="698"/>
      <point x="649" y="632"/>
    </contour>
    <contour>
      <point x="-97" y="-364" type="line"/>
      <point x="88" y="-364" type="line"/>
      <point x="151" y="-10" type="line"/>
      <point x="-34" y="-10" type="line"/>
    </contour>
    <contour>
      <point x="501" y="1115" type="line"/>
      <point x="670" y="1115" type="line"/>
      <point x="734" y="1479" type="line"/>
      <point x="565" y="1479" type="line"/>
    </contour>
  </outline>
</glyph>
<glyph name="tzee-ethiopic" format="2">
  <advance width="1289"/>
  <unicode hex="1344"/>
  <outline>
    <contour>
      <point x="450" y="-20" type="curve" smooth="yes"/>
      <point x="644" y="-20"/>
      <point x="818" y="78"/>
      <point x="928" y="246" type="curve" smooth="yes"/>
      <point x="983" y="329"/>
      <point x="1014" y="425"/>
      <point x="1038" y="529" type="curve" smooth="yes"/>
      <point x="1041" y="542" type="line" smooth="yes"/>
      <point x="1118" y="877"/>
      <point x="940" y="1102"/>
      <point x="646" y="1102" type="curve" smooth="yes"/>
      <point x="455" y="1102"/>
      <point x="283" y="1006"/>
      <point x="170" y="837" type="curve" smooth="yes"/>
      <point x="114" y="752"/>
      <point x="73" y="657"/>
      <point x="57" y="551" type="curve" smooth="yes"/>
      <point x="55" y="538" type="line" smooth="yes"/>
      <point x="3" y="201"/>
      <point x="156" y="-20"/>
    </contour>
    <contour>
      <point x="476" y="131" type="curve" smooth="yes"/>
      <point x="290" y="131"/>
      <point x="197" y="289"/>
      <point x="239" y="529" type="curve" smooth="yes"/>
      <point x="287" y="800"/>
      <point x="436" y="950"/>
      <point x="619" y="950" type="curve" smooth="yes"/>
      <point x="805" y="950"/>
      <point x="899" y="788"/>
      <point x="857" y="551" type="curve" smooth="yes"/>
      <point x="811" y="286"/>
      <point x="664" y="131"/>
    </contour>
    <contour>
      <point x="533" y="-534" type="curve" smooth="yes"/>
      <point x="698" y="-534"/>
      <point x="840" y="-415"/>
      <point x="867" y="-258" type="curve" smooth="yes"/>
      <point x="896" y="-98"/>
      <point x="793" y="24"/>
      <point x="631" y="24" type="curve" smooth="yes"/>
      <point x="464" y="24"/>
      <point x="316" y="-101"/>
      <point x="288" y="-258" type="curve" smooth="yes"/>
      <point x="261" y="-413"/>
      <point x="362" y="-534"/>
    </contour>
    <contour>
      <point x="583" y="-504" type="curve" smooth="yes"/>
      <point x="485" y="-504"/>
      <point x="395" y="-440"/>
      <point x="418" y="-313" type="curve" smooth="yes"/>
      <point x="436" y="-207"/>
      <point x="541" y="-112"/>
      <point x="657" y="-112" type="curve" smooth="yes"/>
      <point x="767" y="-112"/>
      <point x="830" y="-200"/>
      <point x="816" y="-313" type="curve" smooth="yes"/>
      <point x="803" y="-419"/>
      <point x="684" y="-503"/>
    </contour>
    <contour>
      <point x="242" y="448" type="line"/>
      <point x="817" y="448" type="line"/>
      <point x="844" y="600" type="line"/>
      <point x="269" y="600" type="line"/>
    </contour>
  </outline>
</glyph>
<glyph name="tzo-ethiopic" format="2">
  <advance width="1289"/>
  <unicode hex="1346"/>
  <outline>
    <contour>
      <point x="450" y="-20" type="curve" smooth="yes"/>
      <point x="644" y="-20"/>
      <point x="818" y="78"/>
      <point x="928" y="246" type="curve" smooth="yes"/>
      <point x="983" y="329"/>
      <point x="1014" y="425"/>
      <point x="1038" y="529" type="curve" smooth="yes"/>
      <point x="1041" y="542" type="line" smooth="yes"/>
      <point x="1118" y="877"/>
      <point x="940" y="1102"/>
      <point x="646" y="1102" type="curve" smooth="yes"/>
      <point x="455" y="1102"/>
      <point x="283" y="1006"/>
      <point x="170" y="837" type="curve" smooth="yes"/>
      <point x="114" y="752"/>
      <point x="73" y="657"/>
      <point x="57" y="551" type="curve" smooth="yes"/>
      <point x="55" y="538" type="line" smooth="yes"/>
      <point x="3" y="201"/>
      <point x="156" y="-20"/>
    </contour>
    <contour>
      <point x="476" y="131" type="curve" smooth="yes"/>
      <point x="290" y="131"/>
      <point x="197" y="289"/>
      <point x="239" y="529" type="curve" smooth="yes"/>
      <point x="287" y="800"/>
      <point x="436" y="950"/>
      <point x="619" y="950" type="curve" smooth="yes"/>
      <point x="805" y="950"/>
      <point x="899" y="788"/>
      <point x="857" y="551" type="curve" smooth="yes"/>
      <point x="811" y="286"/>
      <point x="664" y="131"/>
    </contour>
    <contour>
      <point x="39" y="-356" type="line"/>
      <point x="188" y="-356" type="line"/>
      <point x="508" y="-62" type="line" name="❌"/>
      <point x="284" y="-62" type="line" name="❌"/>
    </contour>
    <contour>
      <point x="242" y="448" type="line"/>
      <point x="817" y="448" type="line"/>
      <point x="844" y="600" type="line"/>
      <point x="269" y="600" type="line"/>
    </contour>
  </outline>
</glyph>
<glyph name="fi-ethiopic" format="2">
  <advance width="1166"/>
  <unicode hex="134A"/>
  <outline>
    <contour>
      <point x="403" y="-20" type="curve" smooth="yes"/>
      <point x="605" y="-20"/>
      <point x="832" y="127"/>
      <point x="938" y="295" type="curve"/>
      <point x="830" y="295" type="line"/>
      <point x="764" y="205"/>
      <point x="561" y="131"/>
      <point x="429" y="131" type="curve" smooth="yes"/>
      <point x="278" y="131"/>
      <point x="254" y="255"/>
      <point x="300" y="517" type="curve" smooth="yes"/>
      <point x="400" y="1082" type="line"/>
      <point x="215" y="1082" type="line"/>
      <point x="117" y="524" type="line" smooth="yes"/>
      <point x="58" y="187"/>
      <point x="110" y="-20"/>
    </contour>
    <contour>
      <point x="690" y="598" type="line"/>
      <point x="425" y="598" type="line"/>
      <point x="412" y="523" type="line"/>
      <point x="519" y="523" type="line"/>
      <point x="444" y="102" type="line"/>
      <point x="602" y="102" type="line"/>
    </contour>
    <contour>
      <point x="940" y="312" type="line"/>
      <point x="990" y="594" type="line"/>
      <point x="744" y="594" type="line"/>
      <point x="727" y="500" type="line"/>
      <point x="864" y="500" type="line"/>
      <point x="831" y="312" type="line"/>
    </contour>
  </outline>
</glyph>
<glyph name="fee-ethiopic" format="2">
  <advance width="1166"/>
  <unicode hex="134C"/>
  <outline>
    <contour>
      <point x="403" y="-20" type="curve" smooth="yes"/>
      <point x="605" y="-20"/>
      <point x="832" y="127"/>
      <point x="938" y="295" type="curve"/>
      <point x="830" y="295" type="line"/>
      <point x="764" y="205"/>
      <point x="561" y="131"/>
      <point x="429" y="131" type="curve" smooth="yes"/>
      <point x="278" y="131"/>
      <point x="254" y="255"/>
      <point x="300" y="517" type="curve" smooth="yes"/>
      <point x="400" y="1082" type="line"/>
      <point x="215" y="1082" type="line"/>
      <point x="117" y="524" type="line" smooth="yes"/>
      <point x="58" y="187"/>
      <point x="110" y="-20"/>
    </contour>
    <contour>
      <point x="690" y="598" type="line"/>
      <point x="425" y="598" type="line"/>
      <point x="412" y="523" type="line"/>
      <point x="519" y="523" type="line"/>
      <point x="444" y="102" type="line"/>
      <point x="602" y="102" type="line"/>
    </contour>
    <contour>
      <point x="975" y="254" type="curve" smooth="yes"/>
      <point x="1140" y="254"/>
      <point x="1282" y="373"/>
      <point x="1309" y="530" type="curve" smooth="yes"/>
      <point x="1338" y="690"/>
      <point x="1235" y="812"/>
      <point x="1073" y="812" type="curve" smooth="yes"/>
      <point x="906" y="812"/>
      <point x="758" y="687"/>
      <point x="730" y="530" type="curve" smooth="yes"/>
      <point x="703" y="375"/>
      <point x="804" y="254"/>
    </contour>
    <contour>
      <point x="1025" y="284" type="curve" smooth="yes"/>
      <point x="927" y="284"/>
      <point x="837" y="348"/>
      <point x="860" y="475" type="curve" smooth="yes"/>
      <point x="878" y="581"/>
      <point x="983" y="676"/>
      <point x="1099" y="676" type="curve" smooth="yes"/>
      <point x="1209" y="676"/>
      <point x="1272" y="588"/>
      <point x="1258" y="475" type="curve" smooth="yes"/>
      <point x="1245" y="369"/>
      <point x="1126" y="285"/>
    </contour>
  </outline>
</glyph>
<glyph name="fo-ethiopic" format="2">
  <advance width="1166"/>
  <unicode hex="134E"/>
  <outline>
    <contour>
      <point x="403" y="-20" type="curve" smooth="yes"/>
      <point x="605" y="-20"/>
      <point x="832" y="127"/>
      <point x="938" y="295" type="curve"/>
      <point x="830" y="295" type="line"/>
      <point x="764" y="205"/>
      <point x="561" y="131"/>
      <point x="429" y="131" type="curve" smooth="yes"/>
      <point x="278" y="131"/>
      <point x="254" y="255"/>
      <point x="300" y="517" type="curve" smooth="yes"/>
      <point x="400" y="1082" type="line"/>
      <point x="215" y="1082" type="line"/>
      <point x="117" y="524" type="line" smooth="yes"/>
      <point x="58" y="187"/>
      <point x="110" y="-20"/>
    </contour>
    <contour>
      <point x="690" y="598" type="line"/>
      <point x="425" y="598" type="line"/>
      <point x="412" y="523" type="line"/>
      <point x="519" y="523" type="line"/>
      <point x="444" y="102" type="line"/>
      <point x="602" y="102" type="line"/>
    </contour>
    <contour>
      <point x="750" y="683" type="curve" smooth="yes"/>
      <point x="917" y="683"/>
      <point x="1043" y="808"/>
      <point x="1043" y="965" type="curve" smooth="yes"/>
      <point x="1043" y="1120"/>
      <point x="921" y="1241"/>
      <point x="750" y="1241" type="curve" smooth="yes"/>
      <point x="585" y="1241"/>
      <point x="464" y="1122"/>
      <point x="464" y="965" type="curve" smooth="yes"/>
      <point x="464" y="805"/>
      <point x="588" y="683"/>
    </contour>
    <contour>
      <point x="700" y="819" type="curve" smooth="yes"/>
      <point x="590" y="819"/>
      <point x="506" y="908"/>
      <point x="506" y="1020" type="curve" smooth="yes"/>
      <point x="506" y="1146"/>
      <point x="604" y="1210"/>
      <point x="705" y="1211" type="curve" smooth="yes"/>
      <point x="803" y="1211"/>
      <point x="904" y="1147"/>
      <point x="904" y="1020" type="curve" smooth="yes"/>
      <point x="904" y="914"/>
      <point x="816" y="819"/>
    </contour>
  </outline>
</glyph>
<glyph name="pa-ethiopic" format="2">
  <advance width="784"/>
  <unicode hex="1350"/>
  <outline>
    <contour>
      <point x="75" y="0" type="line"/>
      <point x="260" y="0" type="line"/>
      <point x="426" y="939" type="line"/>
      <point x="628" y="939" type="line"/>
      <point x="653" y="1082" type="line"/>
      <point x="69" y="1082" type="line"/>
      <point x="44" y="939" type="line"/>
      <point x="241" y="939" type="line"/>
    </contour>
  </outline>
</glyph>
<glyph name="pu-ethiopic" format="2">
  <advance width="784"/>
  <unicode hex="1351"/>
  <outline>
    <contour>
      <point x="75" y="0" type="line"/>
      <point x="260" y="0" type="line"/>
      <point x="426" y="939" type="line"/>
      <point x="628" y="939" type="line"/>
      <point x="653" y="1082" type="line"/>
      <point x="69" y="1082" type="line"/>
      <point x="44" y="939" type="line"/>
      <point x="241" y="939" type="line"/>
    </contour>
    <contour>
      <point x="476" y="515" type="curve" smooth="yes"/>
      <point x="543" y="515"/>
      <point x="609" y="570"/>
      <point x="621" y="638" type="curve" smooth="yes"/>
      <point x="633" y="705"/>
      <point x="586" y="762"/>
      <point x="519" y="762" type="curve" smooth="yes"/>
      <point x="451" y="762"/>
      <point x="386" y="705"/>
      <point x="374" y="638" type="curve" smooth="yes"/>
      <point x="362" y="570"/>
      <point x="408" y="515"/>
    </contour>
  </outline>
</glyph>
<glyph name="paa-ethiopic" format="2">
  <advance width="789"/>
  <unicode hex="1353"/>
  <outline>
    <contour>
      <point x="-121" y="0" type="line"/>
      <point x="151" y="0" type="line"/>
      <point x="171" y="112" type="line"/>
      <point x="-101" y="112" type="line"/>
    </contour>
    <contour>
      <point x="80" y="0" type="line"/>
      <point x="265" y="0" type="line"/>
      <point x="431" y="939" type="line"/>
      <point x="633" y="939" type="line"/>
      <point x="658" y="1082" type="line"/>
      <point x="74" y="1082" type="line"/>
      <point x="49" y="939" type="line"/>
      <point x="246" y="939" type="line"/>
    </contour>
  </outline>
</glyph>
<glyph name="pee-ethiopic" format="2">
  <advance width="784"/>
  <unicode hex="1354"/>
  <outline>
    <contour>
      <point x="75" y="0" type="line"/>
      <point x="260" y="0" type="line"/>
      <point x="426" y="939" type="line"/>
      <point x="628" y="939" type="line"/>
      <point x="653" y="1082" type="line"/>
      <point x="69" y="1082" type="line"/>
      <point x="44" y="939" type="line"/>
      <point x="241" y="939" type="line"/>
    </contour>
    <contour>
      <point x="22" y="-455" type="curve" smooth="yes"/>
      <point x="187" y="-455"/>
      <point x="329" y="-336"/>
      <point x="356" y="-179" type="curve" smooth="yes"/>
      <point x="385" y="-19"/>
      <point x="282" y="103"/>
      <point x="120" y="103" type="curve" smooth="yes"/>
      <point x="-47" y="103"/>
      <point x="-195" y="-22"/>
      <point x="-223" y="-179" type="curve" smooth="yes"/>
      <point x="-250" y="-334"/>
      <point x="-149" y="-455"/>
    </contour>
    <contour>
      <point x="72" y="-425" type="curve" smooth="yes"/>
      <point x="-26" y="-425"/>
      <point x="-116" y="-361"/>
      <point x="-93" y="-234" type="curve" smooth="yes"/>
      <point x="-75" y="-128"/>
      <point x="30" y="-33"/>
      <point x="146" y="-33" type="curve" smooth="yes"/>
      <point x="256" y="-33"/>
      <point x="319" y="-121"/>
      <point x="305" y="-234" type="curve" smooth="yes"/>
      <point x="292" y="-340"/>
      <point x="173" y="-424"/>
    </contour>
  </outline>
</glyph>
<glyph name="po-ethiopic" format="2">
  <advance width="784"/>
  <unicode hex="1356"/>
  <outline>
    <contour>
      <point x="75" y="0" type="line"/>
      <point x="260" y="0" type="line"/>
      <point x="426" y="939" type="line"/>
      <point x="628" y="939" type="line"/>
      <point x="653" y="1082" type="line"/>
      <point x="69" y="1082" type="line"/>
      <point x="44" y="939" type="line"/>
      <point x="241" y="939" type="line"/>
    </contour>
    <contour>
      <point x="-209" y="-304" type="line"/>
      <point x="-60" y="-304" type="line"/>
      <point x="260" y="-10" type="line" name="❌"/>
      <point x="36" y="-10" type="line" name="❌"/>
    </contour>
  </outline>
</glyph>
<glyph name="pwa-ethiopic" format="2">
  <advance width="784"/>
  <unicode hex="1357"/>
  <outline>
    <contour>
      <point x="75" y="0" type="line"/>
      <point x="260" y="0" type="line"/>
      <point x="426" y="939" type="line"/>
      <point x="628" y="939" type="line"/>
      <point x="653" y="1082" type="line"/>
      <point x="69" y="1082" type="line"/>
      <point x="44" y="939" type="line"/>
      <point x="241" y="939" type="line"/>
    </contour>
    <contour>
      <point x="-273" y="-343" type="line"/>
      <point x="217" y="-334" type="line"/>
      <point x="198" y="-451" type="line"/>
      <point x="338" y="-449" type="line"/>
      <point x="367" y="-210" type="line"/>
      <point x="208" y="-213" type="line"/>
      <point x="257" y="-9" type="line"/>
      <point x="72" y="-13" type="line"/>
      <point x="23" y="-216" type="line"/>
      <point x="-263" y="-221" type="line"/>
    </contour>
  </outline>
</glyph>
<glyph name="semicolon-ethiopic" format="2">
  <advance width="556"/>
  <unicode hex="1364"/>
  <outline>
    <contour>
      <point x="121" y="1215" type="line"/>
      <point x="451" y="1215" type="line"/>
      <point x="476" y="1353" type="line"/>
      <point x="146" y="1353" type="line"/>
    </contour>
    <contour>
      <point x="-96" y="-312" type="line"/>
      <point x="208" y="-312" type="line"/>
      <point x="233" y="-174" type="line"/>
      <point x="-71" y="-174" type="line"/>
    </contour>
    <component base="period" xOffset="21" yOffset="883"/>
    <component base="period" xOffset="20"/>
  </outline>
</glyph>
<glyph name="prefacecolon-ethiopic" format="2">
  <advance width="730"/>
  <unicode hex="1366"/>
  <outline>
    <contour>
      <point x="239" y="547" type="line"/>
      <point x="519" y="547" type="line"/>
      <point x="539" y="665" type="line"/>
      <point x="259" y="665" type="line"/>
    </contour>
    <component base="period" xOffset="20"/>
    <component base="period" xOffset="241" yOffset="843"/>
  </outline>
</glyph>
<glyph name="paragraphseparator-ethiopic" format="2">
  <advance width="1337"/>
  <unicode hex="1368"/>
  <outline>
    <contour>
      <point x="531" y="439" type="curve" smooth="yes"/>
      <point x="598" y="439"/>
      <point x="664" y="494"/>
      <point x="676" y="562" type="curve" smooth="yes"/>
      <point x="688" y="629"/>
      <point x="641" y="686"/>
      <point x="574" y="686" type="curve" smooth="yes"/>
      <point x="506" y="686"/>
      <point x="441" y="629"/>
      <point x="429" y="562" type="curve" smooth="yes"/>
      <point x="417" y="494"/>
      <point x="463" y="439"/>
    </contour>
    <contour>
      <point x="239" y="168" type="curve" smooth="yes"/>
      <point x="295" y="209"/>
      <point x="317" y="270"/>
      <point x="278" y="329" type="curve" smooth="yes"/>
      <point x="239" y="387"/>
      <point x="178" y="385"/>
      <point x="122" y="344" type="curve" smooth="yes"/>
      <point x="68" y="305"/>
      <point x="47" y="246"/>
      <point x="84" y="187" type="curve" smooth="yes"/>
      <point x="123" y="129"/>
      <point x="185" y="128"/>
    </contour>
    <contour>
      <point x="471" y="-11" type="curve" smooth="yes"/>
      <point x="547" y="-11"/>
      <point x="596" y="36"/>
      <point x="606" y="97" type="curve" smooth="yes"/>
      <point x="618" y="161"/>
      <point x="586" y="209"/>
      <point x="510" y="209" type="curve" smooth="yes"/>
      <point x="434" y="209"/>
      <point x="388" y="161"/>
      <point x="376" y="97" type="curve" smooth="yes"/>
      <point x="366" y="36"/>
      <point x="395" y="-11"/>
    </contour>
    <contour>
      <point x="148" y="655" type="curve" smooth="yes"/>
      <point x="197" y="624"/>
      <point x="261" y="636"/>
      <point x="310" y="702" type="curve" smooth="yes"/>
      <point x="359" y="768"/>
      <point x="345" y="825"/>
      <point x="294" y="856" type="curve" smooth="yes"/>
      <point x="245" y="886"/>
      <point x="185" y="875"/>
      <point x="136" y="809" type="curve" smooth="yes"/>
      <point x="87" y="742"/>
      <point x="99" y="685"/>
    </contour>
    <contour>
      <point x="844" y="226" type="curve" smooth="yes"/>
      <point x="894" y="195"/>
      <point x="958" y="207"/>
      <point x="1006" y="273" type="curve" smooth="yes"/>
      <point x="1055" y="339"/>
      <point x="1041" y="396"/>
      <point x="991" y="427" type="curve" smooth="yes"/>
      <point x="942" y="457"/>
      <point x="881" y="446"/>
      <point x="832" y="380" type="curve" smooth="yes"/>
      <point x="783" y="313"/>
      <point x="795" y="256"/>
    </contour>
    <contour>
      <point x="628" y="872" type="curve" smooth="yes"/>
      <point x="704" y="872"/>
      <point x="752" y="919"/>
      <point x="763" y="980" type="curve" smooth="yes"/>
      <point x="774" y="1044"/>
      <point x="743" y="1092"/>
      <point x="667" y="1092" type="curve" smooth="yes"/>
      <point x="591" y="1092"/>
      <point x="544" y="1044"/>
      <point x="533" y="980" type="curve" smooth="yes"/>
      <point x="522" y="919"/>
      <point x="552" y="872"/>
    </contour>
    <contour>
      <point x="1016" y="734" type="curve" smooth="yes"/>
      <point x="1072" y="775"/>
      <point x="1094" y="836"/>
      <point x="1055" y="895" type="curve" smooth="yes"/>
      <point x="1016" y="953"/>
      <point x="955" y="951"/>
      <point x="899" y="910" type="curve" smooth="yes"/>
      <point x="845" y="871"/>
      <point x="823" y="812"/>
      <point x="861" y="753" type="curve" smooth="yes"/>
      <point x="900" y="695"/>
      <point x="962" y="694"/>
    </contour>
  </outline>
</glyph>
<glyph name="three-ethiopic" format="2">
  <advance width="1150"/>
  <unicode hex="136B"/>
  <outline>
    <contour>
      <point x="-102" y="0" type="line"/>
      <point x="94" y="0" type="line"/>
      <point x="324" y="1304" type="line"/>
      <point x="1112" y="1304" type="line"/>
      <point x="1139" y="1456" type="line"/>
      <point x="155" y="1456" type="line"/>
    </contour>
    <component base="_num.bar"/>
  </outline>
</glyph>
<glyph name="thirty-ethiopic" format="2">
  <advance width="1356"/>
  <unicode hex="1374"/>
  <outline>
    <contour>
      <point x="-46" y="-31" type="line"/>
      <point x="139" y="-31" type="line"/>
      <point x="292" y="838" type="line" smooth="yes"/>
      <point x="357" y="1209"/>
      <point x="439" y="1274"/>
      <point x="493" y="1274" type="curve" smooth="yes"/>
      <point x="601" y="1274"/>
      <point x="605" y="1137"/>
      <point x="506" y="584" type="curve" smooth="yes"/>
      <point x="431" y="165"/>
      <point x="429" y="-84"/>
      <point x="828" y="-31" type="curve" smooth="yes"/>
      <point x="1033" y="-4"/>
      <point x="1062" y="174"/>
      <point x="1138" y="602" type="curve" smooth="yes"/>
      <point x="1284" y="1426" type="line"/>
      <point x="1099" y="1426" type="line"/>
      <point x="945" y="557" type="line" smooth="yes"/>
      <point x="877" y="171"/>
      <point x="854" y="121"/>
      <point x="745" y="121" type="curve" smooth="yes"/>
      <point x="647" y="121"/>
      <point x="634" y="258"/>
      <point x="689" y="571" type="curve" smooth="yes"/>
      <point x="804" y="1230"/>
      <point x="783" y="1426"/>
      <point x="530" y="1426" type="curve" smooth="yes"/>
      <point x="304" y="1426"/>
      <point x="174" y="1221"/>
      <point x="99" y="793" type="curve" smooth="yes"/>
    </contour>
    <component base="_num.bar" xOffset="95"/>
  </outline>
</glyph>
<glyph name="forty-ethiopic" format="2">
  <advance width="1150"/>
  <unicode hex="1375"/>
  <outline>
    <contour>
      <point x="604" y="510" type="line"/>
      <point x="753" y="510" type="line"/>
      <point x="892" y="1296" type="line"/>
      <point x="743" y="1296" type="line"/>
    </contour>
    <component base="fifty-ethiopic"/>
  </outline>
</glyph>
<glyph name="quotereversed" format="2">
  <advance width="409"/>
  <unicode hex="201B"/>
  <note>
uni201B
</note>
  <outline>
    <contour>
      <point x="247" y="1046" type="curve"/>
      <point x="365" y="1118" type="line"/>
      <point x="318" y="1203"/>
      <point x="302" y="1293"/>
      <point x="316" y="1389" type="curve" smooth="yes"/>
      <point x="342" y="1536" type="line"/>
      <point x="159" y="1536" type="line"/>
      <point x="135" y="1401" type="line" smooth="yes"/>
      <point x="115" y="1272"/>
      <point x="159" y="1131"/>
    </contour>
  </outline>
</glyph>
<glyph name="euro" format="2">
  <advance width="1150"/>
  <unicode hex="20AC"/>
  <note>
uni20AC
</note>
  <outline>
    <contour>
      <point x="618" y="-20" type="curve" smooth="yes"/>
      <point x="698" y="-20"/>
      <point x="779" y="-10"/>
      <point x="863" y="10" type="curve"/>
      <point x="871" y="170" type="line"/>
      <point x="799" y="147"/>
      <point x="725" y="136"/>
      <point x="647" y="136" type="curve" smooth="yes"/>
      <point x="427" y="136"/>
      <point x="329" y="281"/>
      <point x="370" y="541" type="curve"/>
      <point x="754" y="541" type="line"/>
      <point x="775" y="665" type="line"/>
      <point x="391" y="665" type="line"/>
      <point x="416" y="802" type="line"/>
      <point x="800" y="802" type="line"/>
      <point x="822" y="927" type="line"/>
      <point x="439" y="927" type="line"/>
      <point x="491" y="1178"/>
      <point x="636" y="1318"/>
      <point x="855" y="1318" type="curve" smooth="yes"/>
      <point x="928" y="1318"/>
      <point x="999" y="1306"/>
      <point x="1067" y="1283" type="curve"/>
      <point x="1116" y="1445" type="line"/>
      <point x="1030" y="1466"/>
      <point x="951" y="1476"/>
      <point x="880" y="1476" type="curve" smooth="yes"/>
      <point x="556" y="1476"/>
      <point x="321" y="1276"/>
      <point x="246" y="927" type="curve"/>
      <point x="68" y="927" type="line"/>
      <point x="46" y="802" type="line"/>
      <point x="224" y="802" type="line"/>
      <point x="199" y="665" type="line"/>
      <point x="21" y="665" type="line"/>
      <point x="0" y="541" type="line"/>
      <point x="178" y="541" type="line"/>
      <point x="123" y="184"/>
      <point x="287" y="-20"/>
    </contour>
  </outline>
</glyph>
<glyph name="summation" format="2">
  <advance width="1199"/>
  <unicode hex="2211"/>
  <note>
uni2211
</note>
  <outline>
    <contour>
      <point x="-169" y="-269" type="line"/>
      <point x="957" y="-269" type="line"/>
      <point x="984" y="-117" type="line"/>
      <point x="83" y="-117" type="line"/>
      <point x="787" y="585" type="line"/>
      <point x="332" y="1304" type="line"/>
      <point x="1157" y="1304" type="line"/>
      <point x="1184" y="1456" type="line"/>
      <point x="135" y="1456" type="line"/>
      <point x="110" y="1312" type="line"/>
      <point x="590" y="585" type="line"/>
      <point x="-144" y="-126" type="line"/>
    </contour>
  </outline>
</glyph>
<glyph name="_smart.hat.caps" format="2">
  <anchor x="401" y="1638" name="_hat.cap"/>
  <anchor x="392" y="1637" name="_hat.caps"/>
  <outline>
    <contour>
      <point x="-235" y="1642" type="line"/>
      <point x="439" y="1642" type="line"/>
      <point x="464" y="1785" type="line"/>
      <point x="-210" y="1785" type="line"/>
    </contour>
  </outline>
</glyph>
<glyph name="_smart.hat" format="2">
  <anchor x="-184" y="12" name="_hat"/>
  <outline>
    <contour>
      <point x="-497" y="52" type="line"/>
      <point x="128" y="52" type="line"/>
      <point x="143" y="134" type="line"/>
      <point x="-482" y="134" type="line"/>
    </contour>
  </outline>
</glyph>
<glyph name="_smart.he.acute.top" format="2">
  <anchor x="1" y="1086" name="_he.acute.top"/>
  <outline>
    <contour>
      <point x="100" y="1082" type="line"/>
      <point x="-41" y="1376" type="line"/>
      <point x="-265" y="1376" type="line"/>
      <point x="-49" y="1082" type="line"/>
    </contour>
  </outline>
</glyph>
<glyph name="_smart.hee" format="2">
  <anchor x="-210" y="339" name="_hee"/>
  <outline>
    <contour>
      <point x="-395" y="-156" type="curve" smooth="yes"/>
      <point x="-230" y="-156"/>
      <point x="-88" y="-37"/>
      <point x="-61" y="120" type="curve" smooth="yes"/>
      <point x="-32" y="280"/>
      <point x="-135" y="402"/>
      <point x="-297" y="402" type="curve" smooth="yes"/>
      <point x="-464" y="402"/>
      <point x="-612" y="277"/>
      <point x="-640" y="120" type="curve" smooth="yes"/>
      <point x="-667" y="-35"/>
      <point x="-566" y="-156"/>
    </contour>
    <contour>
      <point x="-345" y="-126" type="curve" smooth="yes"/>
      <point x="-443" y="-126"/>
      <point x="-533" y="-62"/>
      <point x="-510" y="65" type="curve" smooth="yes"/>
      <point x="-492" y="171"/>
      <point x="-387" y="266"/>
      <point x="-271" y="266" type="curve" smooth="yes"/>
      <point x="-161" y="266"/>
      <point x="-98" y="178"/>
      <point x="-112" y="65" type="curve" smooth="yes"/>
      <point x="-125" y="-41"/>
      <point x="-244" y="-125"/>
    </contour>
  </outline>
</glyph>
<glyph name="_smart.ho.ring.uniq" format="2">
  <anchor x="-1040" y="151" name="_ho.ring.uniq"/>
  <outline>
    <contour>
      <point x="-1222" y="-782" type="curve" smooth="yes"/>
      <point x="-1069" y="-811"/>
      <point x="-894" y="-714"/>
      <point x="-813" y="-560" type="curve" smooth="yes"/>
      <point x="-731" y="-404"/>
      <point x="-781" y="-262"/>
      <point x="-932" y="-233" type="curve" smooth="yes"/>
      <point x="-1085" y="-204"/>
      <point x="-1266" y="-305"/>
      <point x="-1348" y="-461" type="curve" smooth="yes"/>
      <point x="-1428" y="-612"/>
      <point x="-1379" y="-753"/>
    </contour>
    <contour>
      <point x="-1159" y="-751" type="curve" smooth="yes"/>
      <point x="-1244" y="-733"/>
      <point x="-1299" y="-657"/>
      <point x="-1238" y="-540" type="curve" smooth="yes"/>
      <point x="-1185" y="-442"/>
      <point x="-1062" y="-368"/>
      <point x="-961" y="-386" type="curve" smooth="yes"/>
      <point x="-866" y="-405"/>
      <point x="-837" y="-501"/>
      <point x="-893" y="-605" type="curve" smooth="yes"/>
      <point x="-954" y="-722"/>
      <point x="-1071" y="-766"/>
    </contour>
  </outline>
</glyph>
<glyph name="_smart.hwa" format="2">
  <anchor x="-109" y="408" name="_hwa"/>
  <outline>
    <contour>
      <point x="-548" y="85" type="line"/>
      <point x="-58" y="94" type="line"/>
      <point x="-77" y="-23" type="line"/>
      <point x="63" y="-21" type="line"/>
      <point x="92" y="218" type="line"/>
      <point x="-67" y="215" type="line"/>
      <point x="-18" y="419" type="line"/>
      <point x="-203" y="415" type="line"/>
      <point x="-252" y="212" type="line"/>
      <point x="-538" y="207" type="line"/>
    </contour>
  </outline>
</glyph>
<glyph name="_smart.raa" format="2">
  <anchor x="-597" y="240" name="_raa"/>
  <outline>
    <contour>
      <point x="-659" y="242" type="line"/>
      <point x="-510" y="242" type="line"/>
      <point x="-190" y="536" type="line"/>
      <point x="-414" y="536" type="line"/>
    </contour>
  </outline>
</glyph>
<glyph name="_smart.ri" format="2">
  <anchor x="-117" y="284" name="_ri"/>
  <outline>
    <contour>
      <point x="-44" y="312" type="line"/>
      <point x="6" y="594" type="line"/>
      <point x="-240" y="594" type="line"/>
      <point x="-257" y="500" type="line"/>
      <point x="-120" y="500" type="line"/>
      <point x="-153" y="312" type="line"/>
    </contour>
  </outline>
</glyph>
<glyph name="_smart.tsa.belt" format="2">
  <anchor x="-92" y="602" name="_tsa.belt"/>
  <outline>
    <contour>
      <point x="-378" y="500" type="line"/>
      <point x="197" y="500" type="line"/>
      <point x="224" y="652" type="line"/>
      <point x="-351" y="652" type="line"/>
    </contour>
  </outline>
</glyph>
<glyph name="_smart.yi" format="2">
  <anchor x="149" y="726" name="_yi"/>
  <outline>
    <contour>
      <point x="162" y="591" type="line"/>
      <point x="597" y="591" type="line"/>
      <point x="624" y="742" type="line"/>
      <point x="189" y="742" type="line"/>
    </contour>
    <contour>
      <point x="672" y="462" type="curve" smooth="yes"/>
      <point x="744" y="462"/>
      <point x="790" y="507"/>
      <point x="800" y="567" type="curve" smooth="yes"/>
      <point x="811" y="627"/>
      <point x="781" y="674"/>
      <point x="709" y="674" type="curve"/>
      <point x="637" y="674"/>
      <point x="592" y="627"/>
      <point x="581" y="567" type="curve" smooth="yes"/>
      <point x="571" y="507"/>
      <point x="600" y="462"/>
    </contour>
  </outline>
</glyph>
<glyph name="_smart.zha.caps" format="2">
  <anchor x="-29" y="956" name="_zha.caps"/>
  <outline>
    <contour>
      <point x="-1067" y="759" type="curve" smooth="yes"/>
      <point x="-995" y="759"/>
      <point x="-949" y="804"/>
      <point x="-938" y="864" type="curve" smooth="yes"/>
      <point x="-928" y="924"/>
      <point x="-958" y="971"/>
      <point x="-1030" y="971" type="curve" smooth="yes"/>
      <point x="-1102" y="971"/>
      <point x="-1147" y="924"/>
      <point x="-1157" y="864" type="curve" smooth="yes"/>
      <point x="-1168" y="804"/>
      <point x="-1139" y="759"/>
    </contour>
    <contour>
      <point x="232" y="752" type="curve" smooth="yes"/>
      <point x="304" y="752"/>
      <point x="350" y="797"/>
      <point x="360" y="857" type="curve" smooth="yes"/>
      <point x="371" y="917"/>
      <point x="341" y="964"/>
      <point x="269" y="964" type="curve" smooth="yes"/>
      <point x="197" y="964"/>
      <point x="152" y="917"/>
      <point x="141" y="857" type="curve" smooth="yes"/>
      <point x="131" y="797"/>
      <point x="160" y="752"/>
    </contour>
  </outline>
</glyph>
<glyph name="aGlottal-ethiopic.liga" format="2">
  <advance width="1304"/>
  <outline>
    <contour>
      <point x="-163" y="0" type="line"/>
      <point x="47" y="0" type="line"/>
      <point x="646" y="1037" type="line"/>
      <point x="877" y="0" type="line"/>
      <point x="1086" y="0" type="line"/>
      <point x="774" y="1290" type="line"/>
      <point x="800" y="1442" type="line"/>
      <point x="378" y="1442" type="line"/>
      <point x="419" y="1669" type="line"/>
      <point x="259" y="1669" type="line"/>
      <point x="192" y="1290" type="line"/>
      <point x="603" y="1290" type="line"/>
    </contour>
  </outline>
</glyph>
<glyph name="aaGlottal-ethiopic.liga" format="2">
  <advance width="1304"/>
  <outline>
    <contour>
      <point x="-163" y="0" type="line"/>
      <point x="47" y="0" type="line"/>
      <point x="646" y="1037" type="line"/>
      <point x="877" y="0" type="line"/>
      <point x="1086" y="0" type="line"/>
      <point x="774" y="1290" type="line"/>
      <point x="800" y="1442" type="line"/>
      <point x="378" y="1442" type="line"/>
      <point x="419" y="1669" type="line"/>
      <point x="259" y="1669" type="line"/>
      <point x="192" y="1290" type="line"/>
      <point x="603" y="1290" type="line"/>
    </contour>
    <contour>
      <point x="828" y="-397" type="line" name="❌"/>
      <point x="1013" y="-397" type="line" name="❌"/>
      <point x="1076" y="-42" type="line"/>
      <point x="891" y="-42" type="line"/>
    </contour>
  </outline>
</glyph>
<glyph name="acute.yu" format="2">
  <advance width="1060"/>
  <outline>
    <contour>
      <point x="19" y="286" type="line"/>
      <point x="144" y="205" type="line"/>
      <point x="573" y="278" type="line"/>
      <point x="385" y="400" type="line"/>
    </contour>
  </outline>
</glyph>
<glyph name="bi-ethiopic.liga" format="2">
  <advance width="1341"/>
  <outline>
    <contour>
      <point x="-50" y="0" type="line"/>
      <point x="142" y="0" type="line"/>
      <point x="316" y="986" type="line" smooth="yes"/>
      <point x="353" y="1197"/>
      <point x="493" y="1319"/>
      <point x="708" y="1319" type="curve" smooth="yes"/>
      <point x="925" y="1319"/>
      <point x="1022" y="1198"/>
      <point x="985" y="987" type="curve" smooth="yes"/>
      <point x="811" y="0" type="line"/>
      <point x="1016" y="0" type="line"/>
      <point x="1191" y="990" type="line" smooth="yes"/>
      <point x="1240" y="1265"/>
      <point x="1039" y="1476"/>
      <point x="735" y="1476" type="curve" smooth="yes"/>
      <point x="417" y="1476"/>
      <point x="178" y="1293"/>
      <point x="125" y="992" type="curve" smooth="yes"/>
    </contour>
    <contour>
      <point x="1099" y="-30" type="curve" smooth="yes"/>
      <point x="1166" y="-30"/>
      <point x="1233" y="25"/>
      <point x="1244" y="93" type="curve" smooth="yes"/>
      <point x="1256" y="160"/>
      <point x="1209" y="217"/>
      <point x="1142" y="217" type="curve" smooth="yes"/>
      <point x="1074" y="217"/>
      <point x="1009" y="160"/>
      <point x="997" y="93" type="curve" smooth="yes"/>
      <point x="986" y="25"/>
      <point x="1031" y="-30"/>
    </contour>
  </outline>
</glyph>
<glyph name="bo-ethiopic.liga" format="2">
  <advance width="1341"/>
  <outline>
    <contour>
      <point x="-50" y="0" type="line"/>
      <point x="142" y="0" type="line"/>
      <point x="316" y="986" type="line" smooth="yes"/>
      <point x="353" y="1197"/>
      <point x="493" y="1319"/>
      <point x="708" y="1319" type="curve" smooth="yes"/>
      <point x="925" y="1319"/>
      <point x="1022" y="1198"/>
      <point x="985" y="987" type="curve" smooth="yes"/>
      <point x="811" y="0" type="line"/>
      <point x="1016" y="0" type="line"/>
      <point x="1191" y="990" type="line" smooth="yes"/>
      <point x="1240" y="1265"/>
      <point x="1039" y="1476"/>
      <point x="735" y="1476" type="curve" smooth="yes"/>
      <point x="417" y="1476"/>
      <point x="178" y="1293"/>
      <point x="125" y="992" type="curve" smooth="yes"/>
    </contour>
    <contour>
      <point x="-115" y="-384" type="line"/>
      <point x="70" y="-384" type="line"/>
      <point x="133" y="-30" type="line"/>
      <point x="-52" y="-30" type="line"/>
    </contour>
  </outline>
</glyph>
<glyph name="ca-ethiopic.liga" format="2">
  <advance width="1222"/>
  <outline>
    <contour>
      <point x="325" y="0" type="line"/>
      <point x="516" y="0" type="line"/>
      <point x="745" y="1298" type="line"/>
      <point x="1213" y="1298" type="line"/>
      <point x="1241" y="1456" type="line"/>
      <point x="115" y="1456" type="line"/>
      <point x="87" y="1298" type="line"/>
      <point x="554" y="1298" type="line"/>
    </contour>
    <contour>
      <point x="613" y="1526" type="line"/>
      <point x="760" y="1526" type="line"/>
      <point x="805" y="1783" type="line"/>
      <point x="658" y="1783" type="line"/>
    </contour>
    <contour>
      <point x="344" y="1641" type="line"/>
      <point x="1018" y="1641" type="line"/>
      <point x="1043" y="1784" type="line"/>
      <point x="369" y="1784" type="line"/>
    </contour>
  </outline>
</glyph>
<glyph name="caa-ethiopic.liga" format="2">
  <advance width="1222"/>
  <outline>
    <contour>
      <point x="325" y="0" type="line"/>
      <point x="516" y="0" type="line"/>
      <point x="745" y="1298" type="line"/>
      <point x="1213" y="1298" type="line"/>
      <point x="1241" y="1456" type="line"/>
      <point x="115" y="1456" type="line"/>
      <point x="87" y="1298" type="line"/>
      <point x="554" y="1298" type="line"/>
    </contour>
    <contour>
      <point x="53" y="-278" type="line"/>
      <point x="202" y="-278" type="line"/>
      <point x="522" y="16" type="line" name="❌"/>
      <point x="298" y="16" type="line" name="❌"/>
    </contour>
    <contour>
      <point x="613" y="1526" type="line"/>
      <point x="760" y="1526" type="line"/>
      <point x="805" y="1783" type="line"/>
      <point x="658" y="1783" type="line"/>
    </contour>
    <component base="_smart.hat.caps" xOffset="579" yOffset="-1"/>
  </outline>
</glyph>
<glyph name="ce-ethiopic.liga" format="2">
  <advance width="1222"/>
  <outline>
    <contour>
      <point x="325" y="0" type="line"/>
      <point x="516" y="0" type="line"/>
      <point x="745" y="1298" type="line"/>
      <point x="1213" y="1298" type="line"/>
      <point x="1241" y="1456" type="line"/>
      <point x="115" y="1456" type="line"/>
      <point x="87" y="1298" type="line"/>
      <point x="554" y="1298" type="line"/>
    </contour>
    <contour>
      <point x="344" y="1641" type="line"/>
      <point x="1018" y="1641" type="line"/>
      <point x="1043" y="1784" type="line"/>
      <point x="369" y="1784" type="line"/>
    </contour>
    <contour>
      <point x="754" y="1507" type="line"/>
      <point x="613" y="1801" type="line"/>
      <point x="389" y="1801" type="line"/>
      <point x="605" y="1507" type="line"/>
    </contour>
  </outline>
</glyph>
